%TF.GenerationSoftware,KiCad,Pcbnew,(6.0.0)*%
%TF.CreationDate,2022-08-22T12:49:25+02:00*%
%TF.ProjectId,pcb,7063622e-6b69-4636-9164-5f7063625858,rev?*%
%TF.SameCoordinates,Original*%
%TF.FileFunction,Copper,L2,Bot*%
%TF.FilePolarity,Positive*%
%FSLAX46Y46*%
G04 Gerber Fmt 4.6, Leading zero omitted, Abs format (unit mm)*
G04 Created by KiCad (PCBNEW (6.0.0)) date 2022-08-22 12:49:25*
%MOMM*%
%LPD*%
G01*
G04 APERTURE LIST*
%TA.AperFunction,ComponentPad*%
%ADD10O,1.200000X2.000000*%
%TD*%
%TA.AperFunction,ComponentPad*%
%ADD11R,1.650000X1.650000*%
%TD*%
%TA.AperFunction,ComponentPad*%
%ADD12C,1.650000*%
%TD*%
%TA.AperFunction,ComponentPad*%
%ADD13C,4.800000*%
%TD*%
%TA.AperFunction,ComponentPad*%
%ADD14C,6.000000*%
%TD*%
%TA.AperFunction,ComponentPad*%
%ADD15C,2.000000*%
%TD*%
%TA.AperFunction,ComponentPad*%
%ADD16R,1.700000X1.700000*%
%TD*%
%TA.AperFunction,ComponentPad*%
%ADD17O,1.700000X1.700000*%
%TD*%
%TA.AperFunction,ComponentPad*%
%ADD18C,1.727200*%
%TD*%
%TA.AperFunction,ComponentPad*%
%ADD19R,1.727200X1.727200*%
%TD*%
%TA.AperFunction,ViaPad*%
%ADD20C,0.800000*%
%TD*%
%TA.AperFunction,Conductor*%
%ADD21C,0.500000*%
%TD*%
%TA.AperFunction,Conductor*%
%ADD22C,1.000000*%
%TD*%
%TA.AperFunction,Conductor*%
%ADD23C,6.000000*%
%TD*%
G04 APERTURE END LIST*
D10*
%TO.P,U6,1,1*%
%TO.N,TXD*%
X208280000Y-58420000D03*
%TO.P,U6,2,2*%
%TO.N,RXD*%
X210820000Y-58420000D03*
%TO.P,U6,3,3*%
%TO.N,TXD*%
X213360000Y-58420000D03*
%TO.P,U6,4,4*%
%TO.N,RXD*%
X215900000Y-58420000D03*
%TO.P,U6,5,5*%
%TO.N,TXD_2*%
X215900000Y-50800000D03*
%TO.P,U6,6,6*%
%TO.N,RXD_2*%
X213360000Y-50800000D03*
%TO.P,U6,7,7*%
X210820000Y-50800000D03*
%TO.P,U6,8,8*%
%TO.N,TXD_2*%
X208280000Y-50800000D03*
%TD*%
D11*
%TO.P,J1,1,1*%
%TO.N,+5V*%
X157870000Y-80710000D03*
D12*
%TO.P,J1,2,2*%
X157870000Y-77970000D03*
%TO.P,J1,3,3*%
%TO.N,GND*%
X157870000Y-75230000D03*
%TO.P,J1,4,4*%
X157870000Y-72490000D03*
%TO.P,J1,5,5*%
%TO.N,unconnected-(J1-Pad5)*%
X157870000Y-69750000D03*
%TO.P,J1,6,6*%
%TO.N,unconnected-(J1-Pad6)*%
X157870000Y-67010000D03*
%TO.P,J1,7,7*%
%TO.N,+12V*%
X157870000Y-64270000D03*
%TO.P,J1,8,8*%
X157870000Y-61530000D03*
%TO.P,J1,9,9*%
%TO.N,Cible*%
X155330000Y-79340000D03*
%TO.P,J1,10,10*%
X155330000Y-76600000D03*
%TO.P,J1,11,11*%
X155330000Y-73860000D03*
%TO.P,J1,12,12*%
X155330000Y-71120000D03*
%TO.P,J1,13,13*%
%TO.N,unconnected-(J1-Pad13)*%
X155330000Y-68380000D03*
%TO.P,J1,14,14*%
%TO.N,unconnected-(J1-Pad14)*%
X155330000Y-65640000D03*
%TO.P,J1,15,15*%
%TO.N,unconnected-(J1-Pad15)*%
X155330000Y-62900000D03*
D13*
%TO.P,J1,MH1,MH1*%
%TO.N,GND*%
X156600000Y-87770000D03*
%TO.P,J1,MH2,MH2*%
X156600000Y-54470000D03*
%TD*%
D14*
%TO.P,U2,1,1*%
%TO.N,GND*%
X231180000Y-56090000D03*
%TO.P,U2,2,2*%
%TO.N,+12V*%
X231180000Y-63290000D03*
D15*
%TO.P,U2,3*%
%TO.N,N/C*%
X237180000Y-52940000D03*
%TO.P,U2,4*%
X237180000Y-66440000D03*
%TD*%
D16*
%TO.P,U5,1,STATE*%
%TO.N,unconnected-(U5-Pad1)*%
X166370000Y-88900000D03*
D17*
%TO.P,U5,2,RXD*%
%TO.N,RXD*%
X168910000Y-88900000D03*
%TO.P,U5,3,TXD*%
%TO.N,TXD*%
X171450000Y-88900000D03*
%TO.P,U5,4,GND*%
%TO.N,GND*%
X173990000Y-88900000D03*
%TO.P,U5,5,VCC*%
%TO.N,+5V*%
X176530000Y-88900000D03*
%TO.P,U5,6,KEY*%
%TO.N,unconnected-(U5-Pad6)*%
X179070000Y-88900000D03*
%TD*%
D18*
%TO.P,XA1,3V3,3.3V*%
%TO.N,unconnected-(XA1-Pad3V3)*%
X187325000Y-55372000D03*
%TO.P,XA1,5V,5V*%
%TO.N,+5V*%
X187325000Y-80772000D03*
%TO.P,XA1,A0,A0*%
%TO.N,unconnected-(XA1-PadA0)*%
X187325000Y-60452000D03*
%TO.P,XA1,A1,A1*%
%TO.N,unconnected-(XA1-PadA1)*%
X187325000Y-62992000D03*
%TO.P,XA1,A2,A2*%
%TO.N,unconnected-(XA1-PadA2)*%
X187325000Y-65532000D03*
%TO.P,XA1,A3,A3*%
%TO.N,unconnected-(XA1-PadA3)*%
X187325000Y-68072000D03*
%TO.P,XA1,A4,A4_SDA*%
%TO.N,unconnected-(XA1-PadA4)*%
X187325000Y-70612000D03*
%TO.P,XA1,A5,A5_SCL*%
%TO.N,unconnected-(XA1-PadA5)*%
X187325000Y-73152000D03*
%TO.P,XA1,A6,A6*%
%TO.N,unconnected-(XA1-PadA6)*%
X187325000Y-75692000D03*
%TO.P,XA1,A7,A7*%
%TO.N,unconnected-(XA1-PadA7)*%
X187325000Y-78232000D03*
%TO.P,XA1,AREF,AREF*%
%TO.N,unconnected-(XA1-PadAREF)*%
X187325000Y-57912000D03*
%TO.P,XA1,D0,D0_RX0*%
%TO.N,TXD_2*%
X202565000Y-85852000D03*
D19*
%TO.P,XA1,D1,D1_TX0*%
%TO.N,RXD_2*%
X202565000Y-88392000D03*
D18*
%TO.P,XA1,D2,D2_INT0*%
%TO.N,Cible*%
X202565000Y-78232000D03*
%TO.P,XA1,D3,D3_INT1*%
%TO.N,unconnected-(XA1-PadD3)*%
X202565000Y-75692000D03*
%TO.P,XA1,D4,D4*%
%TO.N,Bob*%
X202565000Y-73152000D03*
%TO.P,XA1,D5,D5*%
%TO.N,unconnected-(XA1-PadD5)*%
X202565000Y-70612000D03*
%TO.P,XA1,D6,D6*%
%TO.N,unconnected-(XA1-PadD6)*%
X202565000Y-68072000D03*
%TO.P,XA1,D7,D7*%
%TO.N,unconnected-(XA1-PadD7)*%
X202565000Y-65532000D03*
%TO.P,XA1,D8,D8*%
%TO.N,unconnected-(XA1-PadD8)*%
X202565000Y-62992000D03*
%TO.P,XA1,D9,D9*%
%TO.N,unconnected-(XA1-PadD9)*%
X202565000Y-60452000D03*
%TO.P,XA1,D10,D10_CS*%
%TO.N,unconnected-(XA1-PadD10)*%
X202565000Y-57912000D03*
%TO.P,XA1,D11,D11_MOSI*%
%TO.N,unconnected-(XA1-PadD11)*%
X202565000Y-55372000D03*
%TO.P,XA1,D12,D12_MISO*%
%TO.N,unconnected-(XA1-PadD12)*%
X202565000Y-52832000D03*
%TO.P,XA1,D13,D13_SCK*%
%TO.N,unconnected-(XA1-PadD13)*%
X187325000Y-52832000D03*
%TO.P,XA1,GND1,GND*%
%TO.N,GND*%
X202565000Y-80772000D03*
%TO.P,XA1,GND2,GND*%
X187325000Y-85852000D03*
%TO.P,XA1,RST1,RESET*%
%TO.N,unconnected-(XA1-PadRST1)*%
X202565000Y-83312000D03*
%TO.P,XA1,RST2,RESET*%
%TO.N,unconnected-(XA1-PadRST2)*%
X187325000Y-83312000D03*
%TO.P,XA1,VIN,VIN*%
%TO.N,unconnected-(XA1-PadVIN)*%
X187325000Y-88392000D03*
%TD*%
D14*
%TO.P,U1,1,1*%
%TO.N,+12V*%
X231180000Y-78950000D03*
%TO.P,U1,2,2*%
%TO.N,Net-(U1-Pad2)*%
X231180000Y-86150000D03*
D15*
%TO.P,U1,3*%
%TO.N,N/C*%
X238080000Y-75950000D03*
%TO.P,U1,4*%
X238080000Y-89150000D03*
%TD*%
D20*
%TO.N,+12V*%
X217170000Y-61595000D03*
%TO.N,+5V*%
X209550000Y-60960000D03*
%TO.N,Bob*%
X221615000Y-93345000D03*
X214640000Y-78480000D03*
%TO.N,Cible*%
X172720000Y-83820000D03*
X194945000Y-78105000D03*
%TD*%
D21*
%TO.N,TXD*%
X208280000Y-90805000D02*
X208280000Y-58420000D01*
X176530000Y-93980000D02*
X171450000Y-88900000D01*
X205105000Y-93980000D02*
X176530000Y-93980000D01*
X205105000Y-93980000D02*
X208280000Y-90805000D01*
%TO.N,RXD*%
X205740000Y-95250000D02*
X175260000Y-95250000D01*
X205740000Y-95250000D02*
X210820000Y-90170000D01*
X210820000Y-90170000D02*
X210820000Y-58420000D01*
X175260000Y-95250000D02*
X168910000Y-88900000D01*
D22*
%TO.N,+12V*%
X221615000Y-57150000D02*
X221615000Y-49530000D01*
X218865000Y-63290000D02*
X217170000Y-61595000D01*
D23*
X231180000Y-63290000D02*
X231180000Y-78950000D01*
D22*
X221615000Y-49530000D02*
X219075000Y-46990000D01*
X157870000Y-64270000D02*
X157870000Y-61530000D01*
X172410000Y-46990000D02*
X157870000Y-61530000D01*
X231180000Y-63290000D02*
X218865000Y-63290000D01*
X219075000Y-46990000D02*
X172410000Y-46990000D01*
X217170000Y-61595000D02*
X221615000Y-57150000D01*
D21*
%TO.N,Bob*%
X221615000Y-93345000D02*
X221615000Y-79375000D01*
X221615000Y-79375000D02*
X220720000Y-78480000D01*
X220720000Y-78480000D02*
X214640000Y-78480000D01*
D22*
%TO.N,Cible*%
X202565000Y-78232000D02*
X195072000Y-78232000D01*
X155330000Y-79340000D02*
X155330000Y-82305000D01*
X155330000Y-76600000D02*
X155330000Y-79340000D01*
X155330000Y-73860000D02*
X155330000Y-76600000D01*
X155330000Y-82305000D02*
X156845000Y-83820000D01*
X156845000Y-83820000D02*
X172720000Y-83820000D01*
X155330000Y-71120000D02*
X155330000Y-73860000D01*
X195072000Y-78232000D02*
X194945000Y-78105000D01*
D21*
%TO.N,TXD_2*%
X205740000Y-53340000D02*
X208280000Y-50800000D01*
X202565000Y-85852000D02*
X204978000Y-85852000D01*
X204978000Y-85852000D02*
X205740000Y-85090000D01*
X205740000Y-85090000D02*
X205740000Y-53340000D01*
%TO.N,RXD_2*%
X206248000Y-88392000D02*
X207010000Y-87630000D01*
X202565000Y-88392000D02*
X206248000Y-88392000D01*
X210820000Y-53995755D02*
X210820000Y-50800000D01*
X207010000Y-87630000D02*
X207010000Y-57805755D01*
X207010000Y-57805755D02*
X210820000Y-53995755D01*
%TD*%
%TA.AperFunction,Conductor*%
%TO.N,+5V*%
G36*
X239464121Y-43073002D02*
G01*
X239510614Y-43126658D01*
X239522000Y-43179000D01*
X239522000Y-74974085D01*
X239501998Y-75042206D01*
X239448342Y-75088699D01*
X239378068Y-75098803D01*
X239313488Y-75069309D01*
X239300189Y-75055915D01*
X239153182Y-74883792D01*
X239153177Y-74883787D01*
X239149969Y-74880031D01*
X238969416Y-74725824D01*
X238965208Y-74723245D01*
X238965202Y-74723241D01*
X238771183Y-74604346D01*
X238766963Y-74601760D01*
X238762393Y-74599867D01*
X238762389Y-74599865D01*
X238552167Y-74512789D01*
X238552165Y-74512788D01*
X238547594Y-74510895D01*
X238467391Y-74491640D01*
X238321524Y-74456620D01*
X238321518Y-74456619D01*
X238316711Y-74455465D01*
X238080000Y-74436835D01*
X237843289Y-74455465D01*
X237838482Y-74456619D01*
X237838476Y-74456620D01*
X237692609Y-74491640D01*
X237612406Y-74510895D01*
X237607835Y-74512788D01*
X237607833Y-74512789D01*
X237397611Y-74599865D01*
X237397607Y-74599867D01*
X237393037Y-74601760D01*
X237388817Y-74604346D01*
X237194798Y-74723241D01*
X237194792Y-74723245D01*
X237190584Y-74725824D01*
X237010031Y-74880031D01*
X236855824Y-75060584D01*
X236853245Y-75064792D01*
X236853241Y-75064798D01*
X236832403Y-75098803D01*
X236731760Y-75263037D01*
X236729867Y-75267607D01*
X236729865Y-75267611D01*
X236646962Y-75467759D01*
X236640895Y-75482406D01*
X236623333Y-75555559D01*
X236594496Y-75675673D01*
X236585465Y-75713289D01*
X236566835Y-75950000D01*
X236585465Y-76186711D01*
X236586619Y-76191518D01*
X236586620Y-76191524D01*
X236615729Y-76312769D01*
X236640895Y-76417594D01*
X236642788Y-76422165D01*
X236642789Y-76422167D01*
X236716450Y-76600000D01*
X236731760Y-76636963D01*
X236734346Y-76641183D01*
X236853241Y-76835202D01*
X236853245Y-76835208D01*
X236855824Y-76839416D01*
X237010031Y-77019969D01*
X237190584Y-77174176D01*
X237194792Y-77176755D01*
X237194798Y-77176759D01*
X237388817Y-77295654D01*
X237393037Y-77298240D01*
X237397607Y-77300133D01*
X237397611Y-77300135D01*
X237589381Y-77379568D01*
X237612406Y-77389105D01*
X237692609Y-77408360D01*
X237838476Y-77443380D01*
X237838482Y-77443381D01*
X237843289Y-77444535D01*
X238080000Y-77463165D01*
X238316711Y-77444535D01*
X238321518Y-77443381D01*
X238321524Y-77443380D01*
X238467391Y-77408360D01*
X238547594Y-77389105D01*
X238570619Y-77379568D01*
X238762389Y-77300135D01*
X238762393Y-77300133D01*
X238766963Y-77298240D01*
X238771183Y-77295654D01*
X238965202Y-77176759D01*
X238965208Y-77176755D01*
X238969416Y-77174176D01*
X239149969Y-77019969D01*
X239153177Y-77016213D01*
X239153182Y-77016208D01*
X239300189Y-76844085D01*
X239359639Y-76805275D01*
X239430634Y-76804769D01*
X239490633Y-76842725D01*
X239520586Y-76907093D01*
X239522000Y-76925915D01*
X239522000Y-88174085D01*
X239501998Y-88242206D01*
X239448342Y-88288699D01*
X239378068Y-88298803D01*
X239313488Y-88269309D01*
X239300189Y-88255915D01*
X239153182Y-88083792D01*
X239153177Y-88083787D01*
X239149969Y-88080031D01*
X238969416Y-87925824D01*
X238965208Y-87923245D01*
X238965202Y-87923241D01*
X238771183Y-87804346D01*
X238766963Y-87801760D01*
X238762393Y-87799867D01*
X238762389Y-87799865D01*
X238552167Y-87712789D01*
X238552165Y-87712788D01*
X238547594Y-87710895D01*
X238446977Y-87686739D01*
X238321524Y-87656620D01*
X238321518Y-87656619D01*
X238316711Y-87655465D01*
X238080000Y-87636835D01*
X237843289Y-87655465D01*
X237838482Y-87656619D01*
X237838476Y-87656620D01*
X237713023Y-87686739D01*
X237612406Y-87710895D01*
X237607835Y-87712788D01*
X237607833Y-87712789D01*
X237397611Y-87799865D01*
X237397607Y-87799867D01*
X237393037Y-87801760D01*
X237388817Y-87804346D01*
X237194798Y-87923241D01*
X237194792Y-87923245D01*
X237190584Y-87925824D01*
X237010031Y-88080031D01*
X236855824Y-88260584D01*
X236853245Y-88264792D01*
X236853241Y-88264798D01*
X236758218Y-88419862D01*
X236731760Y-88463037D01*
X236729867Y-88467607D01*
X236729865Y-88467611D01*
X236642985Y-88677361D01*
X236640895Y-88682406D01*
X236639740Y-88687218D01*
X236587821Y-88903477D01*
X236585465Y-88913289D01*
X236566835Y-89150000D01*
X236585465Y-89386711D01*
X236586619Y-89391518D01*
X236586620Y-89391524D01*
X236613631Y-89504033D01*
X236640895Y-89617594D01*
X236642788Y-89622165D01*
X236642789Y-89622167D01*
X236728851Y-89829939D01*
X236731760Y-89836963D01*
X236734346Y-89841183D01*
X236853241Y-90035202D01*
X236853245Y-90035208D01*
X236855824Y-90039416D01*
X237010031Y-90219969D01*
X237190584Y-90374176D01*
X237194792Y-90376755D01*
X237194798Y-90376759D01*
X237334271Y-90462228D01*
X237393037Y-90498240D01*
X237397607Y-90500133D01*
X237397611Y-90500135D01*
X237594743Y-90581789D01*
X237612406Y-90589105D01*
X237692609Y-90608360D01*
X237838476Y-90643380D01*
X237838482Y-90643381D01*
X237843289Y-90644535D01*
X238080000Y-90663165D01*
X238316711Y-90644535D01*
X238321518Y-90643381D01*
X238321524Y-90643380D01*
X238467391Y-90608360D01*
X238547594Y-90589105D01*
X238565257Y-90581789D01*
X238762389Y-90500135D01*
X238762393Y-90500133D01*
X238766963Y-90498240D01*
X238825729Y-90462228D01*
X238965202Y-90376759D01*
X238965208Y-90376755D01*
X238969416Y-90374176D01*
X239149969Y-90219969D01*
X239153177Y-90216213D01*
X239153182Y-90216208D01*
X239300189Y-90044085D01*
X239359639Y-90005275D01*
X239430634Y-90004769D01*
X239490633Y-90042725D01*
X239520586Y-90107093D01*
X239522000Y-90125915D01*
X239522000Y-99061000D01*
X239501998Y-99129121D01*
X239448342Y-99175614D01*
X239396000Y-99187000D01*
X153034000Y-99187000D01*
X152965879Y-99166998D01*
X152919386Y-99113342D01*
X152908000Y-99061000D01*
X152908000Y-95227965D01*
X156645905Y-95227965D01*
X156646152Y-95232249D01*
X156646152Y-95232250D01*
X156647319Y-95252485D01*
X156662382Y-95513727D01*
X156663207Y-95517932D01*
X156663208Y-95517940D01*
X156681587Y-95611615D01*
X156717489Y-95794610D01*
X156718876Y-95798660D01*
X156718877Y-95798665D01*
X156793292Y-96016012D01*
X156810206Y-96065414D01*
X156842548Y-96129718D01*
X156918275Y-96280284D01*
X156938818Y-96321130D01*
X157100944Y-96557025D01*
X157293585Y-96768735D01*
X157347402Y-96813733D01*
X157509884Y-96949590D01*
X157509889Y-96949594D01*
X157513176Y-96952342D01*
X157634415Y-97028395D01*
X157752014Y-97102165D01*
X157752018Y-97102167D01*
X157755654Y-97104448D01*
X158016531Y-97222238D01*
X158020650Y-97223458D01*
X158286868Y-97302316D01*
X158286873Y-97302317D01*
X158290981Y-97303534D01*
X158295215Y-97304182D01*
X158295220Y-97304183D01*
X158569682Y-97346181D01*
X158569684Y-97346181D01*
X158573924Y-97346830D01*
X158719647Y-97349119D01*
X158855835Y-97351259D01*
X158855841Y-97351259D01*
X158860126Y-97351326D01*
X159144290Y-97316939D01*
X159421157Y-97244304D01*
X159685606Y-97134766D01*
X159932741Y-96990351D01*
X160157991Y-96813733D01*
X160357187Y-96608179D01*
X160359720Y-96604731D01*
X160359724Y-96604726D01*
X160524105Y-96380947D01*
X160526643Y-96377492D01*
X160559325Y-96317299D01*
X160661174Y-96129718D01*
X160661175Y-96129716D01*
X160663224Y-96125942D01*
X160764401Y-95858184D01*
X160802779Y-95690620D01*
X160827347Y-95583351D01*
X160827348Y-95583346D01*
X160828304Y-95579171D01*
X160853749Y-95294067D01*
X160854210Y-95250000D01*
X160834742Y-94964426D01*
X160833875Y-94960240D01*
X160833874Y-94960232D01*
X160777566Y-94688338D01*
X160776696Y-94684136D01*
X160681148Y-94414317D01*
X160549866Y-94159962D01*
X160539325Y-94144963D01*
X160387745Y-93929288D01*
X160387744Y-93929287D01*
X160385278Y-93925778D01*
X160190431Y-93716097D01*
X159968929Y-93534800D01*
X159724872Y-93385242D01*
X159720936Y-93383514D01*
X159466704Y-93271913D01*
X159466700Y-93271912D01*
X159462776Y-93270189D01*
X159187490Y-93191772D01*
X159183248Y-93191168D01*
X159183242Y-93191167D01*
X158908360Y-93152046D01*
X158904109Y-93151441D01*
X158753285Y-93150651D01*
X158622162Y-93149964D01*
X158622155Y-93149964D01*
X158617876Y-93149942D01*
X158613631Y-93150501D01*
X158613629Y-93150501D01*
X158578910Y-93155072D01*
X158334087Y-93187304D01*
X158057996Y-93262834D01*
X157794709Y-93375135D01*
X157549099Y-93522130D01*
X157325711Y-93701097D01*
X157128678Y-93908726D01*
X156961647Y-94141174D01*
X156827709Y-94394141D01*
X156826237Y-94398164D01*
X156826235Y-94398168D01*
X156801277Y-94466368D01*
X156729340Y-94662944D01*
X156668363Y-94942611D01*
X156646403Y-95221642D01*
X156645905Y-95227965D01*
X152908000Y-95227965D01*
X152908000Y-87678487D01*
X153688009Y-87678487D01*
X153688104Y-87682117D01*
X153688104Y-87682119D01*
X153695206Y-87953322D01*
X153696789Y-88013789D01*
X153744050Y-88345861D01*
X153829164Y-88670299D01*
X153830483Y-88673682D01*
X153925826Y-88918223D01*
X153951005Y-88982805D01*
X153958788Y-88997505D01*
X154081751Y-89229740D01*
X154107957Y-89279235D01*
X154110009Y-89282220D01*
X154110014Y-89282229D01*
X154176516Y-89378989D01*
X154297939Y-89555661D01*
X154300316Y-89558385D01*
X154300320Y-89558391D01*
X154493026Y-89779292D01*
X154518435Y-89808419D01*
X154766520Y-90034160D01*
X155038907Y-90229889D01*
X155331985Y-90393015D01*
X155641870Y-90521374D01*
X155645364Y-90522369D01*
X155645366Y-90522370D01*
X155960954Y-90612267D01*
X155960959Y-90612268D01*
X155964455Y-90613264D01*
X156184788Y-90649345D01*
X156291884Y-90666883D01*
X156291888Y-90666883D01*
X156295464Y-90667469D01*
X156299090Y-90667640D01*
X156626882Y-90683098D01*
X156626883Y-90683098D01*
X156630509Y-90683269D01*
X156667959Y-90680716D01*
X156961518Y-90660704D01*
X156961526Y-90660703D01*
X156965149Y-90660456D01*
X156968725Y-90659793D01*
X156968727Y-90659793D01*
X157291385Y-90599992D01*
X157291389Y-90599991D01*
X157294950Y-90599331D01*
X157595890Y-90506750D01*
X157612062Y-90501775D01*
X157615540Y-90500705D01*
X157836096Y-90403887D01*
X157919346Y-90367343D01*
X157919350Y-90367341D01*
X157922669Y-90365884D01*
X157967670Y-90339588D01*
X158209127Y-90198492D01*
X158209129Y-90198491D01*
X158212267Y-90196657D01*
X158215176Y-90194473D01*
X158477588Y-89997448D01*
X158477592Y-89997445D01*
X158480495Y-89995265D01*
X158688228Y-89798134D01*
X165011500Y-89798134D01*
X165018255Y-89860316D01*
X165069385Y-89996705D01*
X165156739Y-90113261D01*
X165273295Y-90200615D01*
X165409684Y-90251745D01*
X165471866Y-90258500D01*
X167268134Y-90258500D01*
X167330316Y-90251745D01*
X167466705Y-90200615D01*
X167583261Y-90113261D01*
X167670615Y-89996705D01*
X167692799Y-89937529D01*
X167714598Y-89879382D01*
X167757240Y-89822618D01*
X167823802Y-89797918D01*
X167893150Y-89813126D01*
X167927817Y-89841114D01*
X167956250Y-89873938D01*
X168128126Y-90016632D01*
X168321000Y-90129338D01*
X168529692Y-90209030D01*
X168534760Y-90210061D01*
X168534763Y-90210062D01*
X168635554Y-90230568D01*
X168748597Y-90253567D01*
X168753772Y-90253757D01*
X168753774Y-90253757D01*
X168966673Y-90261564D01*
X168966677Y-90261564D01*
X168971837Y-90261753D01*
X169111908Y-90243809D01*
X169182017Y-90254993D01*
X169217012Y-90279693D01*
X174676230Y-95738911D01*
X174688616Y-95753323D01*
X174697149Y-95764918D01*
X174697154Y-95764923D01*
X174701492Y-95770818D01*
X174707070Y-95775557D01*
X174707073Y-95775560D01*
X174741768Y-95805035D01*
X174749284Y-95811965D01*
X174754979Y-95817660D01*
X174757861Y-95819940D01*
X174777251Y-95835281D01*
X174780655Y-95838072D01*
X174809051Y-95862196D01*
X174836285Y-95885333D01*
X174842801Y-95888661D01*
X174847850Y-95892028D01*
X174852979Y-95895195D01*
X174858716Y-95899734D01*
X174924875Y-95930655D01*
X174928769Y-95932558D01*
X174993808Y-95965769D01*
X175000916Y-95967508D01*
X175006559Y-95969607D01*
X175012322Y-95971524D01*
X175018950Y-95974622D01*
X175026112Y-95976112D01*
X175026113Y-95976112D01*
X175090412Y-95989486D01*
X175094696Y-95990456D01*
X175165610Y-96007808D01*
X175171212Y-96008156D01*
X175171215Y-96008156D01*
X175176764Y-96008500D01*
X175176762Y-96008536D01*
X175180755Y-96008775D01*
X175184947Y-96009149D01*
X175192115Y-96010640D01*
X175269520Y-96008546D01*
X175272928Y-96008500D01*
X205672930Y-96008500D01*
X205691880Y-96009933D01*
X205706115Y-96012099D01*
X205706119Y-96012099D01*
X205713349Y-96013199D01*
X205720641Y-96012606D01*
X205720644Y-96012606D01*
X205766018Y-96008915D01*
X205776233Y-96008500D01*
X205784293Y-96008500D01*
X205801680Y-96006473D01*
X205812507Y-96005211D01*
X205816882Y-96004778D01*
X205882339Y-95999454D01*
X205882342Y-95999453D01*
X205889637Y-95998860D01*
X205896601Y-95996604D01*
X205902560Y-95995413D01*
X205908415Y-95994029D01*
X205915681Y-95993182D01*
X205984327Y-95968265D01*
X205988455Y-95966848D01*
X206050936Y-95946607D01*
X206050938Y-95946606D01*
X206057899Y-95944351D01*
X206064154Y-95940555D01*
X206069628Y-95938049D01*
X206075058Y-95935330D01*
X206081937Y-95932833D01*
X206088058Y-95928820D01*
X206142976Y-95892814D01*
X206146680Y-95890477D01*
X206209107Y-95852595D01*
X206217484Y-95845197D01*
X206217508Y-95845224D01*
X206220500Y-95842571D01*
X206223733Y-95839868D01*
X206229852Y-95835856D01*
X206283128Y-95779617D01*
X206285506Y-95777175D01*
X206834716Y-95227965D01*
X231575905Y-95227965D01*
X231576152Y-95232249D01*
X231576152Y-95232250D01*
X231577319Y-95252485D01*
X231592382Y-95513727D01*
X231593207Y-95517932D01*
X231593208Y-95517940D01*
X231611587Y-95611615D01*
X231647489Y-95794610D01*
X231648876Y-95798660D01*
X231648877Y-95798665D01*
X231723292Y-96016012D01*
X231740206Y-96065414D01*
X231772548Y-96129718D01*
X231848275Y-96280284D01*
X231868818Y-96321130D01*
X232030944Y-96557025D01*
X232223585Y-96768735D01*
X232277402Y-96813733D01*
X232439884Y-96949590D01*
X232439889Y-96949594D01*
X232443176Y-96952342D01*
X232564415Y-97028395D01*
X232682014Y-97102165D01*
X232682018Y-97102167D01*
X232685654Y-97104448D01*
X232946531Y-97222238D01*
X232950650Y-97223458D01*
X233216868Y-97302316D01*
X233216873Y-97302317D01*
X233220981Y-97303534D01*
X233225215Y-97304182D01*
X233225220Y-97304183D01*
X233499682Y-97346181D01*
X233499684Y-97346181D01*
X233503924Y-97346830D01*
X233649647Y-97349119D01*
X233785835Y-97351259D01*
X233785841Y-97351259D01*
X233790126Y-97351326D01*
X234074290Y-97316939D01*
X234351157Y-97244304D01*
X234615606Y-97134766D01*
X234862741Y-96990351D01*
X235087991Y-96813733D01*
X235287187Y-96608179D01*
X235289720Y-96604731D01*
X235289724Y-96604726D01*
X235454105Y-96380947D01*
X235456643Y-96377492D01*
X235489325Y-96317299D01*
X235591174Y-96129718D01*
X235591175Y-96129716D01*
X235593224Y-96125942D01*
X235694401Y-95858184D01*
X235732779Y-95690620D01*
X235757347Y-95583351D01*
X235757348Y-95583346D01*
X235758304Y-95579171D01*
X235783749Y-95294067D01*
X235784210Y-95250000D01*
X235764742Y-94964426D01*
X235763875Y-94960240D01*
X235763874Y-94960232D01*
X235707566Y-94688338D01*
X235706696Y-94684136D01*
X235611148Y-94414317D01*
X235479866Y-94159962D01*
X235469325Y-94144963D01*
X235317745Y-93929288D01*
X235317744Y-93929287D01*
X235315278Y-93925778D01*
X235120431Y-93716097D01*
X234898929Y-93534800D01*
X234654872Y-93385242D01*
X234650936Y-93383514D01*
X234396704Y-93271913D01*
X234396700Y-93271912D01*
X234392776Y-93270189D01*
X234117490Y-93191772D01*
X234113248Y-93191168D01*
X234113242Y-93191167D01*
X233838360Y-93152046D01*
X233834109Y-93151441D01*
X233683285Y-93150651D01*
X233552162Y-93149964D01*
X233552155Y-93149964D01*
X233547876Y-93149942D01*
X233543631Y-93150501D01*
X233543629Y-93150501D01*
X233508910Y-93155072D01*
X233264087Y-93187304D01*
X232987996Y-93262834D01*
X232724709Y-93375135D01*
X232479099Y-93522130D01*
X232255711Y-93701097D01*
X232058678Y-93908726D01*
X231891647Y-94141174D01*
X231757709Y-94394141D01*
X231756237Y-94398164D01*
X231756235Y-94398168D01*
X231731277Y-94466368D01*
X231659340Y-94662944D01*
X231598363Y-94942611D01*
X231576403Y-95221642D01*
X231575905Y-95227965D01*
X206834716Y-95227965D01*
X211308911Y-90753770D01*
X211323323Y-90741384D01*
X211334918Y-90732851D01*
X211334923Y-90732846D01*
X211340818Y-90728508D01*
X211345557Y-90722930D01*
X211345560Y-90722927D01*
X211375035Y-90688232D01*
X211381965Y-90680716D01*
X211387660Y-90675021D01*
X211392518Y-90668880D01*
X211405281Y-90652749D01*
X211408072Y-90649345D01*
X211450591Y-90599297D01*
X211450592Y-90599295D01*
X211455333Y-90593715D01*
X211458661Y-90587199D01*
X211462028Y-90582150D01*
X211465195Y-90577021D01*
X211469734Y-90571284D01*
X211500655Y-90505125D01*
X211502561Y-90501225D01*
X211522474Y-90462228D01*
X211535769Y-90436192D01*
X211537508Y-90429084D01*
X211539607Y-90423441D01*
X211541524Y-90417678D01*
X211544622Y-90411050D01*
X211559487Y-90339583D01*
X211560457Y-90335299D01*
X211576473Y-90269845D01*
X211577808Y-90264390D01*
X211578174Y-90258500D01*
X211578500Y-90253236D01*
X211578536Y-90253238D01*
X211578775Y-90249245D01*
X211579149Y-90245053D01*
X211580640Y-90237885D01*
X211578546Y-90160479D01*
X211578500Y-90157072D01*
X211578500Y-78480000D01*
X213726496Y-78480000D01*
X213727186Y-78486565D01*
X213743174Y-78638678D01*
X213746458Y-78669928D01*
X213805473Y-78851556D01*
X213900960Y-79016944D01*
X213905378Y-79021851D01*
X213905379Y-79021852D01*
X214010154Y-79138216D01*
X214028747Y-79158866D01*
X214078630Y-79195108D01*
X214177904Y-79267235D01*
X214183248Y-79271118D01*
X214189276Y-79273802D01*
X214189278Y-79273803D01*
X214337960Y-79340000D01*
X214357712Y-79348794D01*
X214438782Y-79366026D01*
X214538056Y-79387128D01*
X214538061Y-79387128D01*
X214544513Y-79388500D01*
X214735487Y-79388500D01*
X214741939Y-79387128D01*
X214741944Y-79387128D01*
X214841218Y-79366026D01*
X214922288Y-79348794D01*
X214942040Y-79340000D01*
X215090722Y-79273803D01*
X215090724Y-79273802D01*
X215096752Y-79271118D01*
X215102091Y-79267239D01*
X215102098Y-79267235D01*
X215108528Y-79262563D01*
X215182587Y-79238500D01*
X220353629Y-79238500D01*
X220421750Y-79258502D01*
X220442724Y-79275405D01*
X220819595Y-79652276D01*
X220853621Y-79714588D01*
X220856500Y-79741371D01*
X220856500Y-92808001D01*
X220839619Y-92871000D01*
X220780473Y-92973444D01*
X220721458Y-93155072D01*
X220701496Y-93345000D01*
X220721458Y-93534928D01*
X220780473Y-93716556D01*
X220875960Y-93881944D01*
X220880378Y-93886851D01*
X220880379Y-93886852D01*
X220912600Y-93922637D01*
X221003747Y-94023866D01*
X221158248Y-94136118D01*
X221164276Y-94138802D01*
X221164278Y-94138803D01*
X221326681Y-94211109D01*
X221332712Y-94213794D01*
X221426112Y-94233647D01*
X221513056Y-94252128D01*
X221513061Y-94252128D01*
X221519513Y-94253500D01*
X221710487Y-94253500D01*
X221716939Y-94252128D01*
X221716944Y-94252128D01*
X221803887Y-94233647D01*
X221897288Y-94213794D01*
X221903319Y-94211109D01*
X222065722Y-94138803D01*
X222065724Y-94138802D01*
X222071752Y-94136118D01*
X222226253Y-94023866D01*
X222317400Y-93922637D01*
X222349621Y-93886852D01*
X222349622Y-93886851D01*
X222354040Y-93881944D01*
X222449527Y-93716556D01*
X222508542Y-93534928D01*
X222528504Y-93345000D01*
X222508542Y-93155072D01*
X222449527Y-92973444D01*
X222390381Y-92871000D01*
X222373500Y-92808001D01*
X222373500Y-79442069D01*
X222374933Y-79423118D01*
X222377099Y-79408883D01*
X222377099Y-79408881D01*
X222378199Y-79401651D01*
X222377417Y-79392027D01*
X222373915Y-79348982D01*
X222373500Y-79338767D01*
X222373500Y-79330707D01*
X222370211Y-79302493D01*
X222369778Y-79298118D01*
X222364454Y-79232661D01*
X222364453Y-79232658D01*
X222363860Y-79225363D01*
X222361604Y-79218399D01*
X222360413Y-79212440D01*
X222359029Y-79206585D01*
X222358182Y-79199319D01*
X222333265Y-79130673D01*
X222331848Y-79126545D01*
X222311607Y-79064064D01*
X222311606Y-79064062D01*
X222309351Y-79057101D01*
X222305555Y-79050846D01*
X222303049Y-79045372D01*
X222300330Y-79039942D01*
X222297833Y-79033063D01*
X222260730Y-78976472D01*
X222257814Y-78972024D01*
X222255467Y-78968305D01*
X222217595Y-78905893D01*
X222210197Y-78897516D01*
X222210224Y-78897492D01*
X222207571Y-78894500D01*
X222204868Y-78891267D01*
X222200856Y-78885148D01*
X222144617Y-78831872D01*
X222142175Y-78829494D01*
X221303770Y-77991089D01*
X221291384Y-77976677D01*
X221282851Y-77965082D01*
X221282846Y-77965077D01*
X221278508Y-77959182D01*
X221272930Y-77954443D01*
X221272927Y-77954440D01*
X221238232Y-77924965D01*
X221230716Y-77918035D01*
X221225021Y-77912340D01*
X221214347Y-77903895D01*
X221202749Y-77894719D01*
X221199345Y-77891928D01*
X221149297Y-77849409D01*
X221149295Y-77849408D01*
X221143715Y-77844667D01*
X221137199Y-77841339D01*
X221132150Y-77837972D01*
X221127021Y-77834805D01*
X221121284Y-77830266D01*
X221055125Y-77799345D01*
X221051225Y-77797439D01*
X221050857Y-77797251D01*
X220986192Y-77764231D01*
X220979084Y-77762492D01*
X220973441Y-77760393D01*
X220967678Y-77758476D01*
X220961050Y-77755378D01*
X220944339Y-77751902D01*
X220920252Y-77746892D01*
X220889583Y-77740513D01*
X220885299Y-77739543D01*
X220855813Y-77732328D01*
X220814390Y-77722192D01*
X220808788Y-77721844D01*
X220808785Y-77721844D01*
X220803236Y-77721500D01*
X220803238Y-77721464D01*
X220799245Y-77721225D01*
X220795053Y-77720851D01*
X220787885Y-77719360D01*
X220721675Y-77721151D01*
X220710479Y-77721454D01*
X220707072Y-77721500D01*
X215182587Y-77721500D01*
X215108528Y-77697437D01*
X215102098Y-77692765D01*
X215102091Y-77692761D01*
X215096752Y-77688882D01*
X215090724Y-77686198D01*
X215090722Y-77686197D01*
X214928319Y-77613891D01*
X214928318Y-77613891D01*
X214922288Y-77611206D01*
X214828888Y-77591353D01*
X214741944Y-77572872D01*
X214741939Y-77572872D01*
X214735487Y-77571500D01*
X214544513Y-77571500D01*
X214538061Y-77572872D01*
X214538056Y-77572872D01*
X214451112Y-77591353D01*
X214357712Y-77611206D01*
X214351682Y-77613891D01*
X214351681Y-77613891D01*
X214189278Y-77686197D01*
X214189276Y-77686198D01*
X214183248Y-77688882D01*
X214177907Y-77692762D01*
X214177906Y-77692763D01*
X214147406Y-77714923D01*
X214028747Y-77801134D01*
X214024326Y-77806044D01*
X214024325Y-77806045D01*
X213920229Y-77921656D01*
X213900960Y-77943056D01*
X213883692Y-77972965D01*
X213817125Y-78088263D01*
X213805473Y-78108444D01*
X213746458Y-78290072D01*
X213745768Y-78296633D01*
X213745768Y-78296635D01*
X213740998Y-78342022D01*
X213726496Y-78480000D01*
X211578500Y-78480000D01*
X211578500Y-59681266D01*
X211598502Y-59613145D01*
X211613477Y-59594142D01*
X211693881Y-59510150D01*
X211808620Y-59332452D01*
X211850801Y-59227786D01*
X211885442Y-59141832D01*
X211885443Y-59141829D01*
X211887686Y-59136263D01*
X211928228Y-58928663D01*
X211928500Y-58923101D01*
X211928500Y-58872846D01*
X212251500Y-58872846D01*
X212266548Y-59030566D01*
X212326092Y-59233534D01*
X212422942Y-59421580D01*
X212553604Y-59587920D01*
X212558135Y-59591852D01*
X212558138Y-59591855D01*
X212667749Y-59686970D01*
X212713363Y-59726552D01*
X212718549Y-59729552D01*
X212718553Y-59729555D01*
X212880665Y-59823339D01*
X212896454Y-59832473D01*
X213096271Y-59901861D01*
X213102206Y-59902722D01*
X213102208Y-59902722D01*
X213299664Y-59931352D01*
X213299667Y-59931352D01*
X213305604Y-59932213D01*
X213516899Y-59922433D01*
X213648318Y-59890761D01*
X213716701Y-59874281D01*
X213716703Y-59874280D01*
X213722534Y-59872875D01*
X213727992Y-59870393D01*
X213727996Y-59870392D01*
X213889317Y-59797043D01*
X213915087Y-59785326D01*
X214087611Y-59662946D01*
X214233881Y-59510150D01*
X214348620Y-59332452D01*
X214390801Y-59227786D01*
X214425442Y-59141832D01*
X214425443Y-59141829D01*
X214427686Y-59136263D01*
X214468228Y-58928663D01*
X214468500Y-58923101D01*
X214468500Y-58872846D01*
X214791500Y-58872846D01*
X214806548Y-59030566D01*
X214866092Y-59233534D01*
X214962942Y-59421580D01*
X215093604Y-59587920D01*
X215098135Y-59591852D01*
X215098138Y-59591855D01*
X215207749Y-59686970D01*
X215253363Y-59726552D01*
X215258549Y-59729552D01*
X215258553Y-59729555D01*
X215420665Y-59823339D01*
X215436454Y-59832473D01*
X215636271Y-59901861D01*
X215642206Y-59902722D01*
X215642208Y-59902722D01*
X215839664Y-59931352D01*
X215839667Y-59931352D01*
X215845604Y-59932213D01*
X216056899Y-59922433D01*
X216188318Y-59890761D01*
X216256701Y-59874281D01*
X216256703Y-59874280D01*
X216262534Y-59872875D01*
X216267992Y-59870393D01*
X216267996Y-59870392D01*
X216429317Y-59797043D01*
X216455087Y-59785326D01*
X216627611Y-59662946D01*
X216773881Y-59510150D01*
X216888620Y-59332452D01*
X216930801Y-59227786D01*
X216965442Y-59141832D01*
X216965443Y-59141829D01*
X216967686Y-59136263D01*
X217008228Y-58928663D01*
X217008500Y-58923101D01*
X217008500Y-57967154D01*
X216993452Y-57809434D01*
X216933908Y-57606466D01*
X216931164Y-57601138D01*
X216839804Y-57423751D01*
X216839802Y-57423748D01*
X216837058Y-57418420D01*
X216706396Y-57252080D01*
X216701865Y-57248148D01*
X216701862Y-57248145D01*
X216551167Y-57117379D01*
X216546637Y-57113448D01*
X216541451Y-57110448D01*
X216541447Y-57110445D01*
X216368742Y-57010533D01*
X216363546Y-57007527D01*
X216163729Y-56938139D01*
X216157794Y-56937278D01*
X216157792Y-56937278D01*
X215960336Y-56908648D01*
X215960333Y-56908648D01*
X215954396Y-56907787D01*
X215743101Y-56917567D01*
X215648425Y-56940384D01*
X215543299Y-56965719D01*
X215543297Y-56965720D01*
X215537466Y-56967125D01*
X215532008Y-56969607D01*
X215532004Y-56969608D01*
X215430207Y-57015893D01*
X215344913Y-57054674D01*
X215172389Y-57177054D01*
X215123930Y-57227675D01*
X215055335Y-57299331D01*
X215026119Y-57329850D01*
X214911380Y-57507548D01*
X214896858Y-57543583D01*
X214841029Y-57682113D01*
X214832314Y-57703737D01*
X214791772Y-57911337D01*
X214791500Y-57916899D01*
X214791500Y-58872846D01*
X214468500Y-58872846D01*
X214468500Y-57967154D01*
X214453452Y-57809434D01*
X214393908Y-57606466D01*
X214391164Y-57601138D01*
X214299804Y-57423751D01*
X214299802Y-57423748D01*
X214297058Y-57418420D01*
X214166396Y-57252080D01*
X214161865Y-57248148D01*
X214161862Y-57248145D01*
X214011167Y-57117379D01*
X214006637Y-57113448D01*
X214001451Y-57110448D01*
X214001447Y-57110445D01*
X213828742Y-57010533D01*
X213823546Y-57007527D01*
X213623729Y-56938139D01*
X213617794Y-56937278D01*
X213617792Y-56937278D01*
X213420336Y-56908648D01*
X213420333Y-56908648D01*
X213414396Y-56907787D01*
X213203101Y-56917567D01*
X213108425Y-56940384D01*
X213003299Y-56965719D01*
X213003297Y-56965720D01*
X212997466Y-56967125D01*
X212992008Y-56969607D01*
X212992004Y-56969608D01*
X212890207Y-57015893D01*
X212804913Y-57054674D01*
X212632389Y-57177054D01*
X212583930Y-57227675D01*
X212515335Y-57299331D01*
X212486119Y-57329850D01*
X212371380Y-57507548D01*
X212356858Y-57543583D01*
X212301029Y-57682113D01*
X212292314Y-57703737D01*
X212251772Y-57911337D01*
X212251500Y-57916899D01*
X212251500Y-58872846D01*
X211928500Y-58872846D01*
X211928500Y-57967154D01*
X211913452Y-57809434D01*
X211853908Y-57606466D01*
X211851164Y-57601138D01*
X211759804Y-57423751D01*
X211759802Y-57423748D01*
X211757058Y-57418420D01*
X211626396Y-57252080D01*
X211621865Y-57248148D01*
X211621862Y-57248145D01*
X211471167Y-57117379D01*
X211466637Y-57113448D01*
X211461451Y-57110448D01*
X211461447Y-57110445D01*
X211288742Y-57010533D01*
X211283546Y-57007527D01*
X211083729Y-56938139D01*
X211077794Y-56937278D01*
X211077792Y-56937278D01*
X210880336Y-56908648D01*
X210880333Y-56908648D01*
X210874396Y-56907787D01*
X210663101Y-56917567D01*
X210568425Y-56940384D01*
X210463299Y-56965719D01*
X210463297Y-56965720D01*
X210457466Y-56967125D01*
X210452008Y-56969607D01*
X210452004Y-56969608D01*
X210350207Y-57015893D01*
X210264913Y-57054674D01*
X210092389Y-57177054D01*
X210043930Y-57227675D01*
X209975335Y-57299331D01*
X209946119Y-57329850D01*
X209831380Y-57507548D01*
X209816858Y-57543583D01*
X209761029Y-57682113D01*
X209752314Y-57703737D01*
X209711772Y-57911337D01*
X209711500Y-57916899D01*
X209711500Y-58872846D01*
X209726548Y-59030566D01*
X209786092Y-59233534D01*
X209882942Y-59421580D01*
X210013604Y-59587920D01*
X210018135Y-59591852D01*
X210022270Y-59596194D01*
X210021418Y-59597006D01*
X210056421Y-59651557D01*
X210061500Y-59686970D01*
X210061500Y-89803629D01*
X210041498Y-89871750D01*
X210024595Y-89892724D01*
X209253595Y-90663724D01*
X209191283Y-90697750D01*
X209120468Y-90692685D01*
X209063632Y-90650138D01*
X209038821Y-90583618D01*
X209038500Y-90574629D01*
X209038500Y-59681266D01*
X209058502Y-59613145D01*
X209073477Y-59594142D01*
X209153881Y-59510150D01*
X209268620Y-59332452D01*
X209310801Y-59227786D01*
X209345442Y-59141832D01*
X209345443Y-59141829D01*
X209347686Y-59136263D01*
X209388228Y-58928663D01*
X209388500Y-58923101D01*
X209388500Y-57967154D01*
X209373452Y-57809434D01*
X209313908Y-57606466D01*
X209311164Y-57601138D01*
X209219804Y-57423751D01*
X209219802Y-57423748D01*
X209217058Y-57418420D01*
X209086396Y-57252080D01*
X208947583Y-57131624D01*
X208909244Y-57071873D01*
X208909294Y-57000876D01*
X208941070Y-56947366D01*
X211308911Y-54579525D01*
X211323323Y-54567139D01*
X211334918Y-54558606D01*
X211334923Y-54558601D01*
X211340818Y-54554263D01*
X211345557Y-54548685D01*
X211345560Y-54548682D01*
X211375035Y-54513987D01*
X211381965Y-54506471D01*
X211387661Y-54500775D01*
X211389924Y-54497914D01*
X211389929Y-54497909D01*
X211405293Y-54478489D01*
X211408082Y-54475088D01*
X211410028Y-54472797D01*
X211455333Y-54419470D01*
X211458659Y-54412957D01*
X211462020Y-54407918D01*
X211465196Y-54402776D01*
X211469734Y-54397039D01*
X211500655Y-54330880D01*
X211502561Y-54326980D01*
X211521375Y-54290135D01*
X211535769Y-54261947D01*
X211537508Y-54254838D01*
X211539604Y-54249204D01*
X211541523Y-54243434D01*
X211544622Y-54236805D01*
X211546364Y-54228434D01*
X211559490Y-54165326D01*
X211560461Y-54161037D01*
X211560479Y-54160965D01*
X211577808Y-54090145D01*
X211578500Y-54078991D01*
X211578535Y-54078993D01*
X211578775Y-54075021D01*
X211579152Y-54070800D01*
X211580641Y-54063640D01*
X211578546Y-53986213D01*
X211578500Y-53982805D01*
X211578500Y-52061266D01*
X211598502Y-51993145D01*
X211613477Y-51974142D01*
X211693881Y-51890150D01*
X211808620Y-51712452D01*
X211867148Y-51567225D01*
X211885442Y-51521832D01*
X211885443Y-51521829D01*
X211887686Y-51516263D01*
X211928228Y-51308663D01*
X211928500Y-51303101D01*
X211928500Y-51252846D01*
X212251500Y-51252846D01*
X212266548Y-51410566D01*
X212326092Y-51613534D01*
X212328836Y-51618861D01*
X212328836Y-51618862D01*
X212380429Y-51719035D01*
X212422942Y-51801580D01*
X212553604Y-51967920D01*
X212558135Y-51971852D01*
X212558138Y-51971855D01*
X212667749Y-52066970D01*
X212713363Y-52106552D01*
X212718549Y-52109552D01*
X212718553Y-52109555D01*
X212880665Y-52203339D01*
X212896454Y-52212473D01*
X213096271Y-52281861D01*
X213102206Y-52282722D01*
X213102208Y-52282722D01*
X213299664Y-52311352D01*
X213299667Y-52311352D01*
X213305604Y-52312213D01*
X213516899Y-52302433D01*
X213650339Y-52270274D01*
X213716701Y-52254281D01*
X213716703Y-52254280D01*
X213722534Y-52252875D01*
X213727992Y-52250393D01*
X213727996Y-52250392D01*
X213889317Y-52177043D01*
X213915087Y-52165326D01*
X214070903Y-52054798D01*
X214082725Y-52046412D01*
X214082726Y-52046411D01*
X214087611Y-52042946D01*
X214233881Y-51890150D01*
X214348620Y-51712452D01*
X214407148Y-51567225D01*
X214425442Y-51521832D01*
X214425443Y-51521829D01*
X214427686Y-51516263D01*
X214468228Y-51308663D01*
X214468500Y-51303101D01*
X214468500Y-51252846D01*
X214791500Y-51252846D01*
X214806548Y-51410566D01*
X214866092Y-51613534D01*
X214868836Y-51618861D01*
X214868836Y-51618862D01*
X214920429Y-51719035D01*
X214962942Y-51801580D01*
X215093604Y-51967920D01*
X215098135Y-51971852D01*
X215098138Y-51971855D01*
X215207749Y-52066970D01*
X215253363Y-52106552D01*
X215258549Y-52109552D01*
X215258553Y-52109555D01*
X215420665Y-52203339D01*
X215436454Y-52212473D01*
X215636271Y-52281861D01*
X215642206Y-52282722D01*
X215642208Y-52282722D01*
X215839664Y-52311352D01*
X215839667Y-52311352D01*
X215845604Y-52312213D01*
X216056899Y-52302433D01*
X216190339Y-52270274D01*
X216256701Y-52254281D01*
X216256703Y-52254280D01*
X216262534Y-52252875D01*
X216267992Y-52250393D01*
X216267996Y-52250392D01*
X216429317Y-52177043D01*
X216455087Y-52165326D01*
X216610903Y-52054798D01*
X216622725Y-52046412D01*
X216622726Y-52046411D01*
X216627611Y-52042946D01*
X216773881Y-51890150D01*
X216888620Y-51712452D01*
X216947148Y-51567225D01*
X216965442Y-51521832D01*
X216965443Y-51521829D01*
X216967686Y-51516263D01*
X217008228Y-51308663D01*
X217008500Y-51303101D01*
X217008500Y-50347154D01*
X216993452Y-50189434D01*
X216933908Y-49986466D01*
X216904651Y-49929660D01*
X216839804Y-49803751D01*
X216839802Y-49803748D01*
X216837058Y-49798420D01*
X216706396Y-49632080D01*
X216701865Y-49628148D01*
X216701862Y-49628145D01*
X216551167Y-49497379D01*
X216546637Y-49493448D01*
X216541451Y-49490448D01*
X216541447Y-49490445D01*
X216368742Y-49390533D01*
X216363546Y-49387527D01*
X216163729Y-49318139D01*
X216157794Y-49317278D01*
X216157792Y-49317278D01*
X215960336Y-49288648D01*
X215960333Y-49288648D01*
X215954396Y-49287787D01*
X215743101Y-49297567D01*
X215619844Y-49327272D01*
X215543299Y-49345719D01*
X215543297Y-49345720D01*
X215537466Y-49347125D01*
X215532008Y-49349607D01*
X215532004Y-49349608D01*
X215416959Y-49401916D01*
X215344913Y-49434674D01*
X215222697Y-49521368D01*
X215204220Y-49534475D01*
X215172389Y-49557054D01*
X215026119Y-49709850D01*
X214911380Y-49887548D01*
X214832314Y-50083737D01*
X214791772Y-50291337D01*
X214791500Y-50296899D01*
X214791500Y-51252846D01*
X214468500Y-51252846D01*
X214468500Y-50347154D01*
X214453452Y-50189434D01*
X214393908Y-49986466D01*
X214364651Y-49929660D01*
X214299804Y-49803751D01*
X214299802Y-49803748D01*
X214297058Y-49798420D01*
X214166396Y-49632080D01*
X214161865Y-49628148D01*
X214161862Y-49628145D01*
X214011167Y-49497379D01*
X214006637Y-49493448D01*
X214001451Y-49490448D01*
X214001447Y-49490445D01*
X213828742Y-49390533D01*
X213823546Y-49387527D01*
X213623729Y-49318139D01*
X213617794Y-49317278D01*
X213617792Y-49317278D01*
X213420336Y-49288648D01*
X213420333Y-49288648D01*
X213414396Y-49287787D01*
X213203101Y-49297567D01*
X213079844Y-49327272D01*
X213003299Y-49345719D01*
X213003297Y-49345720D01*
X212997466Y-49347125D01*
X212992008Y-49349607D01*
X212992004Y-49349608D01*
X212876959Y-49401916D01*
X212804913Y-49434674D01*
X212682697Y-49521368D01*
X212664220Y-49534475D01*
X212632389Y-49557054D01*
X212486119Y-49709850D01*
X212371380Y-49887548D01*
X212292314Y-50083737D01*
X212251772Y-50291337D01*
X212251500Y-50296899D01*
X212251500Y-51252846D01*
X211928500Y-51252846D01*
X211928500Y-50347154D01*
X211913452Y-50189434D01*
X211853908Y-49986466D01*
X211824651Y-49929660D01*
X211759804Y-49803751D01*
X211759802Y-49803748D01*
X211757058Y-49798420D01*
X211626396Y-49632080D01*
X211621865Y-49628148D01*
X211621862Y-49628145D01*
X211471167Y-49497379D01*
X211466637Y-49493448D01*
X211461451Y-49490448D01*
X211461447Y-49490445D01*
X211288742Y-49390533D01*
X211283546Y-49387527D01*
X211083729Y-49318139D01*
X211077794Y-49317278D01*
X211077792Y-49317278D01*
X210880336Y-49288648D01*
X210880333Y-49288648D01*
X210874396Y-49287787D01*
X210663101Y-49297567D01*
X210539844Y-49327272D01*
X210463299Y-49345719D01*
X210463297Y-49345720D01*
X210457466Y-49347125D01*
X210452008Y-49349607D01*
X210452004Y-49349608D01*
X210336959Y-49401916D01*
X210264913Y-49434674D01*
X210142697Y-49521368D01*
X210124220Y-49534475D01*
X210092389Y-49557054D01*
X209946119Y-49709850D01*
X209831380Y-49887548D01*
X209752314Y-50083737D01*
X209711772Y-50291337D01*
X209711500Y-50296899D01*
X209711500Y-51252846D01*
X209726548Y-51410566D01*
X209786092Y-51613534D01*
X209788836Y-51618861D01*
X209788836Y-51618862D01*
X209840429Y-51719035D01*
X209882942Y-51801580D01*
X210013604Y-51967920D01*
X210018135Y-51971852D01*
X210022270Y-51976194D01*
X210021418Y-51977006D01*
X210056421Y-52031557D01*
X210061500Y-52066970D01*
X210061500Y-53629384D01*
X210041498Y-53697505D01*
X210024595Y-53718479D01*
X206713595Y-57029479D01*
X206651283Y-57063505D01*
X206580468Y-57058440D01*
X206523632Y-57015893D01*
X206498821Y-56949373D01*
X206498500Y-56940384D01*
X206498500Y-53706371D01*
X206518502Y-53638250D01*
X206535405Y-53617276D01*
X207852474Y-52300207D01*
X207914786Y-52266181D01*
X207982900Y-52270274D01*
X208010599Y-52279892D01*
X208010605Y-52279893D01*
X208016271Y-52281861D01*
X208022206Y-52282722D01*
X208022208Y-52282722D01*
X208219664Y-52311352D01*
X208219667Y-52311352D01*
X208225604Y-52312213D01*
X208436899Y-52302433D01*
X208570339Y-52270274D01*
X208636701Y-52254281D01*
X208636703Y-52254280D01*
X208642534Y-52252875D01*
X208647992Y-52250393D01*
X208647996Y-52250392D01*
X208809317Y-52177043D01*
X208835087Y-52165326D01*
X208990903Y-52054798D01*
X209002725Y-52046412D01*
X209002726Y-52046411D01*
X209007611Y-52042946D01*
X209153881Y-51890150D01*
X209268620Y-51712452D01*
X209327148Y-51567225D01*
X209345442Y-51521832D01*
X209345443Y-51521829D01*
X209347686Y-51516263D01*
X209388228Y-51308663D01*
X209388500Y-51303101D01*
X209388500Y-50347154D01*
X209373452Y-50189434D01*
X209313908Y-49986466D01*
X209284651Y-49929660D01*
X209219804Y-49803751D01*
X209219802Y-49803748D01*
X209217058Y-49798420D01*
X209086396Y-49632080D01*
X209081865Y-49628148D01*
X209081862Y-49628145D01*
X208931167Y-49497379D01*
X208926637Y-49493448D01*
X208921451Y-49490448D01*
X208921447Y-49490445D01*
X208748742Y-49390533D01*
X208743546Y-49387527D01*
X208543729Y-49318139D01*
X208537794Y-49317278D01*
X208537792Y-49317278D01*
X208340336Y-49288648D01*
X208340333Y-49288648D01*
X208334396Y-49287787D01*
X208123101Y-49297567D01*
X207999844Y-49327272D01*
X207923299Y-49345719D01*
X207923297Y-49345720D01*
X207917466Y-49347125D01*
X207912008Y-49349607D01*
X207912004Y-49349608D01*
X207796959Y-49401916D01*
X207724913Y-49434674D01*
X207602697Y-49521368D01*
X207584220Y-49534475D01*
X207552389Y-49557054D01*
X207406119Y-49709850D01*
X207291380Y-49887548D01*
X207212314Y-50083737D01*
X207171772Y-50291337D01*
X207171500Y-50296899D01*
X207171500Y-50783629D01*
X207151498Y-50851750D01*
X207134595Y-50872724D01*
X205251089Y-52756230D01*
X205236677Y-52768616D01*
X205225082Y-52777149D01*
X205225077Y-52777154D01*
X205219182Y-52781492D01*
X205214443Y-52787070D01*
X205214440Y-52787073D01*
X205184965Y-52821768D01*
X205178035Y-52829284D01*
X205172340Y-52834979D01*
X205170060Y-52837861D01*
X205154719Y-52857251D01*
X205151928Y-52860655D01*
X205133858Y-52881925D01*
X205104667Y-52916285D01*
X205101339Y-52922801D01*
X205097972Y-52927850D01*
X205094805Y-52932979D01*
X205090266Y-52938716D01*
X205059345Y-53004875D01*
X205057442Y-53008769D01*
X205024231Y-53073808D01*
X205022492Y-53080916D01*
X205020393Y-53086559D01*
X205018476Y-53092322D01*
X205015378Y-53098950D01*
X205013888Y-53106112D01*
X205013888Y-53106113D01*
X205000514Y-53170412D01*
X204999544Y-53174696D01*
X204982192Y-53245610D01*
X204981500Y-53256764D01*
X204981464Y-53256762D01*
X204981225Y-53260755D01*
X204980851Y-53264947D01*
X204979360Y-53272115D01*
X204979558Y-53279432D01*
X204981454Y-53349521D01*
X204981500Y-53352928D01*
X204981500Y-84723629D01*
X204961498Y-84791750D01*
X204944595Y-84812724D01*
X204700724Y-85056595D01*
X204638412Y-85090621D01*
X204611629Y-85093500D01*
X203777137Y-85093500D01*
X203709016Y-85073498D01*
X203671345Y-85035939D01*
X203658638Y-85016296D01*
X203658631Y-85016287D01*
X203655826Y-85011951D01*
X203503977Y-84845071D01*
X203499926Y-84841872D01*
X203499922Y-84841868D01*
X203330966Y-84708434D01*
X203330962Y-84708432D01*
X203326911Y-84705232D01*
X203303535Y-84692328D01*
X203253564Y-84641896D01*
X203238792Y-84572453D01*
X203263908Y-84506047D01*
X203291259Y-84479441D01*
X203449455Y-84366601D01*
X203449459Y-84366597D01*
X203453667Y-84363596D01*
X203613487Y-84204333D01*
X203745150Y-84021105D01*
X203798642Y-83912872D01*
X203842824Y-83823477D01*
X203842825Y-83823475D01*
X203845118Y-83818835D01*
X203910708Y-83602952D01*
X203918806Y-83541442D01*
X203939721Y-83382578D01*
X203939722Y-83382572D01*
X203940158Y-83379256D01*
X203941802Y-83312000D01*
X203923315Y-83087132D01*
X203868349Y-82868304D01*
X203778380Y-82661391D01*
X203675797Y-82502821D01*
X203658634Y-82476291D01*
X203658632Y-82476288D01*
X203655826Y-82471951D01*
X203503977Y-82305071D01*
X203499926Y-82301872D01*
X203499922Y-82301868D01*
X203330966Y-82168434D01*
X203330962Y-82168432D01*
X203326911Y-82165232D01*
X203322383Y-82162732D01*
X203313721Y-82157951D01*
X203303535Y-82152328D01*
X203253564Y-82101896D01*
X203238792Y-82032453D01*
X203263908Y-81966047D01*
X203291259Y-81939441D01*
X203292506Y-81938552D01*
X203341948Y-81903285D01*
X203449455Y-81826601D01*
X203449459Y-81826597D01*
X203453667Y-81823596D01*
X203613487Y-81664333D01*
X203745150Y-81481105D01*
X203825030Y-81319480D01*
X203842824Y-81283477D01*
X203842825Y-81283475D01*
X203845118Y-81278835D01*
X203910708Y-81062952D01*
X203914629Y-81033169D01*
X203939721Y-80842578D01*
X203939722Y-80842572D01*
X203940158Y-80839256D01*
X203940240Y-80835903D01*
X203941720Y-80775364D01*
X203941720Y-80775360D01*
X203941802Y-80772000D01*
X203923315Y-80547132D01*
X203868349Y-80328304D01*
X203778380Y-80121391D01*
X203705863Y-80009297D01*
X203658634Y-79936291D01*
X203658632Y-79936288D01*
X203655826Y-79931951D01*
X203503977Y-79765071D01*
X203499926Y-79761872D01*
X203499922Y-79761868D01*
X203330966Y-79628434D01*
X203330962Y-79628432D01*
X203326911Y-79625232D01*
X203303535Y-79612328D01*
X203253564Y-79561896D01*
X203238792Y-79492453D01*
X203263908Y-79426047D01*
X203291259Y-79399441D01*
X203449455Y-79286601D01*
X203449459Y-79286597D01*
X203453667Y-79283596D01*
X203613487Y-79124333D01*
X203745150Y-78941105D01*
X203845118Y-78738835D01*
X203910708Y-78522952D01*
X203915467Y-78486803D01*
X203939721Y-78302578D01*
X203939722Y-78302572D01*
X203940158Y-78299256D01*
X203940350Y-78291413D01*
X203941720Y-78235364D01*
X203941720Y-78235360D01*
X203941802Y-78232000D01*
X203923315Y-78007132D01*
X203868349Y-77788304D01*
X203778380Y-77581391D01*
X203689097Y-77443380D01*
X203658634Y-77396291D01*
X203658632Y-77396288D01*
X203655826Y-77391951D01*
X203503977Y-77225071D01*
X203499926Y-77221872D01*
X203499922Y-77221868D01*
X203330966Y-77088434D01*
X203330962Y-77088432D01*
X203326911Y-77085232D01*
X203303535Y-77072328D01*
X203253564Y-77021896D01*
X203238792Y-76952453D01*
X203263908Y-76886047D01*
X203291259Y-76859441D01*
X203298104Y-76854559D01*
X203336790Y-76826964D01*
X203449455Y-76746601D01*
X203449459Y-76746597D01*
X203453667Y-76743596D01*
X203613487Y-76584333D01*
X203745150Y-76401105D01*
X203845118Y-76198835D01*
X203910708Y-75982952D01*
X203921128Y-75903806D01*
X203939721Y-75762578D01*
X203939722Y-75762572D01*
X203940158Y-75759256D01*
X203940435Y-75747942D01*
X203941720Y-75695364D01*
X203941720Y-75695360D01*
X203941802Y-75692000D01*
X203923315Y-75467132D01*
X203868349Y-75248304D01*
X203778380Y-75041391D01*
X203673992Y-74880031D01*
X203658634Y-74856291D01*
X203658632Y-74856288D01*
X203655826Y-74851951D01*
X203503977Y-74685071D01*
X203499926Y-74681872D01*
X203499922Y-74681868D01*
X203330966Y-74548434D01*
X203330962Y-74548432D01*
X203326911Y-74545232D01*
X203303535Y-74532328D01*
X203253564Y-74481896D01*
X203238792Y-74412453D01*
X203263908Y-74346047D01*
X203291259Y-74319441D01*
X203449455Y-74206601D01*
X203449459Y-74206597D01*
X203453667Y-74203596D01*
X203613487Y-74044333D01*
X203745150Y-73861105D01*
X203845118Y-73658835D01*
X203910708Y-73442952D01*
X203911383Y-73437826D01*
X203939721Y-73222578D01*
X203939722Y-73222572D01*
X203940158Y-73219256D01*
X203940966Y-73186194D01*
X203941720Y-73155364D01*
X203941720Y-73155360D01*
X203941802Y-73152000D01*
X203923315Y-72927132D01*
X203868349Y-72708304D01*
X203778380Y-72501391D01*
X203655826Y-72311951D01*
X203503977Y-72145071D01*
X203499926Y-72141872D01*
X203499922Y-72141868D01*
X203330966Y-72008434D01*
X203330962Y-72008432D01*
X203326911Y-72005232D01*
X203303535Y-71992328D01*
X203253564Y-71941896D01*
X203238792Y-71872453D01*
X203263908Y-71806047D01*
X203291259Y-71779441D01*
X203449455Y-71666601D01*
X203449459Y-71666597D01*
X203453667Y-71663596D01*
X203613487Y-71504333D01*
X203745150Y-71321105D01*
X203818970Y-71171742D01*
X203842824Y-71123477D01*
X203842825Y-71123475D01*
X203845118Y-71118835D01*
X203910708Y-70902952D01*
X203911383Y-70897826D01*
X203939721Y-70682578D01*
X203939722Y-70682572D01*
X203940158Y-70679256D01*
X203941802Y-70612000D01*
X203923315Y-70387132D01*
X203868349Y-70168304D01*
X203778380Y-69961391D01*
X203714167Y-69862133D01*
X203658634Y-69776291D01*
X203658632Y-69776288D01*
X203655826Y-69771951D01*
X203503977Y-69605071D01*
X203499926Y-69601872D01*
X203499922Y-69601868D01*
X203330966Y-69468434D01*
X203330962Y-69468432D01*
X203326911Y-69465232D01*
X203303535Y-69452328D01*
X203253564Y-69401896D01*
X203238792Y-69332453D01*
X203263908Y-69266047D01*
X203291259Y-69239441D01*
X203449455Y-69126601D01*
X203449459Y-69126597D01*
X203453667Y-69123596D01*
X203613487Y-68964333D01*
X203745150Y-68781105D01*
X203825881Y-68617759D01*
X203842824Y-68583477D01*
X203842825Y-68583475D01*
X203845118Y-68578835D01*
X203905225Y-68381000D01*
X203909206Y-68367896D01*
X203909206Y-68367895D01*
X203910708Y-68362952D01*
X203917321Y-68312723D01*
X203939721Y-68142578D01*
X203939722Y-68142572D01*
X203940158Y-68139256D01*
X203941802Y-68072000D01*
X203923315Y-67847132D01*
X203868349Y-67628304D01*
X203778380Y-67421391D01*
X203666053Y-67247759D01*
X203658634Y-67236291D01*
X203658632Y-67236288D01*
X203655826Y-67231951D01*
X203503977Y-67065071D01*
X203499926Y-67061872D01*
X203499922Y-67061868D01*
X203330966Y-66928434D01*
X203330962Y-66928432D01*
X203326911Y-66925232D01*
X203303535Y-66912328D01*
X203253564Y-66861896D01*
X203238792Y-66792453D01*
X203263908Y-66726047D01*
X203291259Y-66699441D01*
X203449455Y-66586601D01*
X203449459Y-66586597D01*
X203453667Y-66583596D01*
X203613487Y-66424333D01*
X203745150Y-66241105D01*
X203845118Y-66038835D01*
X203910708Y-65822952D01*
X203919760Y-65754195D01*
X203939721Y-65602578D01*
X203939722Y-65602572D01*
X203940158Y-65599256D01*
X203941802Y-65532000D01*
X203923315Y-65307132D01*
X203868349Y-65088304D01*
X203778380Y-64881391D01*
X203679035Y-64727826D01*
X203658634Y-64696291D01*
X203658632Y-64696288D01*
X203655826Y-64691951D01*
X203503977Y-64525071D01*
X203499926Y-64521872D01*
X203499922Y-64521868D01*
X203330966Y-64388434D01*
X203330962Y-64388432D01*
X203326911Y-64385232D01*
X203303535Y-64372328D01*
X203253564Y-64321896D01*
X203238792Y-64252453D01*
X203263908Y-64186047D01*
X203291259Y-64159441D01*
X203296357Y-64155805D01*
X203339504Y-64125028D01*
X203449455Y-64046601D01*
X203449459Y-64046597D01*
X203453667Y-64043596D01*
X203613487Y-63884333D01*
X203745150Y-63701105D01*
X203845118Y-63498835D01*
X203910708Y-63282952D01*
X203921570Y-63200447D01*
X203939721Y-63062578D01*
X203939722Y-63062572D01*
X203940158Y-63059256D01*
X203941802Y-62992000D01*
X203923315Y-62767132D01*
X203868349Y-62548304D01*
X203778380Y-62341391D01*
X203689709Y-62204326D01*
X203658634Y-62156291D01*
X203658632Y-62156288D01*
X203655826Y-62151951D01*
X203503977Y-61985071D01*
X203499926Y-61981872D01*
X203499922Y-61981868D01*
X203330966Y-61848434D01*
X203330962Y-61848432D01*
X203326911Y-61845232D01*
X203320508Y-61841697D01*
X203303535Y-61832328D01*
X203253564Y-61781896D01*
X203238792Y-61712453D01*
X203263908Y-61646047D01*
X203291259Y-61619441D01*
X203313451Y-61603612D01*
X203336001Y-61587527D01*
X203449455Y-61506601D01*
X203449459Y-61506597D01*
X203453667Y-61503596D01*
X203613487Y-61344333D01*
X203745150Y-61161105D01*
X203812222Y-61025396D01*
X203842824Y-60963477D01*
X203842825Y-60963475D01*
X203845118Y-60958835D01*
X203910708Y-60742952D01*
X203918806Y-60681441D01*
X203939721Y-60522578D01*
X203939722Y-60522572D01*
X203940158Y-60519256D01*
X203941802Y-60452000D01*
X203923315Y-60227132D01*
X203868349Y-60008304D01*
X203778380Y-59801391D01*
X203728164Y-59723769D01*
X203658634Y-59616291D01*
X203658632Y-59616288D01*
X203655826Y-59611951D01*
X203503977Y-59445071D01*
X203499926Y-59441872D01*
X203499922Y-59441868D01*
X203330966Y-59308434D01*
X203330962Y-59308432D01*
X203326911Y-59305232D01*
X203303535Y-59292328D01*
X203253564Y-59241896D01*
X203238792Y-59172453D01*
X203263908Y-59106047D01*
X203291259Y-59079441D01*
X203449455Y-58966601D01*
X203449459Y-58966597D01*
X203453667Y-58963596D01*
X203613487Y-58804333D01*
X203745150Y-58621105D01*
X203845118Y-58418835D01*
X203910708Y-58202952D01*
X203917011Y-58155075D01*
X203939721Y-57982578D01*
X203939722Y-57982572D01*
X203940158Y-57979256D01*
X203940527Y-57964170D01*
X203941720Y-57915364D01*
X203941720Y-57915360D01*
X203941802Y-57912000D01*
X203923315Y-57687132D01*
X203868349Y-57468304D01*
X203778380Y-57261391D01*
X203737973Y-57198931D01*
X203658634Y-57076291D01*
X203658632Y-57076288D01*
X203655826Y-57071951D01*
X203503977Y-56905071D01*
X203499926Y-56901872D01*
X203499922Y-56901868D01*
X203330966Y-56768434D01*
X203330962Y-56768432D01*
X203326911Y-56765232D01*
X203303535Y-56752328D01*
X203253564Y-56701896D01*
X203238792Y-56632453D01*
X203263908Y-56566047D01*
X203291259Y-56539441D01*
X203449455Y-56426601D01*
X203449459Y-56426597D01*
X203453667Y-56423596D01*
X203613487Y-56264333D01*
X203745150Y-56081105D01*
X203845118Y-55878835D01*
X203910708Y-55662952D01*
X203940158Y-55439256D01*
X203941802Y-55372000D01*
X203923315Y-55147132D01*
X203868349Y-54928304D01*
X203778380Y-54721391D01*
X203673070Y-54558606D01*
X203658634Y-54536291D01*
X203658632Y-54536288D01*
X203655826Y-54531951D01*
X203503977Y-54365071D01*
X203499926Y-54361872D01*
X203499922Y-54361868D01*
X203330966Y-54228434D01*
X203330962Y-54228432D01*
X203326911Y-54225232D01*
X203303535Y-54212328D01*
X203253564Y-54161896D01*
X203238792Y-54092453D01*
X203263908Y-54026047D01*
X203291259Y-53999441D01*
X203449455Y-53886601D01*
X203449459Y-53886597D01*
X203453667Y-53883596D01*
X203613487Y-53724333D01*
X203745150Y-53541105D01*
X203811135Y-53407594D01*
X203842824Y-53343477D01*
X203842825Y-53343475D01*
X203845118Y-53338835D01*
X203910708Y-53122952D01*
X203914183Y-53096556D01*
X203939721Y-52902578D01*
X203939722Y-52902572D01*
X203940158Y-52899256D01*
X203941102Y-52860655D01*
X203941720Y-52835364D01*
X203941720Y-52835360D01*
X203941802Y-52832000D01*
X203923315Y-52607132D01*
X203868349Y-52388304D01*
X203778380Y-52181391D01*
X203729965Y-52106552D01*
X203658634Y-51996291D01*
X203658632Y-51996288D01*
X203655826Y-51991951D01*
X203503977Y-51825071D01*
X203499926Y-51821872D01*
X203499922Y-51821868D01*
X203340628Y-51696065D01*
X203299565Y-51638148D01*
X203296333Y-51567225D01*
X203331959Y-51505813D01*
X203350280Y-51491391D01*
X203438298Y-51434450D01*
X203438301Y-51434447D01*
X203442641Y-51431640D01*
X203447496Y-51427223D01*
X203613167Y-51276473D01*
X203613168Y-51276471D01*
X203616989Y-51272995D01*
X203620188Y-51268944D01*
X203620192Y-51268940D01*
X203759883Y-51092061D01*
X203759885Y-51092057D01*
X203763085Y-51088006D01*
X203877005Y-50881639D01*
X203886794Y-50853998D01*
X203953965Y-50664311D01*
X203953966Y-50664307D01*
X203955691Y-50659436D01*
X203956599Y-50654340D01*
X203996123Y-50432456D01*
X203996124Y-50432450D01*
X203997029Y-50427367D01*
X203999909Y-50191661D01*
X203964253Y-49958651D01*
X203891020Y-49734593D01*
X203813155Y-49585016D01*
X203784564Y-49530093D01*
X203784563Y-49530092D01*
X203782175Y-49525504D01*
X203763415Y-49500517D01*
X203643747Y-49341135D01*
X203643745Y-49341132D01*
X203640642Y-49337000D01*
X203470223Y-49174143D01*
X203275492Y-49041307D01*
X203270808Y-49039133D01*
X203270805Y-49039131D01*
X203066372Y-48944236D01*
X203066367Y-48944234D01*
X203061681Y-48942059D01*
X202834532Y-48879065D01*
X202829395Y-48878516D01*
X202645437Y-48858856D01*
X202645429Y-48858856D01*
X202642102Y-48858500D01*
X202505243Y-48858500D01*
X202502670Y-48858712D01*
X202502659Y-48858712D01*
X202335221Y-48872478D01*
X202335215Y-48872479D01*
X202330070Y-48872902D01*
X202101449Y-48930327D01*
X201885277Y-49024322D01*
X201687359Y-49152360D01*
X201683536Y-49155839D01*
X201683533Y-49155841D01*
X201527779Y-49297567D01*
X201513011Y-49311005D01*
X201509812Y-49315056D01*
X201509808Y-49315060D01*
X201370117Y-49491939D01*
X201366915Y-49495994D01*
X201252995Y-49702361D01*
X201251271Y-49707230D01*
X201251269Y-49707234D01*
X201187417Y-49887548D01*
X201174309Y-49924564D01*
X201173402Y-49929657D01*
X201173401Y-49929660D01*
X201144907Y-50089627D01*
X201132971Y-50156633D01*
X201132570Y-50189434D01*
X201130607Y-50350147D01*
X201130091Y-50392339D01*
X201165747Y-50625349D01*
X201238980Y-50849407D01*
X201347825Y-51058496D01*
X201350928Y-51062629D01*
X201350930Y-51062632D01*
X201373026Y-51092061D01*
X201489358Y-51247000D01*
X201659777Y-51409857D01*
X201664051Y-51412772D01*
X201664054Y-51412775D01*
X201783696Y-51494390D01*
X201828699Y-51549301D01*
X201836870Y-51619826D01*
X201805616Y-51683573D01*
X201788354Y-51699231D01*
X201650905Y-51802430D01*
X201647333Y-51806168D01*
X201542968Y-51915380D01*
X201495024Y-51965550D01*
X201367878Y-52151940D01*
X201365704Y-52156624D01*
X201365702Y-52156627D01*
X201293482Y-52312213D01*
X201272881Y-52356593D01*
X201212585Y-52574013D01*
X201188609Y-52798362D01*
X201188906Y-52803514D01*
X201188906Y-52803518D01*
X201196702Y-52938716D01*
X201201597Y-53023614D01*
X201202734Y-53028660D01*
X201202735Y-53028666D01*
X201223984Y-53122952D01*
X201251200Y-53243720D01*
X201253142Y-53248502D01*
X201253143Y-53248506D01*
X201315041Y-53400942D01*
X201336086Y-53452769D01*
X201353657Y-53481442D01*
X201449749Y-53638250D01*
X201453975Y-53645147D01*
X201601702Y-53815687D01*
X201775299Y-53959810D01*
X201779751Y-53962412D01*
X201779756Y-53962415D01*
X201829069Y-53991231D01*
X201877792Y-54042870D01*
X201890863Y-54112653D01*
X201864131Y-54178425D01*
X201833595Y-54205783D01*
X201831335Y-54206960D01*
X201791585Y-54236805D01*
X201659091Y-54336284D01*
X201650905Y-54342430D01*
X201495024Y-54505550D01*
X201367878Y-54691940D01*
X201365704Y-54696624D01*
X201365702Y-54696627D01*
X201356226Y-54717043D01*
X201272881Y-54896593D01*
X201212585Y-55114013D01*
X201188609Y-55338362D01*
X201188906Y-55343514D01*
X201188906Y-55343518D01*
X201194618Y-55442578D01*
X201201597Y-55563614D01*
X201202734Y-55568660D01*
X201202735Y-55568666D01*
X201223984Y-55662952D01*
X201251200Y-55783720D01*
X201253142Y-55788502D01*
X201253143Y-55788506D01*
X201329285Y-55976021D01*
X201336086Y-55992769D01*
X201453975Y-56185147D01*
X201601702Y-56355687D01*
X201775299Y-56499810D01*
X201779751Y-56502412D01*
X201779756Y-56502415D01*
X201829069Y-56531231D01*
X201877792Y-56582870D01*
X201890863Y-56652653D01*
X201864131Y-56718425D01*
X201833595Y-56745783D01*
X201831335Y-56746960D01*
X201650905Y-56882430D01*
X201495024Y-57045550D01*
X201367878Y-57231940D01*
X201365704Y-57236624D01*
X201365702Y-57236627D01*
X201281317Y-57418420D01*
X201272881Y-57436593D01*
X201212585Y-57654013D01*
X201188609Y-57878362D01*
X201188906Y-57883514D01*
X201188906Y-57883518D01*
X201194618Y-57982578D01*
X201201597Y-58103614D01*
X201202734Y-58108660D01*
X201202735Y-58108666D01*
X201223984Y-58202952D01*
X201251200Y-58323720D01*
X201253142Y-58328502D01*
X201253143Y-58328506D01*
X201289822Y-58418835D01*
X201336086Y-58532769D01*
X201338785Y-58537173D01*
X201439118Y-58700902D01*
X201453975Y-58725147D01*
X201601702Y-58895687D01*
X201745936Y-59015433D01*
X201764165Y-59030566D01*
X201775299Y-59039810D01*
X201779751Y-59042412D01*
X201779756Y-59042415D01*
X201829069Y-59071231D01*
X201877792Y-59122870D01*
X201890863Y-59192653D01*
X201864131Y-59258425D01*
X201833595Y-59285783D01*
X201831335Y-59286960D01*
X201650905Y-59422430D01*
X201495024Y-59585550D01*
X201367878Y-59771940D01*
X201365704Y-59776624D01*
X201365702Y-59776627D01*
X201276933Y-59967864D01*
X201272881Y-59976593D01*
X201212585Y-60194013D01*
X201188609Y-60418362D01*
X201188906Y-60423514D01*
X201188906Y-60423518D01*
X201194618Y-60522578D01*
X201201597Y-60643614D01*
X201202734Y-60648660D01*
X201202735Y-60648666D01*
X201234095Y-60787821D01*
X201251200Y-60863720D01*
X201253142Y-60868502D01*
X201253143Y-60868506D01*
X201325095Y-61045702D01*
X201336086Y-61072769D01*
X201374790Y-61135928D01*
X201431028Y-61227700D01*
X201453975Y-61265147D01*
X201601702Y-61435687D01*
X201775299Y-61579810D01*
X201779751Y-61582412D01*
X201779756Y-61582415D01*
X201829069Y-61611231D01*
X201877792Y-61662870D01*
X201890863Y-61732653D01*
X201864131Y-61798425D01*
X201833595Y-61825783D01*
X201831335Y-61826960D01*
X201650905Y-61962430D01*
X201645998Y-61967565D01*
X201499145Y-62121238D01*
X201495024Y-62125550D01*
X201367878Y-62311940D01*
X201365704Y-62316624D01*
X201365702Y-62316627D01*
X201277650Y-62506320D01*
X201272881Y-62516593D01*
X201212585Y-62734013D01*
X201188609Y-62958362D01*
X201188906Y-62963514D01*
X201188906Y-62963518D01*
X201194618Y-63062578D01*
X201201597Y-63183614D01*
X201202734Y-63188660D01*
X201202735Y-63188666D01*
X201223984Y-63282952D01*
X201251200Y-63403720D01*
X201253142Y-63408502D01*
X201253143Y-63408506D01*
X201334142Y-63607982D01*
X201336086Y-63612769D01*
X201453975Y-63805147D01*
X201601702Y-63975687D01*
X201775299Y-64119810D01*
X201779751Y-64122412D01*
X201779756Y-64122415D01*
X201829069Y-64151231D01*
X201877792Y-64202870D01*
X201890863Y-64272653D01*
X201864131Y-64338425D01*
X201833595Y-64365783D01*
X201831335Y-64366960D01*
X201650905Y-64502430D01*
X201495024Y-64665550D01*
X201367878Y-64851940D01*
X201365704Y-64856624D01*
X201365702Y-64856627D01*
X201312750Y-64970703D01*
X201272881Y-65056593D01*
X201212585Y-65274013D01*
X201188609Y-65498362D01*
X201188906Y-65503514D01*
X201188906Y-65503518D01*
X201198587Y-65671406D01*
X201201597Y-65723614D01*
X201202734Y-65728660D01*
X201202735Y-65728666D01*
X201223984Y-65822952D01*
X201251200Y-65943720D01*
X201253142Y-65948502D01*
X201253143Y-65948506D01*
X201289822Y-66038835D01*
X201336086Y-66152769D01*
X201338785Y-66157173D01*
X201451252Y-66340703D01*
X201453975Y-66345147D01*
X201601702Y-66515687D01*
X201775299Y-66659810D01*
X201779751Y-66662412D01*
X201779756Y-66662415D01*
X201829069Y-66691231D01*
X201877792Y-66742870D01*
X201890863Y-66812653D01*
X201864131Y-66878425D01*
X201833595Y-66905783D01*
X201831335Y-66906960D01*
X201650905Y-67042430D01*
X201495024Y-67205550D01*
X201367878Y-67391940D01*
X201365704Y-67396624D01*
X201365702Y-67396627D01*
X201278233Y-67585064D01*
X201272881Y-67596593D01*
X201212585Y-67814013D01*
X201188609Y-68038362D01*
X201188906Y-68043514D01*
X201188906Y-68043518D01*
X201194599Y-68142241D01*
X201201597Y-68263614D01*
X201202734Y-68268660D01*
X201202735Y-68268666D01*
X201234095Y-68407821D01*
X201251200Y-68483720D01*
X201253142Y-68488502D01*
X201253143Y-68488506D01*
X201334142Y-68687982D01*
X201336086Y-68692769D01*
X201453975Y-68885147D01*
X201601702Y-69055687D01*
X201713120Y-69148188D01*
X201751702Y-69180219D01*
X201775299Y-69199810D01*
X201779751Y-69202412D01*
X201779756Y-69202415D01*
X201829069Y-69231231D01*
X201877792Y-69282870D01*
X201890863Y-69352653D01*
X201864131Y-69418425D01*
X201833595Y-69445783D01*
X201831335Y-69446960D01*
X201744388Y-69512241D01*
X201705310Y-69541582D01*
X201650905Y-69582430D01*
X201495024Y-69745550D01*
X201367878Y-69931940D01*
X201365704Y-69936624D01*
X201365702Y-69936627D01*
X201290575Y-70098475D01*
X201272881Y-70136593D01*
X201212585Y-70354013D01*
X201188609Y-70578362D01*
X201188906Y-70583514D01*
X201188906Y-70583518D01*
X201194618Y-70682578D01*
X201201597Y-70803614D01*
X201202734Y-70808660D01*
X201202735Y-70808666D01*
X201234095Y-70947821D01*
X201251200Y-71023720D01*
X201253142Y-71028502D01*
X201253143Y-71028506D01*
X201318297Y-71188960D01*
X201336086Y-71232769D01*
X201338785Y-71237173D01*
X201406065Y-71346964D01*
X201453975Y-71425147D01*
X201601702Y-71595687D01*
X201775299Y-71739810D01*
X201779751Y-71742412D01*
X201779756Y-71742415D01*
X201829069Y-71771231D01*
X201877792Y-71822870D01*
X201890863Y-71892653D01*
X201864131Y-71958425D01*
X201833595Y-71985783D01*
X201831335Y-71986960D01*
X201650905Y-72122430D01*
X201647333Y-72126168D01*
X201557116Y-72220575D01*
X201495024Y-72285550D01*
X201367878Y-72471940D01*
X201365704Y-72476624D01*
X201365702Y-72476627D01*
X201356226Y-72497043D01*
X201272881Y-72676593D01*
X201212585Y-72894013D01*
X201188609Y-73118362D01*
X201188906Y-73123514D01*
X201188906Y-73123518D01*
X201194618Y-73222578D01*
X201201597Y-73343614D01*
X201202734Y-73348660D01*
X201202735Y-73348666D01*
X201223984Y-73442952D01*
X201251200Y-73563720D01*
X201253142Y-73568502D01*
X201253143Y-73568506D01*
X201289822Y-73658835D01*
X201336086Y-73772769D01*
X201386186Y-73854525D01*
X201431800Y-73928960D01*
X201453975Y-73965147D01*
X201601702Y-74135687D01*
X201775299Y-74279810D01*
X201779751Y-74282412D01*
X201779756Y-74282415D01*
X201829069Y-74311231D01*
X201877792Y-74362870D01*
X201890863Y-74432653D01*
X201864131Y-74498425D01*
X201833595Y-74525783D01*
X201831335Y-74526960D01*
X201650905Y-74662430D01*
X201647333Y-74666168D01*
X201534418Y-74784327D01*
X201495024Y-74825550D01*
X201367878Y-75011940D01*
X201365704Y-75016624D01*
X201365702Y-75016627D01*
X201332248Y-75088699D01*
X201272881Y-75216593D01*
X201212585Y-75434013D01*
X201188609Y-75658362D01*
X201188906Y-75663514D01*
X201188906Y-75663518D01*
X201197068Y-75805065D01*
X201201597Y-75883614D01*
X201202734Y-75888660D01*
X201202735Y-75888666D01*
X201223984Y-75982952D01*
X201251200Y-76103720D01*
X201253142Y-76108502D01*
X201253143Y-76108506D01*
X201334142Y-76307982D01*
X201336086Y-76312769D01*
X201453975Y-76505147D01*
X201601702Y-76675687D01*
X201745936Y-76795433D01*
X201757792Y-76805275D01*
X201775299Y-76819810D01*
X201779751Y-76822412D01*
X201779756Y-76822415D01*
X201829069Y-76851231D01*
X201877792Y-76902870D01*
X201890863Y-76972653D01*
X201864131Y-77038425D01*
X201833595Y-77065783D01*
X201831335Y-77066960D01*
X201694612Y-77169614D01*
X201656459Y-77198260D01*
X201589974Y-77223166D01*
X201580806Y-77223500D01*
X195466911Y-77223500D01*
X195407370Y-77208544D01*
X195339870Y-77172351D01*
X195339869Y-77172351D01*
X195334437Y-77169438D01*
X195225781Y-77136218D01*
X195151200Y-77113416D01*
X195151198Y-77113416D01*
X195145302Y-77111613D01*
X195087449Y-77105736D01*
X194954666Y-77092248D01*
X194954661Y-77092248D01*
X194948538Y-77091626D01*
X194824475Y-77103354D01*
X194757771Y-77109659D01*
X194757769Y-77109659D01*
X194751638Y-77110239D01*
X194656871Y-77138490D01*
X194568007Y-77164981D01*
X194568005Y-77164982D01*
X194562104Y-77166741D01*
X194387154Y-77258982D01*
X194382368Y-77262858D01*
X194382366Y-77262859D01*
X194260169Y-77361813D01*
X194233453Y-77383447D01*
X194229508Y-77388182D01*
X194167035Y-77463165D01*
X194106854Y-77535396D01*
X194012178Y-77709041D01*
X193953035Y-77897768D01*
X193952370Y-77903891D01*
X193952369Y-77903895D01*
X193940594Y-78012293D01*
X193931676Y-78094388D01*
X193948913Y-78291413D01*
X193950632Y-78297330D01*
X193950633Y-78297335D01*
X193985014Y-78415673D01*
X194004091Y-78481336D01*
X194095108Y-78656926D01*
X194098948Y-78661736D01*
X194189542Y-78775223D01*
X194189549Y-78775230D01*
X194191738Y-78777973D01*
X194315147Y-78901382D01*
X194324248Y-78911524D01*
X194347968Y-78941025D01*
X194352696Y-78944992D01*
X194386421Y-78973291D01*
X194390069Y-78976472D01*
X194391881Y-78978115D01*
X194394075Y-78980309D01*
X194427349Y-79007642D01*
X194428147Y-79008304D01*
X194499474Y-79068154D01*
X194504144Y-79070722D01*
X194508261Y-79074103D01*
X194560739Y-79102241D01*
X194590086Y-79117977D01*
X194591245Y-79118606D01*
X194667381Y-79160462D01*
X194667389Y-79160465D01*
X194672787Y-79163433D01*
X194677869Y-79165045D01*
X194682563Y-79167562D01*
X194771531Y-79194762D01*
X194772559Y-79195082D01*
X194861306Y-79223235D01*
X194866602Y-79223829D01*
X194871698Y-79225387D01*
X194964257Y-79234790D01*
X194965393Y-79234911D01*
X194997395Y-79238500D01*
X195011730Y-79240108D01*
X195011734Y-79240108D01*
X195015227Y-79240500D01*
X195018754Y-79240500D01*
X195019739Y-79240555D01*
X195025419Y-79241002D01*
X195054825Y-79243989D01*
X195062337Y-79244752D01*
X195062339Y-79244752D01*
X195068462Y-79245374D01*
X195114108Y-79241059D01*
X195125967Y-79240500D01*
X201586102Y-79240500D01*
X201654223Y-79260502D01*
X201666579Y-79269549D01*
X201775299Y-79359810D01*
X201779751Y-79362412D01*
X201779756Y-79362415D01*
X201829069Y-79391231D01*
X201877792Y-79442870D01*
X201890863Y-79512653D01*
X201864131Y-79578425D01*
X201833595Y-79605783D01*
X201831335Y-79606960D01*
X201741884Y-79674121D01*
X201713115Y-79695722D01*
X201650905Y-79742430D01*
X201495024Y-79905550D01*
X201367878Y-80091940D01*
X201365704Y-80096624D01*
X201365702Y-80096627D01*
X201301456Y-80235034D01*
X201272881Y-80296593D01*
X201212585Y-80514013D01*
X201188609Y-80738362D01*
X201188906Y-80743514D01*
X201188906Y-80743518D01*
X201194616Y-80842550D01*
X201201597Y-80963614D01*
X201202734Y-80968660D01*
X201202735Y-80968666D01*
X201223984Y-81062952D01*
X201251200Y-81183720D01*
X201253142Y-81188502D01*
X201253143Y-81188506D01*
X201332491Y-81383916D01*
X201336086Y-81392769D01*
X201338785Y-81397173D01*
X201450451Y-81579396D01*
X201453975Y-81585147D01*
X201601702Y-81755687D01*
X201775299Y-81899810D01*
X201779751Y-81902412D01*
X201779756Y-81902415D01*
X201829069Y-81931231D01*
X201877792Y-81982870D01*
X201890863Y-82052653D01*
X201864131Y-82118425D01*
X201833595Y-82145783D01*
X201831335Y-82146960D01*
X201650905Y-82282430D01*
X201647333Y-82286168D01*
X201544497Y-82393780D01*
X201495024Y-82445550D01*
X201367878Y-82631940D01*
X201365704Y-82636624D01*
X201365702Y-82636627D01*
X201276515Y-82828765D01*
X201272881Y-82836593D01*
X201212585Y-83054013D01*
X201188609Y-83278362D01*
X201188906Y-83283514D01*
X201188906Y-83283518D01*
X201194618Y-83382578D01*
X201201597Y-83503614D01*
X201202734Y-83508660D01*
X201202735Y-83508666D01*
X201231488Y-83636251D01*
X201251200Y-83723720D01*
X201253142Y-83728502D01*
X201253143Y-83728506D01*
X201289822Y-83818835D01*
X201336086Y-83932769D01*
X201338785Y-83937173D01*
X201431028Y-84087700D01*
X201453975Y-84125147D01*
X201601702Y-84295687D01*
X201775299Y-84439810D01*
X201779751Y-84442412D01*
X201779756Y-84442415D01*
X201829069Y-84471231D01*
X201877792Y-84522870D01*
X201890863Y-84592653D01*
X201864131Y-84658425D01*
X201833595Y-84685783D01*
X201831335Y-84686960D01*
X201785990Y-84721006D01*
X201661226Y-84814681D01*
X201650905Y-84822430D01*
X201495024Y-84985550D01*
X201367878Y-85171940D01*
X201365704Y-85176624D01*
X201365702Y-85176627D01*
X201347714Y-85215380D01*
X201272881Y-85376593D01*
X201212585Y-85594013D01*
X201188609Y-85818362D01*
X201188906Y-85823514D01*
X201188906Y-85823518D01*
X201194618Y-85922578D01*
X201201597Y-86043614D01*
X201202734Y-86048660D01*
X201202735Y-86048666D01*
X201223984Y-86142952D01*
X201251200Y-86263720D01*
X201253142Y-86268502D01*
X201253143Y-86268506D01*
X201305139Y-86396556D01*
X201336086Y-86472769D01*
X201365329Y-86520489D01*
X201423004Y-86614606D01*
X201453975Y-86665147D01*
X201598909Y-86832462D01*
X201598909Y-86832463D01*
X201601702Y-86835687D01*
X201601036Y-86836264D01*
X201633456Y-86894187D01*
X201629131Y-86965052D01*
X201587181Y-87022330D01*
X201554851Y-87040238D01*
X201463105Y-87074632D01*
X201463104Y-87074633D01*
X201454695Y-87077785D01*
X201338139Y-87165139D01*
X201250785Y-87281695D01*
X201199655Y-87418084D01*
X201192900Y-87480266D01*
X201192900Y-89303734D01*
X201199655Y-89365916D01*
X201250785Y-89502305D01*
X201338139Y-89618861D01*
X201454695Y-89706215D01*
X201474792Y-89713749D01*
X201493427Y-89720735D01*
X201550191Y-89763377D01*
X201574890Y-89829939D01*
X201559682Y-89899288D01*
X201533996Y-89931910D01*
X201513011Y-89951005D01*
X201509812Y-89955056D01*
X201509808Y-89955060D01*
X201371073Y-90130729D01*
X201366915Y-90135994D01*
X201252995Y-90342361D01*
X201251271Y-90347230D01*
X201251269Y-90347234D01*
X201176035Y-90559689D01*
X201174309Y-90564564D01*
X201173402Y-90569657D01*
X201173401Y-90569660D01*
X201150585Y-90697750D01*
X201132971Y-90796633D01*
X201130091Y-91032339D01*
X201165747Y-91265349D01*
X201238980Y-91489407D01*
X201347825Y-91698496D01*
X201350928Y-91702629D01*
X201350930Y-91702632D01*
X201373026Y-91732061D01*
X201489358Y-91887000D01*
X201659777Y-92049857D01*
X201854508Y-92182693D01*
X201859192Y-92184867D01*
X201859195Y-92184869D01*
X202063628Y-92279764D01*
X202063633Y-92279766D01*
X202068319Y-92281941D01*
X202295468Y-92344935D01*
X202300605Y-92345484D01*
X202484563Y-92365144D01*
X202484571Y-92365144D01*
X202487898Y-92365500D01*
X202624757Y-92365500D01*
X202627330Y-92365288D01*
X202627341Y-92365288D01*
X202794779Y-92351522D01*
X202794785Y-92351521D01*
X202799930Y-92351098D01*
X203028551Y-92293673D01*
X203244723Y-92199678D01*
X203442641Y-92071640D01*
X203466581Y-92049857D01*
X203613167Y-91916473D01*
X203613168Y-91916471D01*
X203616989Y-91912995D01*
X203620188Y-91908944D01*
X203620192Y-91908940D01*
X203759883Y-91732061D01*
X203759885Y-91732057D01*
X203763085Y-91728006D01*
X203877005Y-91521639D01*
X203886794Y-91493998D01*
X203953965Y-91304311D01*
X203953966Y-91304307D01*
X203955691Y-91299436D01*
X203956599Y-91294340D01*
X203996123Y-91072456D01*
X203996124Y-91072450D01*
X203997029Y-91067367D01*
X203999909Y-90831661D01*
X203964253Y-90598651D01*
X203891020Y-90374593D01*
X203828018Y-90253567D01*
X203784564Y-90170093D01*
X203784563Y-90170092D01*
X203782175Y-90165504D01*
X203778403Y-90160479D01*
X203643747Y-89981135D01*
X203643745Y-89981132D01*
X203640642Y-89977000D01*
X203591961Y-89930479D01*
X203556533Y-89868956D01*
X203559990Y-89798044D01*
X203601236Y-89740258D01*
X203634781Y-89721407D01*
X203675305Y-89706215D01*
X203791861Y-89618861D01*
X203879215Y-89502305D01*
X203930345Y-89365916D01*
X203937100Y-89303734D01*
X203937100Y-89276500D01*
X203957102Y-89208379D01*
X204010758Y-89161886D01*
X204063100Y-89150500D01*
X206180930Y-89150500D01*
X206199880Y-89151933D01*
X206214115Y-89154099D01*
X206214119Y-89154099D01*
X206221349Y-89155199D01*
X206228641Y-89154606D01*
X206228644Y-89154606D01*
X206274018Y-89150915D01*
X206284233Y-89150500D01*
X206292293Y-89150500D01*
X206305583Y-89148951D01*
X206320507Y-89147211D01*
X206324882Y-89146778D01*
X206390339Y-89141454D01*
X206390342Y-89141453D01*
X206397637Y-89140860D01*
X206404601Y-89138604D01*
X206410560Y-89137413D01*
X206416415Y-89136029D01*
X206423681Y-89135182D01*
X206492327Y-89110265D01*
X206496455Y-89108848D01*
X206558936Y-89088607D01*
X206558938Y-89088606D01*
X206565899Y-89086351D01*
X206572154Y-89082555D01*
X206577628Y-89080049D01*
X206583058Y-89077330D01*
X206589937Y-89074833D01*
X206650976Y-89034814D01*
X206654680Y-89032477D01*
X206717107Y-88994595D01*
X206725484Y-88987197D01*
X206725508Y-88987224D01*
X206728500Y-88984571D01*
X206731733Y-88981868D01*
X206737852Y-88977856D01*
X206791128Y-88921617D01*
X206793506Y-88919175D01*
X207306405Y-88406276D01*
X207368717Y-88372250D01*
X207439532Y-88377315D01*
X207496368Y-88419862D01*
X207521179Y-88486382D01*
X207521500Y-88495371D01*
X207521500Y-90438629D01*
X207501498Y-90506750D01*
X207484595Y-90527724D01*
X204827724Y-93184595D01*
X204765412Y-93218621D01*
X204738629Y-93221500D01*
X176896371Y-93221500D01*
X176828250Y-93201498D01*
X176807276Y-93184595D01*
X174655020Y-91032339D01*
X185890091Y-91032339D01*
X185925747Y-91265349D01*
X185998980Y-91489407D01*
X186107825Y-91698496D01*
X186110928Y-91702629D01*
X186110930Y-91702632D01*
X186133026Y-91732061D01*
X186249358Y-91887000D01*
X186419777Y-92049857D01*
X186614508Y-92182693D01*
X186619192Y-92184867D01*
X186619195Y-92184869D01*
X186823628Y-92279764D01*
X186823633Y-92279766D01*
X186828319Y-92281941D01*
X187055468Y-92344935D01*
X187060605Y-92345484D01*
X187244563Y-92365144D01*
X187244571Y-92365144D01*
X187247898Y-92365500D01*
X187384757Y-92365500D01*
X187387330Y-92365288D01*
X187387341Y-92365288D01*
X187554779Y-92351522D01*
X187554785Y-92351521D01*
X187559930Y-92351098D01*
X187788551Y-92293673D01*
X188004723Y-92199678D01*
X188202641Y-92071640D01*
X188226581Y-92049857D01*
X188373167Y-91916473D01*
X188373168Y-91916471D01*
X188376989Y-91912995D01*
X188380188Y-91908944D01*
X188380192Y-91908940D01*
X188519883Y-91732061D01*
X188519885Y-91732057D01*
X188523085Y-91728006D01*
X188637005Y-91521639D01*
X188646794Y-91493998D01*
X188713965Y-91304311D01*
X188713966Y-91304307D01*
X188715691Y-91299436D01*
X188716599Y-91294340D01*
X188756123Y-91072456D01*
X188756124Y-91072450D01*
X188757029Y-91067367D01*
X188759909Y-90831661D01*
X188724253Y-90598651D01*
X188651020Y-90374593D01*
X188588018Y-90253567D01*
X188544564Y-90170093D01*
X188544563Y-90170092D01*
X188542175Y-90165504D01*
X188538403Y-90160479D01*
X188403747Y-89981135D01*
X188403745Y-89981132D01*
X188400642Y-89977000D01*
X188295876Y-89876883D01*
X188233960Y-89817714D01*
X188233959Y-89817713D01*
X188230223Y-89814143D01*
X188105428Y-89729014D01*
X188060425Y-89674102D01*
X188052254Y-89603577D01*
X188083508Y-89539830D01*
X188103263Y-89522347D01*
X188209455Y-89446601D01*
X188209459Y-89446597D01*
X188213667Y-89443596D01*
X188373487Y-89284333D01*
X188505150Y-89101105D01*
X188589568Y-88930298D01*
X188602824Y-88903477D01*
X188602825Y-88903475D01*
X188605118Y-88898835D01*
X188670708Y-88682952D01*
X188671444Y-88677361D01*
X188699721Y-88462578D01*
X188699722Y-88462572D01*
X188700158Y-88459256D01*
X188701802Y-88392000D01*
X188683315Y-88167132D01*
X188628349Y-87948304D01*
X188538380Y-87741391D01*
X188495342Y-87674865D01*
X188418634Y-87556291D01*
X188418632Y-87556288D01*
X188415826Y-87551951D01*
X188263977Y-87385071D01*
X188259926Y-87381872D01*
X188259922Y-87381868D01*
X188090966Y-87248434D01*
X188090962Y-87248432D01*
X188086911Y-87245232D01*
X188063535Y-87232328D01*
X188013564Y-87181896D01*
X187998792Y-87112453D01*
X188023908Y-87046047D01*
X188051259Y-87019441D01*
X188209455Y-86906601D01*
X188209459Y-86906597D01*
X188213667Y-86903596D01*
X188373487Y-86744333D01*
X188505150Y-86561105D01*
X188589636Y-86390160D01*
X188602824Y-86363477D01*
X188602825Y-86363475D01*
X188605118Y-86358835D01*
X188670708Y-86142952D01*
X188684467Y-86038445D01*
X188699721Y-85922578D01*
X188699722Y-85922572D01*
X188700158Y-85919256D01*
X188701802Y-85852000D01*
X188683315Y-85627132D01*
X188628349Y-85408304D01*
X188538380Y-85201391D01*
X188456035Y-85074104D01*
X188418634Y-85016291D01*
X188418632Y-85016288D01*
X188415826Y-85011951D01*
X188263977Y-84845071D01*
X188259926Y-84841872D01*
X188259922Y-84841868D01*
X188090966Y-84708434D01*
X188090962Y-84708432D01*
X188086911Y-84705232D01*
X188063535Y-84692328D01*
X188013564Y-84641896D01*
X187998792Y-84572453D01*
X188023908Y-84506047D01*
X188051259Y-84479441D01*
X188209455Y-84366601D01*
X188209459Y-84366597D01*
X188213667Y-84363596D01*
X188373487Y-84204333D01*
X188505150Y-84021105D01*
X188558642Y-83912872D01*
X188602824Y-83823477D01*
X188602825Y-83823475D01*
X188605118Y-83818835D01*
X188670708Y-83602952D01*
X188678806Y-83541442D01*
X188699721Y-83382578D01*
X188699722Y-83382572D01*
X188700158Y-83379256D01*
X188701802Y-83312000D01*
X188683315Y-83087132D01*
X188628349Y-82868304D01*
X188538380Y-82661391D01*
X188435797Y-82502821D01*
X188418634Y-82476291D01*
X188418632Y-82476288D01*
X188415826Y-82471951D01*
X188263977Y-82305071D01*
X188259926Y-82301872D01*
X188259922Y-82301868D01*
X188090966Y-82168434D01*
X188090962Y-82168432D01*
X188086911Y-82165232D01*
X188082387Y-82162734D01*
X188082383Y-82162732D01*
X188063049Y-82152059D01*
X188013079Y-82101627D01*
X187998307Y-82032184D01*
X188023423Y-81965779D01*
X188050774Y-81939173D01*
X188083998Y-81915474D01*
X188092399Y-81904774D01*
X188085411Y-81891621D01*
X187337812Y-81144022D01*
X187323868Y-81136408D01*
X187322035Y-81136539D01*
X187315420Y-81140790D01*
X186561794Y-81894416D01*
X186555034Y-81906796D01*
X186560316Y-81913851D01*
X186589545Y-81930932D01*
X186638269Y-81982571D01*
X186651339Y-82052354D01*
X186624607Y-82118125D01*
X186593932Y-82145608D01*
X186591335Y-82146960D01*
X186587202Y-82150063D01*
X186587199Y-82150065D01*
X186454123Y-82249981D01*
X186410905Y-82282430D01*
X186407333Y-82286168D01*
X186304497Y-82393780D01*
X186255024Y-82445550D01*
X186127878Y-82631940D01*
X186125704Y-82636624D01*
X186125702Y-82636627D01*
X186036515Y-82828765D01*
X186032881Y-82836593D01*
X185972585Y-83054013D01*
X185948609Y-83278362D01*
X185948906Y-83283514D01*
X185948906Y-83283518D01*
X185954618Y-83382578D01*
X185961597Y-83503614D01*
X185962734Y-83508660D01*
X185962735Y-83508666D01*
X185991488Y-83636251D01*
X186011200Y-83723720D01*
X186013142Y-83728502D01*
X186013143Y-83728506D01*
X186049822Y-83818835D01*
X186096086Y-83932769D01*
X186098785Y-83937173D01*
X186191028Y-84087700D01*
X186213975Y-84125147D01*
X186361702Y-84295687D01*
X186535299Y-84439810D01*
X186539751Y-84442412D01*
X186539756Y-84442415D01*
X186589069Y-84471231D01*
X186637792Y-84522870D01*
X186650863Y-84592653D01*
X186624131Y-84658425D01*
X186593595Y-84685783D01*
X186591335Y-84686960D01*
X186545990Y-84721006D01*
X186421226Y-84814681D01*
X186410905Y-84822430D01*
X186255024Y-84985550D01*
X186127878Y-85171940D01*
X186125704Y-85176624D01*
X186125702Y-85176627D01*
X186107714Y-85215380D01*
X186032881Y-85376593D01*
X185972585Y-85594013D01*
X185948609Y-85818362D01*
X185948906Y-85823514D01*
X185948906Y-85823518D01*
X185954618Y-85922578D01*
X185961597Y-86043614D01*
X185962734Y-86048660D01*
X185962735Y-86048666D01*
X185983984Y-86142952D01*
X186011200Y-86263720D01*
X186013142Y-86268502D01*
X186013143Y-86268506D01*
X186065139Y-86396556D01*
X186096086Y-86472769D01*
X186125329Y-86520489D01*
X186183004Y-86614606D01*
X186213975Y-86665147D01*
X186361702Y-86835687D01*
X186535299Y-86979810D01*
X186539751Y-86982412D01*
X186539756Y-86982415D01*
X186589069Y-87011231D01*
X186637792Y-87062870D01*
X186650863Y-87132653D01*
X186624131Y-87198425D01*
X186593595Y-87225783D01*
X186591335Y-87226960D01*
X186507236Y-87290103D01*
X186434923Y-87344397D01*
X186410905Y-87362430D01*
X186255024Y-87525550D01*
X186127878Y-87711940D01*
X186125704Y-87716624D01*
X186125702Y-87716627D01*
X186036208Y-87909426D01*
X186032881Y-87916593D01*
X185972585Y-88134013D01*
X185948609Y-88358362D01*
X185948906Y-88363514D01*
X185948906Y-88363518D01*
X185954799Y-88465720D01*
X185961597Y-88583614D01*
X185962734Y-88588660D01*
X185962735Y-88588666D01*
X185982830Y-88677833D01*
X186011200Y-88803720D01*
X186013142Y-88808502D01*
X186013143Y-88808506D01*
X186085702Y-88987197D01*
X186096086Y-89012769D01*
X186109595Y-89034814D01*
X186205197Y-89190822D01*
X186213975Y-89205147D01*
X186361702Y-89375687D01*
X186535299Y-89519810D01*
X186539758Y-89522416D01*
X186542466Y-89524312D01*
X186586792Y-89579771D01*
X186594098Y-89650390D01*
X186562065Y-89713749D01*
X186538631Y-89733314D01*
X186447359Y-89792360D01*
X186443536Y-89795839D01*
X186443533Y-89795841D01*
X186293996Y-89931910D01*
X186273011Y-89951005D01*
X186269812Y-89955056D01*
X186269808Y-89955060D01*
X186131073Y-90130729D01*
X186126915Y-90135994D01*
X186012995Y-90342361D01*
X186011271Y-90347230D01*
X186011269Y-90347234D01*
X185936035Y-90559689D01*
X185934309Y-90564564D01*
X185933402Y-90569657D01*
X185933401Y-90569660D01*
X185910585Y-90697750D01*
X185892971Y-90796633D01*
X185890091Y-91032339D01*
X174655020Y-91032339D01*
X174084909Y-90462228D01*
X174050883Y-90399916D01*
X174055948Y-90329101D01*
X174098495Y-90272265D01*
X174157994Y-90248154D01*
X174268288Y-90234025D01*
X174268289Y-90234025D01*
X174273416Y-90233368D01*
X174279136Y-90231652D01*
X174482429Y-90170661D01*
X174482434Y-90170659D01*
X174487384Y-90169174D01*
X174687994Y-90070896D01*
X174869860Y-89941173D01*
X174879156Y-89931910D01*
X175015701Y-89795841D01*
X175028096Y-89783489D01*
X175059161Y-89740258D01*
X175158453Y-89602077D01*
X175159640Y-89602930D01*
X175206960Y-89559362D01*
X175276897Y-89547145D01*
X175342338Y-89574678D01*
X175370166Y-89606511D01*
X175427694Y-89700388D01*
X175433777Y-89708699D01*
X175573213Y-89869667D01*
X175580580Y-89876883D01*
X175744434Y-90012916D01*
X175752881Y-90018831D01*
X175936756Y-90126279D01*
X175946042Y-90130729D01*
X176145001Y-90206703D01*
X176154899Y-90209579D01*
X176258250Y-90230606D01*
X176272299Y-90229410D01*
X176276000Y-90219065D01*
X176276000Y-90218517D01*
X176784000Y-90218517D01*
X176788064Y-90232359D01*
X176801478Y-90234393D01*
X176808184Y-90233534D01*
X176818262Y-90231392D01*
X177022255Y-90170191D01*
X177031842Y-90166433D01*
X177223095Y-90072739D01*
X177231945Y-90067464D01*
X177405328Y-89943792D01*
X177413200Y-89937139D01*
X177564052Y-89786812D01*
X177570730Y-89778965D01*
X177698022Y-89601819D01*
X177699279Y-89602722D01*
X177746373Y-89559362D01*
X177816311Y-89547145D01*
X177881751Y-89574678D01*
X177909579Y-89606511D01*
X177969987Y-89705088D01*
X178116250Y-89873938D01*
X178288126Y-90016632D01*
X178481000Y-90129338D01*
X178689692Y-90209030D01*
X178694760Y-90210061D01*
X178694763Y-90210062D01*
X178795554Y-90230568D01*
X178908597Y-90253567D01*
X178913772Y-90253757D01*
X178913774Y-90253757D01*
X179126673Y-90261564D01*
X179126677Y-90261564D01*
X179131837Y-90261753D01*
X179136957Y-90261097D01*
X179136959Y-90261097D01*
X179348288Y-90234025D01*
X179348289Y-90234025D01*
X179353416Y-90233368D01*
X179359136Y-90231652D01*
X179562429Y-90170661D01*
X179562434Y-90170659D01*
X179567384Y-90169174D01*
X179767994Y-90070896D01*
X179949860Y-89941173D01*
X179959156Y-89931910D01*
X180095701Y-89795841D01*
X180108096Y-89783489D01*
X180139161Y-89740258D01*
X180235435Y-89606277D01*
X180238453Y-89602077D01*
X180245877Y-89587057D01*
X180335136Y-89406453D01*
X180335137Y-89406451D01*
X180337430Y-89401811D01*
X180402370Y-89188069D01*
X180431529Y-88966590D01*
X180432658Y-88920402D01*
X180433074Y-88903365D01*
X180433074Y-88903361D01*
X180433156Y-88900000D01*
X180414852Y-88677361D01*
X180360431Y-88460702D01*
X180271354Y-88255840D01*
X180150014Y-88068277D01*
X179999670Y-87903051D01*
X179995619Y-87899852D01*
X179995615Y-87899848D01*
X179828414Y-87767800D01*
X179828410Y-87767798D01*
X179824359Y-87764598D01*
X179788028Y-87744542D01*
X179737459Y-87716627D01*
X179628789Y-87656638D01*
X179623920Y-87654914D01*
X179623916Y-87654912D01*
X179423087Y-87583795D01*
X179423083Y-87583794D01*
X179418212Y-87582069D01*
X179413119Y-87581162D01*
X179413116Y-87581161D01*
X179203373Y-87543800D01*
X179203367Y-87543799D01*
X179198284Y-87542894D01*
X179124452Y-87541992D01*
X178980081Y-87540228D01*
X178980079Y-87540228D01*
X178974911Y-87540165D01*
X178754091Y-87573955D01*
X178541756Y-87643357D01*
X178481230Y-87674865D01*
X178408379Y-87712789D01*
X178343607Y-87746507D01*
X178339474Y-87749610D01*
X178339471Y-87749612D01*
X178169100Y-87877530D01*
X178164965Y-87880635D01*
X178161393Y-87884373D01*
X178053729Y-87997037D01*
X178010629Y-88042138D01*
X178007720Y-88046403D01*
X178007714Y-88046411D01*
X177956153Y-88121997D01*
X177903204Y-88199618D01*
X177902898Y-88200066D01*
X177847987Y-88245069D01*
X177777462Y-88253240D01*
X177713715Y-88221986D01*
X177693018Y-88197502D01*
X177612426Y-88072926D01*
X177606136Y-88064757D01*
X177462806Y-87907240D01*
X177455273Y-87900215D01*
X177288139Y-87768222D01*
X177279552Y-87762517D01*
X177093117Y-87659599D01*
X177083705Y-87655369D01*
X176882959Y-87584280D01*
X176872988Y-87581646D01*
X176801837Y-87568972D01*
X176788540Y-87570432D01*
X176784000Y-87584989D01*
X176784000Y-90218517D01*
X176276000Y-90218517D01*
X176276000Y-87583102D01*
X176272082Y-87569758D01*
X176257806Y-87567771D01*
X176219324Y-87573660D01*
X176209288Y-87576051D01*
X176006868Y-87642212D01*
X175997359Y-87646209D01*
X175808463Y-87744542D01*
X175799738Y-87750036D01*
X175629433Y-87877905D01*
X175621726Y-87884748D01*
X175474590Y-88038717D01*
X175468109Y-88046722D01*
X175363498Y-88200074D01*
X175308587Y-88245076D01*
X175238062Y-88253247D01*
X175174315Y-88221993D01*
X175153618Y-88197509D01*
X175072822Y-88072617D01*
X175072820Y-88072614D01*
X175070014Y-88068277D01*
X174919670Y-87903051D01*
X174915619Y-87899852D01*
X174915615Y-87899848D01*
X174748414Y-87767800D01*
X174748410Y-87767798D01*
X174744359Y-87764598D01*
X174708028Y-87744542D01*
X174657459Y-87716627D01*
X174548789Y-87656638D01*
X174543920Y-87654914D01*
X174543916Y-87654912D01*
X174343087Y-87583795D01*
X174343083Y-87583794D01*
X174338212Y-87582069D01*
X174333119Y-87581162D01*
X174333116Y-87581161D01*
X174123373Y-87543800D01*
X174123367Y-87543799D01*
X174118284Y-87542894D01*
X174044452Y-87541992D01*
X173900081Y-87540228D01*
X173900079Y-87540228D01*
X173894911Y-87540165D01*
X173674091Y-87573955D01*
X173461756Y-87643357D01*
X173401230Y-87674865D01*
X173328379Y-87712789D01*
X173263607Y-87746507D01*
X173259474Y-87749610D01*
X173259471Y-87749612D01*
X173089100Y-87877530D01*
X173084965Y-87880635D01*
X173081393Y-87884373D01*
X172973729Y-87997037D01*
X172930629Y-88042138D01*
X172823201Y-88199621D01*
X172768293Y-88244621D01*
X172697768Y-88252792D01*
X172634021Y-88221538D01*
X172613324Y-88197054D01*
X172532822Y-88072617D01*
X172532820Y-88072614D01*
X172530014Y-88068277D01*
X172379670Y-87903051D01*
X172375619Y-87899852D01*
X172375615Y-87899848D01*
X172208414Y-87767800D01*
X172208410Y-87767798D01*
X172204359Y-87764598D01*
X172168028Y-87744542D01*
X172117459Y-87716627D01*
X172008789Y-87656638D01*
X172003920Y-87654914D01*
X172003916Y-87654912D01*
X171803087Y-87583795D01*
X171803083Y-87583794D01*
X171798212Y-87582069D01*
X171793119Y-87581162D01*
X171793116Y-87581161D01*
X171583373Y-87543800D01*
X171583367Y-87543799D01*
X171578284Y-87542894D01*
X171504452Y-87541992D01*
X171360081Y-87540228D01*
X171360079Y-87540228D01*
X171354911Y-87540165D01*
X171134091Y-87573955D01*
X170921756Y-87643357D01*
X170861230Y-87674865D01*
X170788379Y-87712789D01*
X170723607Y-87746507D01*
X170719474Y-87749610D01*
X170719471Y-87749612D01*
X170549100Y-87877530D01*
X170544965Y-87880635D01*
X170541393Y-87884373D01*
X170433729Y-87997037D01*
X170390629Y-88042138D01*
X170283201Y-88199621D01*
X170228293Y-88244621D01*
X170157768Y-88252792D01*
X170094021Y-88221538D01*
X170073324Y-88197054D01*
X169992822Y-88072617D01*
X169992820Y-88072614D01*
X169990014Y-88068277D01*
X169839670Y-87903051D01*
X169835619Y-87899852D01*
X169835615Y-87899848D01*
X169668414Y-87767800D01*
X169668410Y-87767798D01*
X169664359Y-87764598D01*
X169628028Y-87744542D01*
X169577459Y-87716627D01*
X169468789Y-87656638D01*
X169463920Y-87654914D01*
X169463916Y-87654912D01*
X169263087Y-87583795D01*
X169263083Y-87583794D01*
X169258212Y-87582069D01*
X169253119Y-87581162D01*
X169253116Y-87581161D01*
X169043373Y-87543800D01*
X169043367Y-87543799D01*
X169038284Y-87542894D01*
X168964452Y-87541992D01*
X168820081Y-87540228D01*
X168820079Y-87540228D01*
X168814911Y-87540165D01*
X168594091Y-87573955D01*
X168381756Y-87643357D01*
X168321230Y-87674865D01*
X168248379Y-87712789D01*
X168183607Y-87746507D01*
X168179474Y-87749610D01*
X168179471Y-87749612D01*
X168009100Y-87877530D01*
X168004965Y-87880635D01*
X167935873Y-87952936D01*
X167924283Y-87965064D01*
X167862759Y-88000494D01*
X167791846Y-87997037D01*
X167734060Y-87955791D01*
X167715207Y-87922243D01*
X167673767Y-87811703D01*
X167670615Y-87803295D01*
X167583261Y-87686739D01*
X167466705Y-87599385D01*
X167330316Y-87548255D01*
X167268134Y-87541500D01*
X165471866Y-87541500D01*
X165409684Y-87548255D01*
X165273295Y-87599385D01*
X165156739Y-87686739D01*
X165069385Y-87803295D01*
X165018255Y-87939684D01*
X165011500Y-88001866D01*
X165011500Y-89798134D01*
X158688228Y-89798134D01*
X158723798Y-89764379D01*
X158938952Y-89507059D01*
X158950043Y-89490175D01*
X159121117Y-89229740D01*
X159121122Y-89229731D01*
X159123104Y-89226714D01*
X159273813Y-88927062D01*
X159278853Y-88913289D01*
X159387834Y-88615486D01*
X159387837Y-88615476D01*
X159389082Y-88612074D01*
X159389927Y-88608552D01*
X159389930Y-88608544D01*
X159466537Y-88289453D01*
X159466538Y-88289449D01*
X159467384Y-88285924D01*
X159470450Y-88260590D01*
X159507344Y-87955715D01*
X159507345Y-87955708D01*
X159507680Y-87952936D01*
X159508097Y-87939684D01*
X159513341Y-87772797D01*
X159513429Y-87770000D01*
X159512278Y-87750036D01*
X159494330Y-87438759D01*
X159494329Y-87438754D01*
X159494121Y-87435139D01*
X159492516Y-87425940D01*
X159437077Y-87108289D01*
X159437075Y-87108282D01*
X159436453Y-87104716D01*
X159419075Y-87046047D01*
X159395083Y-86965052D01*
X159341189Y-86783111D01*
X159326205Y-86747980D01*
X159226383Y-86513951D01*
X159209593Y-86474587D01*
X159092046Y-86268506D01*
X159045210Y-86186393D01*
X159045205Y-86186386D01*
X159043407Y-86183233D01*
X158844836Y-85912910D01*
X158616510Y-85667203D01*
X158483991Y-85554021D01*
X158364229Y-85451734D01*
X158364224Y-85451730D01*
X158361457Y-85449367D01*
X158358432Y-85447334D01*
X158086064Y-85264310D01*
X158086060Y-85264308D01*
X158083056Y-85262289D01*
X157784998Y-85108450D01*
X157689504Y-85072366D01*
X157632851Y-85029576D01*
X157608326Y-84962950D01*
X157623714Y-84893642D01*
X157674131Y-84843655D01*
X157734042Y-84828500D01*
X172769769Y-84828500D01*
X172772825Y-84828200D01*
X172772832Y-84828200D01*
X172831675Y-84822430D01*
X172916833Y-84814080D01*
X172922734Y-84812298D01*
X172922736Y-84812298D01*
X172996053Y-84790162D01*
X173106169Y-84756916D01*
X173280796Y-84664066D01*
X173380466Y-84582777D01*
X173429287Y-84542960D01*
X173429290Y-84542957D01*
X173434062Y-84539065D01*
X173470832Y-84494618D01*
X173556201Y-84391425D01*
X173556203Y-84391421D01*
X173560130Y-84386675D01*
X173654198Y-84212701D01*
X173712682Y-84023768D01*
X173713449Y-84016469D01*
X173732711Y-83833204D01*
X173732711Y-83833202D01*
X173733355Y-83827075D01*
X173715430Y-83630112D01*
X173659590Y-83440381D01*
X173627635Y-83379256D01*
X173594232Y-83315364D01*
X173567960Y-83265110D01*
X173444032Y-83110975D01*
X173292526Y-82983846D01*
X173287128Y-82980879D01*
X173287123Y-82980875D01*
X173124608Y-82891533D01*
X173124609Y-82891533D01*
X173119213Y-82888567D01*
X173113346Y-82886706D01*
X173113344Y-82886705D01*
X172936564Y-82830627D01*
X172936563Y-82830627D01*
X172930694Y-82828765D01*
X172776773Y-82811500D01*
X157314924Y-82811500D01*
X157246803Y-82791498D01*
X157225829Y-82774595D01*
X156603740Y-82152506D01*
X156569714Y-82090194D01*
X156574779Y-82019379D01*
X156617326Y-81962543D01*
X156683846Y-81937732D01*
X156753220Y-81952823D01*
X156768400Y-81962585D01*
X156791351Y-81979786D01*
X156806946Y-81988324D01*
X156927394Y-82033478D01*
X156942649Y-82037105D01*
X156993514Y-82042631D01*
X157000328Y-82043000D01*
X157597885Y-82043000D01*
X157613124Y-82038525D01*
X157614329Y-82037135D01*
X157616000Y-82029452D01*
X157616000Y-82024884D01*
X158124000Y-82024884D01*
X158128475Y-82040123D01*
X158129865Y-82041328D01*
X158137548Y-82042999D01*
X158739669Y-82042999D01*
X158746490Y-82042629D01*
X158797352Y-82037105D01*
X158812604Y-82033479D01*
X158933054Y-81988324D01*
X158948649Y-81979786D01*
X159050724Y-81903285D01*
X159063285Y-81890724D01*
X159139786Y-81788649D01*
X159148324Y-81773054D01*
X159193478Y-81652606D01*
X159197105Y-81637351D01*
X159202631Y-81586486D01*
X159203000Y-81579672D01*
X159203000Y-80982115D01*
X159198525Y-80966876D01*
X159197135Y-80965671D01*
X159189452Y-80964000D01*
X158142115Y-80964000D01*
X158126876Y-80968475D01*
X158125671Y-80969865D01*
X158124000Y-80977548D01*
X158124000Y-82024884D01*
X157616000Y-82024884D01*
X157616000Y-80743530D01*
X185949407Y-80743530D01*
X185961795Y-80958374D01*
X185963231Y-80968596D01*
X186010542Y-81178528D01*
X186013621Y-81188356D01*
X186094586Y-81387748D01*
X186099239Y-81396959D01*
X186181569Y-81531308D01*
X186192027Y-81540770D01*
X186200803Y-81536987D01*
X186952978Y-80784812D01*
X186959356Y-80773132D01*
X187689408Y-80773132D01*
X187689539Y-80774965D01*
X187693790Y-80781580D01*
X188445219Y-81533009D01*
X188457230Y-81539568D01*
X188468969Y-81530600D01*
X188501699Y-81485050D01*
X188507014Y-81476205D01*
X188602358Y-81283292D01*
X188606156Y-81273699D01*
X188668715Y-81067793D01*
X188670893Y-81057720D01*
X188699221Y-80842550D01*
X188699740Y-80835882D01*
X188701219Y-80775365D01*
X188701025Y-80768646D01*
X188683244Y-80552375D01*
X188681559Y-80542195D01*
X188629133Y-80333477D01*
X188625813Y-80323726D01*
X188539999Y-80126365D01*
X188535133Y-80117290D01*
X188467899Y-80013364D01*
X188457212Y-80004160D01*
X188447647Y-80008563D01*
X187697022Y-80759188D01*
X187689408Y-80773132D01*
X186959356Y-80773132D01*
X186960592Y-80770868D01*
X186960461Y-80769035D01*
X186956210Y-80762420D01*
X186205062Y-80011272D01*
X186193526Y-80004972D01*
X186181243Y-80014595D01*
X186131225Y-80087918D01*
X186126137Y-80096874D01*
X186035530Y-80292071D01*
X186031967Y-80301758D01*
X185974459Y-80509124D01*
X185972528Y-80519244D01*
X185949659Y-80733241D01*
X185949407Y-80743530D01*
X157616000Y-80743530D01*
X157616000Y-80582000D01*
X157636002Y-80513879D01*
X157689658Y-80467386D01*
X157742000Y-80456000D01*
X159184884Y-80456000D01*
X159200123Y-80451525D01*
X159201328Y-80450135D01*
X159202999Y-80442452D01*
X159202999Y-79840331D01*
X159202629Y-79833510D01*
X159197105Y-79782648D01*
X159193479Y-79767396D01*
X159148324Y-79646946D01*
X159139786Y-79631351D01*
X159063285Y-79529276D01*
X159050724Y-79516715D01*
X158948649Y-79440214D01*
X158933054Y-79431676D01*
X158812606Y-79386522D01*
X158797351Y-79382895D01*
X158746486Y-79377369D01*
X158739672Y-79377000D01*
X158575176Y-79377000D01*
X158507055Y-79356998D01*
X158460562Y-79303342D01*
X158450458Y-79233068D01*
X158479952Y-79168488D01*
X158521927Y-79136805D01*
X158534055Y-79131150D01*
X158543554Y-79125665D01*
X158601000Y-79085441D01*
X158609375Y-79074964D01*
X158602307Y-79061517D01*
X157882812Y-78342022D01*
X157868868Y-78334408D01*
X157867035Y-78334539D01*
X157860420Y-78338790D01*
X157136972Y-79062238D01*
X157130542Y-79074013D01*
X157139838Y-79086028D01*
X157196446Y-79125665D01*
X157205945Y-79131150D01*
X157218075Y-79136806D01*
X157271361Y-79183723D01*
X157290822Y-79252000D01*
X157270281Y-79319960D01*
X157216258Y-79366026D01*
X157164826Y-79377001D01*
X157000331Y-79377001D01*
X156993510Y-79377371D01*
X156942648Y-79382895D01*
X156927394Y-79386522D01*
X156836049Y-79420765D01*
X156765242Y-79425948D01*
X156702873Y-79392027D01*
X156668744Y-79329772D01*
X156666299Y-79313765D01*
X156655685Y-79192447D01*
X156648258Y-79107556D01*
X156638467Y-79071016D01*
X156589290Y-78887484D01*
X156589289Y-78887482D01*
X156587867Y-78882174D01*
X156581489Y-78868496D01*
X156570827Y-78798306D01*
X156599805Y-78733493D01*
X156659224Y-78694635D01*
X156730218Y-78694070D01*
X156761874Y-78710390D01*
X156762903Y-78710496D01*
X156778483Y-78702307D01*
X157497978Y-77982812D01*
X157504356Y-77971132D01*
X158234408Y-77971132D01*
X158234539Y-77972965D01*
X158238790Y-77979580D01*
X158962238Y-78703028D01*
X158974013Y-78709458D01*
X158986028Y-78700162D01*
X159025665Y-78643554D01*
X159031148Y-78634059D01*
X159125072Y-78432636D01*
X159128818Y-78422344D01*
X159186339Y-78207672D01*
X159188242Y-78196877D01*
X159207613Y-77975475D01*
X159207613Y-77964525D01*
X159188242Y-77743123D01*
X159186339Y-77732328D01*
X159128818Y-77517656D01*
X159125072Y-77507364D01*
X159031148Y-77305941D01*
X159025665Y-77296446D01*
X158985441Y-77239000D01*
X158974964Y-77230625D01*
X158961517Y-77237693D01*
X158242022Y-77957188D01*
X158234408Y-77971132D01*
X157504356Y-77971132D01*
X157505592Y-77968868D01*
X157505461Y-77967035D01*
X157501210Y-77960420D01*
X156777762Y-77236972D01*
X156763818Y-77229358D01*
X156762807Y-77229430D01*
X156706032Y-77251639D01*
X156636427Y-77237652D01*
X156585434Y-77188253D01*
X156569242Y-77119128D01*
X156580851Y-77072873D01*
X156585543Y-77062809D01*
X156587867Y-77057826D01*
X156593066Y-77038425D01*
X156646834Y-76837759D01*
X156646834Y-76837757D01*
X156648258Y-76832444D01*
X156668594Y-76600000D01*
X156648258Y-76367556D01*
X156632295Y-76307982D01*
X156591226Y-76154708D01*
X156592916Y-76083731D01*
X156632710Y-76024936D01*
X156697975Y-75996988D01*
X156767988Y-76008762D01*
X156816145Y-76049825D01*
X156844578Y-76090432D01*
X157009568Y-76255422D01*
X157014076Y-76258579D01*
X157014079Y-76258581D01*
X157169712Y-76367556D01*
X157200703Y-76389256D01*
X157205685Y-76391579D01*
X157205690Y-76391582D01*
X157408344Y-76486081D01*
X157461629Y-76532998D01*
X157481090Y-76601276D01*
X157460548Y-76669236D01*
X157408344Y-76714471D01*
X157205941Y-76808852D01*
X157196446Y-76814335D01*
X157139000Y-76854559D01*
X157130625Y-76865036D01*
X157137693Y-76878483D01*
X157857188Y-77597978D01*
X157871132Y-77605592D01*
X157872965Y-77605461D01*
X157879580Y-77601210D01*
X158603028Y-76877762D01*
X158609458Y-76865987D01*
X158600162Y-76853972D01*
X158543554Y-76814335D01*
X158534059Y-76808852D01*
X158331656Y-76714471D01*
X158278371Y-76667554D01*
X158258910Y-76599277D01*
X158279452Y-76531317D01*
X158331656Y-76486081D01*
X158534310Y-76391582D01*
X158534315Y-76391579D01*
X158539297Y-76389256D01*
X158570288Y-76367556D01*
X158725921Y-76258581D01*
X158725924Y-76258579D01*
X158730432Y-76255422D01*
X158895422Y-76090432D01*
X158967219Y-75987896D01*
X159026099Y-75903806D01*
X159026100Y-75903804D01*
X159029256Y-75899297D01*
X159031579Y-75894315D01*
X159031582Y-75894310D01*
X159125544Y-75692808D01*
X159125545Y-75692806D01*
X159127867Y-75687826D01*
X159131124Y-75675673D01*
X159186834Y-75467759D01*
X159186834Y-75467757D01*
X159188258Y-75462444D01*
X159208594Y-75230000D01*
X159188258Y-74997556D01*
X159141168Y-74821813D01*
X159129290Y-74777484D01*
X159129289Y-74777482D01*
X159127867Y-74772174D01*
X159105049Y-74723241D01*
X159031582Y-74565690D01*
X159031579Y-74565685D01*
X159029256Y-74560703D01*
X159009388Y-74532328D01*
X158898581Y-74374079D01*
X158898579Y-74374076D01*
X158895422Y-74369568D01*
X158730432Y-74204578D01*
X158725924Y-74201421D01*
X158725921Y-74201419D01*
X158543806Y-74073901D01*
X158543804Y-74073900D01*
X158539297Y-74070744D01*
X158534315Y-74068421D01*
X158534310Y-74068418D01*
X158332248Y-73974195D01*
X158278963Y-73927277D01*
X158259502Y-73859000D01*
X158280044Y-73791040D01*
X158332248Y-73745805D01*
X158534310Y-73651582D01*
X158534315Y-73651579D01*
X158539297Y-73649256D01*
X158570288Y-73627556D01*
X158725921Y-73518581D01*
X158725924Y-73518579D01*
X158730432Y-73515422D01*
X158895422Y-73350432D01*
X158903816Y-73338445D01*
X159026099Y-73163806D01*
X159026100Y-73163804D01*
X159029256Y-73159297D01*
X159031579Y-73154315D01*
X159031582Y-73154310D01*
X159125544Y-72952808D01*
X159125545Y-72952806D01*
X159127867Y-72947826D01*
X159131124Y-72935673D01*
X159186834Y-72727759D01*
X159186834Y-72727757D01*
X159188258Y-72722444D01*
X159208594Y-72490000D01*
X159188258Y-72257556D01*
X159158118Y-72145071D01*
X159129290Y-72037484D01*
X159129289Y-72037482D01*
X159127867Y-72032174D01*
X159115304Y-72005232D01*
X159031582Y-71825690D01*
X159031579Y-71825685D01*
X159029256Y-71820703D01*
X159010423Y-71793806D01*
X158898581Y-71634079D01*
X158898579Y-71634076D01*
X158895422Y-71629568D01*
X158730432Y-71464578D01*
X158725924Y-71461421D01*
X158725921Y-71461419D01*
X158543806Y-71333901D01*
X158543804Y-71333900D01*
X158539297Y-71330744D01*
X158534315Y-71328421D01*
X158534310Y-71328418D01*
X158332248Y-71234195D01*
X158278963Y-71187277D01*
X158259502Y-71119000D01*
X158280044Y-71051040D01*
X158332248Y-71005805D01*
X158534310Y-70911582D01*
X158534315Y-70911579D01*
X158539297Y-70909256D01*
X158570288Y-70887556D01*
X158725921Y-70778581D01*
X158725924Y-70778579D01*
X158730432Y-70775422D01*
X158895422Y-70610432D01*
X158914268Y-70583518D01*
X159026099Y-70423806D01*
X159026100Y-70423804D01*
X159029256Y-70419297D01*
X159031579Y-70414315D01*
X159031582Y-70414310D01*
X159125544Y-70212808D01*
X159125545Y-70212806D01*
X159127867Y-70207826D01*
X159131226Y-70195292D01*
X159186834Y-69987759D01*
X159186834Y-69987757D01*
X159188258Y-69982444D01*
X159208594Y-69750000D01*
X159188258Y-69517556D01*
X159170780Y-69452328D01*
X159129290Y-69297484D01*
X159129289Y-69297482D01*
X159127867Y-69292174D01*
X159125544Y-69287192D01*
X159031582Y-69085690D01*
X159031579Y-69085685D01*
X159029256Y-69080703D01*
X159009004Y-69051780D01*
X158898581Y-68894079D01*
X158898579Y-68894076D01*
X158895422Y-68889568D01*
X158730432Y-68724578D01*
X158725924Y-68721421D01*
X158725921Y-68721419D01*
X158543806Y-68593901D01*
X158543804Y-68593900D01*
X158539297Y-68590744D01*
X158534315Y-68588421D01*
X158534310Y-68588418D01*
X158332248Y-68494195D01*
X158278963Y-68447277D01*
X158259502Y-68379000D01*
X158280044Y-68311040D01*
X158332248Y-68265805D01*
X158534310Y-68171582D01*
X158534315Y-68171579D01*
X158539297Y-68169256D01*
X158570288Y-68147556D01*
X158725921Y-68038581D01*
X158725924Y-68038579D01*
X158730432Y-68035422D01*
X158895422Y-67870432D01*
X158915252Y-67842113D01*
X159026099Y-67683806D01*
X159026100Y-67683804D01*
X159029256Y-67679297D01*
X159031579Y-67674315D01*
X159031582Y-67674310D01*
X159125544Y-67472808D01*
X159125545Y-67472806D01*
X159127867Y-67467826D01*
X159131226Y-67455292D01*
X159186834Y-67247759D01*
X159186834Y-67247757D01*
X159188258Y-67242444D01*
X159208594Y-67010000D01*
X159188258Y-66777556D01*
X159135308Y-66579945D01*
X159129290Y-66557484D01*
X159129289Y-66557482D01*
X159127867Y-66552174D01*
X159109031Y-66511780D01*
X159031582Y-66345690D01*
X159031579Y-66345685D01*
X159029256Y-66340703D01*
X159010423Y-66313806D01*
X158898581Y-66154079D01*
X158898579Y-66154076D01*
X158895422Y-66149568D01*
X158730432Y-65984578D01*
X158725924Y-65981421D01*
X158725921Y-65981419D01*
X158543806Y-65853901D01*
X158543804Y-65853900D01*
X158539297Y-65850744D01*
X158534315Y-65848421D01*
X158534310Y-65848418D01*
X158332248Y-65754195D01*
X158278963Y-65707277D01*
X158259502Y-65639000D01*
X158280044Y-65571040D01*
X158332248Y-65525805D01*
X158534310Y-65431582D01*
X158534315Y-65431579D01*
X158539297Y-65429256D01*
X158570288Y-65407556D01*
X158725921Y-65298581D01*
X158725924Y-65298579D01*
X158730432Y-65295422D01*
X158895422Y-65130432D01*
X158922501Y-65091760D01*
X159026099Y-64943806D01*
X159026100Y-64943804D01*
X159029256Y-64939297D01*
X159031579Y-64934315D01*
X159031582Y-64934310D01*
X159125544Y-64732808D01*
X159125545Y-64732806D01*
X159127867Y-64727826D01*
X159131226Y-64715292D01*
X159186834Y-64507759D01*
X159186834Y-64507757D01*
X159188258Y-64502444D01*
X159208594Y-64270000D01*
X159188258Y-64037556D01*
X159171680Y-63975687D01*
X159129290Y-63817484D01*
X159129289Y-63817482D01*
X159127867Y-63812174D01*
X159122539Y-63800748D01*
X159031582Y-63605690D01*
X159031579Y-63605685D01*
X159029256Y-63600703D01*
X159007266Y-63569297D01*
X158901287Y-63417944D01*
X158878500Y-63345673D01*
X158878500Y-62454327D01*
X158901287Y-62382056D01*
X159026099Y-62203806D01*
X159026100Y-62203804D01*
X159029256Y-62199297D01*
X159031579Y-62194315D01*
X159031582Y-62194310D01*
X159125544Y-61992808D01*
X159125545Y-61992806D01*
X159127867Y-61987826D01*
X159129355Y-61982275D01*
X159156945Y-61879304D01*
X159188258Y-61762444D01*
X159196194Y-61671728D01*
X159222057Y-61605611D01*
X159232620Y-61593615D01*
X170433895Y-50392339D01*
X185890091Y-50392339D01*
X185925747Y-50625349D01*
X185998980Y-50849407D01*
X186107825Y-51058496D01*
X186110928Y-51062629D01*
X186110930Y-51062632D01*
X186133026Y-51092061D01*
X186249358Y-51247000D01*
X186419777Y-51409857D01*
X186424051Y-51412772D01*
X186424054Y-51412775D01*
X186543696Y-51494390D01*
X186588699Y-51549301D01*
X186596870Y-51619826D01*
X186565616Y-51683573D01*
X186548354Y-51699231D01*
X186410905Y-51802430D01*
X186407333Y-51806168D01*
X186302968Y-51915380D01*
X186255024Y-51965550D01*
X186127878Y-52151940D01*
X186125704Y-52156624D01*
X186125702Y-52156627D01*
X186053482Y-52312213D01*
X186032881Y-52356593D01*
X185972585Y-52574013D01*
X185948609Y-52798362D01*
X185948906Y-52803514D01*
X185948906Y-52803518D01*
X185956702Y-52938716D01*
X185961597Y-53023614D01*
X185962734Y-53028660D01*
X185962735Y-53028666D01*
X185983984Y-53122952D01*
X186011200Y-53243720D01*
X186013142Y-53248502D01*
X186013143Y-53248506D01*
X186075041Y-53400942D01*
X186096086Y-53452769D01*
X186113657Y-53481442D01*
X186209749Y-53638250D01*
X186213975Y-53645147D01*
X186361702Y-53815687D01*
X186535299Y-53959810D01*
X186539751Y-53962412D01*
X186539756Y-53962415D01*
X186589069Y-53991231D01*
X186637792Y-54042870D01*
X186650863Y-54112653D01*
X186624131Y-54178425D01*
X186593595Y-54205783D01*
X186591335Y-54206960D01*
X186551585Y-54236805D01*
X186419091Y-54336284D01*
X186410905Y-54342430D01*
X186255024Y-54505550D01*
X186127878Y-54691940D01*
X186125704Y-54696624D01*
X186125702Y-54696627D01*
X186116226Y-54717043D01*
X186032881Y-54896593D01*
X185972585Y-55114013D01*
X185948609Y-55338362D01*
X185948906Y-55343514D01*
X185948906Y-55343518D01*
X185954618Y-55442578D01*
X185961597Y-55563614D01*
X185962734Y-55568660D01*
X185962735Y-55568666D01*
X185983984Y-55662952D01*
X186011200Y-55783720D01*
X186013142Y-55788502D01*
X186013143Y-55788506D01*
X186089285Y-55976021D01*
X186096086Y-55992769D01*
X186213975Y-56185147D01*
X186361702Y-56355687D01*
X186535299Y-56499810D01*
X186539751Y-56502412D01*
X186539756Y-56502415D01*
X186589069Y-56531231D01*
X186637792Y-56582870D01*
X186650863Y-56652653D01*
X186624131Y-56718425D01*
X186593595Y-56745783D01*
X186591335Y-56746960D01*
X186410905Y-56882430D01*
X186255024Y-57045550D01*
X186127878Y-57231940D01*
X186125704Y-57236624D01*
X186125702Y-57236627D01*
X186041317Y-57418420D01*
X186032881Y-57436593D01*
X185972585Y-57654013D01*
X185948609Y-57878362D01*
X185948906Y-57883514D01*
X185948906Y-57883518D01*
X185954618Y-57982578D01*
X185961597Y-58103614D01*
X185962734Y-58108660D01*
X185962735Y-58108666D01*
X185983984Y-58202952D01*
X186011200Y-58323720D01*
X186013142Y-58328502D01*
X186013143Y-58328506D01*
X186049822Y-58418835D01*
X186096086Y-58532769D01*
X186098785Y-58537173D01*
X186199118Y-58700902D01*
X186213975Y-58725147D01*
X186361702Y-58895687D01*
X186505936Y-59015433D01*
X186524165Y-59030566D01*
X186535299Y-59039810D01*
X186539751Y-59042412D01*
X186539756Y-59042415D01*
X186589069Y-59071231D01*
X186637792Y-59122870D01*
X186650863Y-59192653D01*
X186624131Y-59258425D01*
X186593595Y-59285783D01*
X186591335Y-59286960D01*
X186410905Y-59422430D01*
X186255024Y-59585550D01*
X186127878Y-59771940D01*
X186125704Y-59776624D01*
X186125702Y-59776627D01*
X186036933Y-59967864D01*
X186032881Y-59976593D01*
X185972585Y-60194013D01*
X185948609Y-60418362D01*
X185948906Y-60423514D01*
X185948906Y-60423518D01*
X185954618Y-60522578D01*
X185961597Y-60643614D01*
X185962734Y-60648660D01*
X185962735Y-60648666D01*
X185994095Y-60787821D01*
X186011200Y-60863720D01*
X186013142Y-60868502D01*
X186013143Y-60868506D01*
X186085095Y-61045702D01*
X186096086Y-61072769D01*
X186134790Y-61135928D01*
X186191028Y-61227700D01*
X186213975Y-61265147D01*
X186361702Y-61435687D01*
X186535299Y-61579810D01*
X186539751Y-61582412D01*
X186539756Y-61582415D01*
X186589069Y-61611231D01*
X186637792Y-61662870D01*
X186650863Y-61732653D01*
X186624131Y-61798425D01*
X186593595Y-61825783D01*
X186591335Y-61826960D01*
X186410905Y-61962430D01*
X186405998Y-61967565D01*
X186259145Y-62121238D01*
X186255024Y-62125550D01*
X186127878Y-62311940D01*
X186125704Y-62316624D01*
X186125702Y-62316627D01*
X186037650Y-62506320D01*
X186032881Y-62516593D01*
X185972585Y-62734013D01*
X185948609Y-62958362D01*
X185948906Y-62963514D01*
X185948906Y-62963518D01*
X185954618Y-63062578D01*
X185961597Y-63183614D01*
X185962734Y-63188660D01*
X185962735Y-63188666D01*
X185983984Y-63282952D01*
X186011200Y-63403720D01*
X186013142Y-63408502D01*
X186013143Y-63408506D01*
X186094142Y-63607982D01*
X186096086Y-63612769D01*
X186213975Y-63805147D01*
X186361702Y-63975687D01*
X186535299Y-64119810D01*
X186539751Y-64122412D01*
X186539756Y-64122415D01*
X186589069Y-64151231D01*
X186637792Y-64202870D01*
X186650863Y-64272653D01*
X186624131Y-64338425D01*
X186593595Y-64365783D01*
X186591335Y-64366960D01*
X186410905Y-64502430D01*
X186255024Y-64665550D01*
X186127878Y-64851940D01*
X186125704Y-64856624D01*
X186125702Y-64856627D01*
X186072750Y-64970703D01*
X186032881Y-65056593D01*
X185972585Y-65274013D01*
X185948609Y-65498362D01*
X185948906Y-65503514D01*
X185948906Y-65503518D01*
X185958587Y-65671406D01*
X185961597Y-65723614D01*
X185962734Y-65728660D01*
X185962735Y-65728666D01*
X185983984Y-65822952D01*
X186011200Y-65943720D01*
X186013142Y-65948502D01*
X186013143Y-65948506D01*
X186049822Y-66038835D01*
X186096086Y-66152769D01*
X186098785Y-66157173D01*
X186211252Y-66340703D01*
X186213975Y-66345147D01*
X186361702Y-66515687D01*
X186535299Y-66659810D01*
X186539751Y-66662412D01*
X186539756Y-66662415D01*
X186589069Y-66691231D01*
X186637792Y-66742870D01*
X186650863Y-66812653D01*
X186624131Y-66878425D01*
X186593595Y-66905783D01*
X186591335Y-66906960D01*
X186410905Y-67042430D01*
X186255024Y-67205550D01*
X186127878Y-67391940D01*
X186125704Y-67396624D01*
X186125702Y-67396627D01*
X186038233Y-67585064D01*
X186032881Y-67596593D01*
X185972585Y-67814013D01*
X185948609Y-68038362D01*
X185948906Y-68043514D01*
X185948906Y-68043518D01*
X185954599Y-68142241D01*
X185961597Y-68263614D01*
X185962734Y-68268660D01*
X185962735Y-68268666D01*
X185994095Y-68407821D01*
X186011200Y-68483720D01*
X186013142Y-68488502D01*
X186013143Y-68488506D01*
X186094142Y-68687982D01*
X186096086Y-68692769D01*
X186213975Y-68885147D01*
X186361702Y-69055687D01*
X186473120Y-69148188D01*
X186511702Y-69180219D01*
X186535299Y-69199810D01*
X186539751Y-69202412D01*
X186539756Y-69202415D01*
X186589069Y-69231231D01*
X186637792Y-69282870D01*
X186650863Y-69352653D01*
X186624131Y-69418425D01*
X186593595Y-69445783D01*
X186591335Y-69446960D01*
X186504388Y-69512241D01*
X186465310Y-69541582D01*
X186410905Y-69582430D01*
X186255024Y-69745550D01*
X186127878Y-69931940D01*
X186125704Y-69936624D01*
X186125702Y-69936627D01*
X186050575Y-70098475D01*
X186032881Y-70136593D01*
X185972585Y-70354013D01*
X185948609Y-70578362D01*
X185948906Y-70583514D01*
X185948906Y-70583518D01*
X185954618Y-70682578D01*
X185961597Y-70803614D01*
X185962734Y-70808660D01*
X185962735Y-70808666D01*
X185994095Y-70947821D01*
X186011200Y-71023720D01*
X186013142Y-71028502D01*
X186013143Y-71028506D01*
X186078297Y-71188960D01*
X186096086Y-71232769D01*
X186098785Y-71237173D01*
X186166065Y-71346964D01*
X186213975Y-71425147D01*
X186361702Y-71595687D01*
X186535299Y-71739810D01*
X186539751Y-71742412D01*
X186539756Y-71742415D01*
X186589069Y-71771231D01*
X186637792Y-71822870D01*
X186650863Y-71892653D01*
X186624131Y-71958425D01*
X186593595Y-71985783D01*
X186591335Y-71986960D01*
X186410905Y-72122430D01*
X186407333Y-72126168D01*
X186317116Y-72220575D01*
X186255024Y-72285550D01*
X186127878Y-72471940D01*
X186125704Y-72476624D01*
X186125702Y-72476627D01*
X186116226Y-72497043D01*
X186032881Y-72676593D01*
X185972585Y-72894013D01*
X185948609Y-73118362D01*
X185948906Y-73123514D01*
X185948906Y-73123518D01*
X185954618Y-73222578D01*
X185961597Y-73343614D01*
X185962734Y-73348660D01*
X185962735Y-73348666D01*
X185983984Y-73442952D01*
X186011200Y-73563720D01*
X186013142Y-73568502D01*
X186013143Y-73568506D01*
X186049822Y-73658835D01*
X186096086Y-73772769D01*
X186146186Y-73854525D01*
X186191800Y-73928960D01*
X186213975Y-73965147D01*
X186361702Y-74135687D01*
X186535299Y-74279810D01*
X186539751Y-74282412D01*
X186539756Y-74282415D01*
X186589069Y-74311231D01*
X186637792Y-74362870D01*
X186650863Y-74432653D01*
X186624131Y-74498425D01*
X186593595Y-74525783D01*
X186591335Y-74526960D01*
X186410905Y-74662430D01*
X186407333Y-74666168D01*
X186294418Y-74784327D01*
X186255024Y-74825550D01*
X186127878Y-75011940D01*
X186125704Y-75016624D01*
X186125702Y-75016627D01*
X186092248Y-75088699D01*
X186032881Y-75216593D01*
X185972585Y-75434013D01*
X185948609Y-75658362D01*
X185948906Y-75663514D01*
X185948906Y-75663518D01*
X185957068Y-75805065D01*
X185961597Y-75883614D01*
X185962734Y-75888660D01*
X185962735Y-75888666D01*
X185983984Y-75982952D01*
X186011200Y-76103720D01*
X186013142Y-76108502D01*
X186013143Y-76108506D01*
X186094142Y-76307982D01*
X186096086Y-76312769D01*
X186213975Y-76505147D01*
X186361702Y-76675687D01*
X186505936Y-76795433D01*
X186517792Y-76805275D01*
X186535299Y-76819810D01*
X186539751Y-76822412D01*
X186539756Y-76822415D01*
X186589069Y-76851231D01*
X186637792Y-76902870D01*
X186650863Y-76972653D01*
X186624131Y-77038425D01*
X186593595Y-77065783D01*
X186591335Y-77066960D01*
X186501884Y-77134121D01*
X186416459Y-77198260D01*
X186410905Y-77202430D01*
X186255024Y-77365550D01*
X186127878Y-77551940D01*
X186125704Y-77556624D01*
X186125702Y-77556627D01*
X186039134Y-77743123D01*
X186032881Y-77756593D01*
X185972585Y-77974013D01*
X185948609Y-78198362D01*
X185948906Y-78203514D01*
X185948906Y-78203518D01*
X185954618Y-78302578D01*
X185961597Y-78423614D01*
X185962734Y-78428660D01*
X185962735Y-78428666D01*
X185983628Y-78521373D01*
X186011200Y-78643720D01*
X186013142Y-78648502D01*
X186013143Y-78648506D01*
X186093041Y-78845271D01*
X186096086Y-78852769D01*
X186115928Y-78885148D01*
X186211024Y-79040331D01*
X186213975Y-79045147D01*
X186361702Y-79215687D01*
X186535299Y-79359810D01*
X186539751Y-79362412D01*
X186539756Y-79362415D01*
X186589555Y-79391515D01*
X186638278Y-79443154D01*
X186651349Y-79512937D01*
X186624617Y-79578709D01*
X186593128Y-79606922D01*
X186587471Y-79610484D01*
X186564960Y-79627386D01*
X186556507Y-79638711D01*
X186563251Y-79651041D01*
X187312188Y-80399978D01*
X187326132Y-80407592D01*
X187327965Y-80407461D01*
X187334580Y-80403210D01*
X188088073Y-79649717D01*
X188095093Y-79636861D01*
X188087916Y-79627011D01*
X188082105Y-79623151D01*
X188063082Y-79612649D01*
X188013111Y-79562216D01*
X187998340Y-79492773D01*
X188023457Y-79426368D01*
X188050801Y-79399768D01*
X188213667Y-79283596D01*
X188373487Y-79124333D01*
X188505150Y-78941105D01*
X188605118Y-78738835D01*
X188670708Y-78522952D01*
X188675467Y-78486803D01*
X188699721Y-78302578D01*
X188699722Y-78302572D01*
X188700158Y-78299256D01*
X188700350Y-78291413D01*
X188701720Y-78235364D01*
X188701720Y-78235360D01*
X188701802Y-78232000D01*
X188683315Y-78007132D01*
X188628349Y-77788304D01*
X188538380Y-77581391D01*
X188449097Y-77443380D01*
X188418634Y-77396291D01*
X188418632Y-77396288D01*
X188415826Y-77391951D01*
X188263977Y-77225071D01*
X188259926Y-77221872D01*
X188259922Y-77221868D01*
X188090966Y-77088434D01*
X188090962Y-77088432D01*
X188086911Y-77085232D01*
X188063535Y-77072328D01*
X188013564Y-77021896D01*
X187998792Y-76952453D01*
X188023908Y-76886047D01*
X188051259Y-76859441D01*
X188058104Y-76854559D01*
X188096790Y-76826964D01*
X188209455Y-76746601D01*
X188209459Y-76746597D01*
X188213667Y-76743596D01*
X188373487Y-76584333D01*
X188505150Y-76401105D01*
X188605118Y-76198835D01*
X188670708Y-75982952D01*
X188681128Y-75903806D01*
X188699721Y-75762578D01*
X188699722Y-75762572D01*
X188700158Y-75759256D01*
X188700435Y-75747942D01*
X188701720Y-75695364D01*
X188701720Y-75695360D01*
X188701802Y-75692000D01*
X188683315Y-75467132D01*
X188628349Y-75248304D01*
X188538380Y-75041391D01*
X188433992Y-74880031D01*
X188418634Y-74856291D01*
X188418632Y-74856288D01*
X188415826Y-74851951D01*
X188263977Y-74685071D01*
X188259926Y-74681872D01*
X188259922Y-74681868D01*
X188090966Y-74548434D01*
X188090962Y-74548432D01*
X188086911Y-74545232D01*
X188063535Y-74532328D01*
X188013564Y-74481896D01*
X187998792Y-74412453D01*
X188023908Y-74346047D01*
X188051259Y-74319441D01*
X188209455Y-74206601D01*
X188209459Y-74206597D01*
X188213667Y-74203596D01*
X188373487Y-74044333D01*
X188505150Y-73861105D01*
X188605118Y-73658835D01*
X188670708Y-73442952D01*
X188671383Y-73437826D01*
X188699721Y-73222578D01*
X188699722Y-73222572D01*
X188700158Y-73219256D01*
X188700966Y-73186194D01*
X188701720Y-73155364D01*
X188701720Y-73155360D01*
X188701802Y-73152000D01*
X188683315Y-72927132D01*
X188628349Y-72708304D01*
X188538380Y-72501391D01*
X188415826Y-72311951D01*
X188263977Y-72145071D01*
X188259926Y-72141872D01*
X188259922Y-72141868D01*
X188090966Y-72008434D01*
X188090962Y-72008432D01*
X188086911Y-72005232D01*
X188063535Y-71992328D01*
X188013564Y-71941896D01*
X187998792Y-71872453D01*
X188023908Y-71806047D01*
X188051259Y-71779441D01*
X188209455Y-71666601D01*
X188209459Y-71666597D01*
X188213667Y-71663596D01*
X188373487Y-71504333D01*
X188505150Y-71321105D01*
X188578970Y-71171742D01*
X188602824Y-71123477D01*
X188602825Y-71123475D01*
X188605118Y-71118835D01*
X188670708Y-70902952D01*
X188671383Y-70897826D01*
X188699721Y-70682578D01*
X188699722Y-70682572D01*
X188700158Y-70679256D01*
X188701802Y-70612000D01*
X188683315Y-70387132D01*
X188628349Y-70168304D01*
X188538380Y-69961391D01*
X188474167Y-69862133D01*
X188418634Y-69776291D01*
X188418632Y-69776288D01*
X188415826Y-69771951D01*
X188263977Y-69605071D01*
X188259926Y-69601872D01*
X188259922Y-69601868D01*
X188090966Y-69468434D01*
X188090962Y-69468432D01*
X188086911Y-69465232D01*
X188063535Y-69452328D01*
X188013564Y-69401896D01*
X187998792Y-69332453D01*
X188023908Y-69266047D01*
X188051259Y-69239441D01*
X188209455Y-69126601D01*
X188209459Y-69126597D01*
X188213667Y-69123596D01*
X188373487Y-68964333D01*
X188505150Y-68781105D01*
X188585881Y-68617759D01*
X188602824Y-68583477D01*
X188602825Y-68583475D01*
X188605118Y-68578835D01*
X188665225Y-68381000D01*
X188669206Y-68367896D01*
X188669206Y-68367895D01*
X188670708Y-68362952D01*
X188677321Y-68312723D01*
X188699721Y-68142578D01*
X188699722Y-68142572D01*
X188700158Y-68139256D01*
X188701802Y-68072000D01*
X188683315Y-67847132D01*
X188628349Y-67628304D01*
X188538380Y-67421391D01*
X188426053Y-67247759D01*
X188418634Y-67236291D01*
X188418632Y-67236288D01*
X188415826Y-67231951D01*
X188263977Y-67065071D01*
X188259926Y-67061872D01*
X188259922Y-67061868D01*
X188090966Y-66928434D01*
X188090962Y-66928432D01*
X188086911Y-66925232D01*
X188063535Y-66912328D01*
X188013564Y-66861896D01*
X187998792Y-66792453D01*
X188023908Y-66726047D01*
X188051259Y-66699441D01*
X188209455Y-66586601D01*
X188209459Y-66586597D01*
X188213667Y-66583596D01*
X188373487Y-66424333D01*
X188505150Y-66241105D01*
X188605118Y-66038835D01*
X188670708Y-65822952D01*
X188679760Y-65754195D01*
X188699721Y-65602578D01*
X188699722Y-65602572D01*
X188700158Y-65599256D01*
X188701802Y-65532000D01*
X188683315Y-65307132D01*
X188628349Y-65088304D01*
X188538380Y-64881391D01*
X188439035Y-64727826D01*
X188418634Y-64696291D01*
X188418632Y-64696288D01*
X188415826Y-64691951D01*
X188263977Y-64525071D01*
X188259926Y-64521872D01*
X188259922Y-64521868D01*
X188090966Y-64388434D01*
X188090962Y-64388432D01*
X188086911Y-64385232D01*
X188063535Y-64372328D01*
X188013564Y-64321896D01*
X187998792Y-64252453D01*
X188023908Y-64186047D01*
X188051259Y-64159441D01*
X188056357Y-64155805D01*
X188099504Y-64125028D01*
X188209455Y-64046601D01*
X188209459Y-64046597D01*
X188213667Y-64043596D01*
X188373487Y-63884333D01*
X188505150Y-63701105D01*
X188605118Y-63498835D01*
X188670708Y-63282952D01*
X188681570Y-63200447D01*
X188699721Y-63062578D01*
X188699722Y-63062572D01*
X188700158Y-63059256D01*
X188701802Y-62992000D01*
X188683315Y-62767132D01*
X188628349Y-62548304D01*
X188538380Y-62341391D01*
X188449709Y-62204326D01*
X188418634Y-62156291D01*
X188418632Y-62156288D01*
X188415826Y-62151951D01*
X188263977Y-61985071D01*
X188259926Y-61981872D01*
X188259922Y-61981868D01*
X188090966Y-61848434D01*
X188090962Y-61848432D01*
X188086911Y-61845232D01*
X188080508Y-61841697D01*
X188063535Y-61832328D01*
X188013564Y-61781896D01*
X187998792Y-61712453D01*
X188023908Y-61646047D01*
X188051259Y-61619441D01*
X188073451Y-61603612D01*
X188096001Y-61587527D01*
X188209455Y-61506601D01*
X188209459Y-61506597D01*
X188213667Y-61503596D01*
X188373487Y-61344333D01*
X188505150Y-61161105D01*
X188572222Y-61025396D01*
X188602824Y-60963477D01*
X188602825Y-60963475D01*
X188605118Y-60958835D01*
X188670708Y-60742952D01*
X188678806Y-60681441D01*
X188699721Y-60522578D01*
X188699722Y-60522572D01*
X188700158Y-60519256D01*
X188701802Y-60452000D01*
X188683315Y-60227132D01*
X188628349Y-60008304D01*
X188538380Y-59801391D01*
X188488164Y-59723769D01*
X188418634Y-59616291D01*
X188418632Y-59616288D01*
X188415826Y-59611951D01*
X188263977Y-59445071D01*
X188259926Y-59441872D01*
X188259922Y-59441868D01*
X188090966Y-59308434D01*
X188090962Y-59308432D01*
X188086911Y-59305232D01*
X188063535Y-59292328D01*
X188013564Y-59241896D01*
X187998792Y-59172453D01*
X188023908Y-59106047D01*
X188051259Y-59079441D01*
X188209455Y-58966601D01*
X188209459Y-58966597D01*
X188213667Y-58963596D01*
X188373487Y-58804333D01*
X188505150Y-58621105D01*
X188605118Y-58418835D01*
X188670708Y-58202952D01*
X188677011Y-58155075D01*
X188699721Y-57982578D01*
X188699722Y-57982572D01*
X188700158Y-57979256D01*
X188700527Y-57964170D01*
X188701720Y-57915364D01*
X188701720Y-57915360D01*
X188701802Y-57912000D01*
X188683315Y-57687132D01*
X188628349Y-57468304D01*
X188538380Y-57261391D01*
X188497973Y-57198931D01*
X188418634Y-57076291D01*
X188418632Y-57076288D01*
X188415826Y-57071951D01*
X188263977Y-56905071D01*
X188259926Y-56901872D01*
X188259922Y-56901868D01*
X188090966Y-56768434D01*
X188090962Y-56768432D01*
X188086911Y-56765232D01*
X188063535Y-56752328D01*
X188013564Y-56701896D01*
X187998792Y-56632453D01*
X188023908Y-56566047D01*
X188051259Y-56539441D01*
X188209455Y-56426601D01*
X188209459Y-56426597D01*
X188213667Y-56423596D01*
X188373487Y-56264333D01*
X188505150Y-56081105D01*
X188605118Y-55878835D01*
X188670708Y-55662952D01*
X188700158Y-55439256D01*
X188701802Y-55372000D01*
X188683315Y-55147132D01*
X188628349Y-54928304D01*
X188538380Y-54721391D01*
X188433070Y-54558606D01*
X188418634Y-54536291D01*
X188418632Y-54536288D01*
X188415826Y-54531951D01*
X188263977Y-54365071D01*
X188259926Y-54361872D01*
X188259922Y-54361868D01*
X188090966Y-54228434D01*
X188090962Y-54228432D01*
X188086911Y-54225232D01*
X188063535Y-54212328D01*
X188013564Y-54161896D01*
X187998792Y-54092453D01*
X188023908Y-54026047D01*
X188051259Y-53999441D01*
X188209455Y-53886601D01*
X188209459Y-53886597D01*
X188213667Y-53883596D01*
X188373487Y-53724333D01*
X188505150Y-53541105D01*
X188571135Y-53407594D01*
X188602824Y-53343477D01*
X188602825Y-53343475D01*
X188605118Y-53338835D01*
X188670708Y-53122952D01*
X188674183Y-53096556D01*
X188699721Y-52902578D01*
X188699722Y-52902572D01*
X188700158Y-52899256D01*
X188701102Y-52860655D01*
X188701720Y-52835364D01*
X188701720Y-52835360D01*
X188701802Y-52832000D01*
X188683315Y-52607132D01*
X188628349Y-52388304D01*
X188538380Y-52181391D01*
X188489965Y-52106552D01*
X188418634Y-51996291D01*
X188418632Y-51996288D01*
X188415826Y-51991951D01*
X188263977Y-51825071D01*
X188259926Y-51821872D01*
X188259922Y-51821868D01*
X188100628Y-51696065D01*
X188059565Y-51638148D01*
X188056333Y-51567225D01*
X188091959Y-51505813D01*
X188110280Y-51491391D01*
X188198298Y-51434450D01*
X188198301Y-51434447D01*
X188202641Y-51431640D01*
X188207496Y-51427223D01*
X188373167Y-51276473D01*
X188373168Y-51276471D01*
X188376989Y-51272995D01*
X188380188Y-51268944D01*
X188380192Y-51268940D01*
X188519883Y-51092061D01*
X188519885Y-51092057D01*
X188523085Y-51088006D01*
X188637005Y-50881639D01*
X188646794Y-50853998D01*
X188713965Y-50664311D01*
X188713966Y-50664307D01*
X188715691Y-50659436D01*
X188716599Y-50654340D01*
X188756123Y-50432456D01*
X188756124Y-50432450D01*
X188757029Y-50427367D01*
X188759909Y-50191661D01*
X188724253Y-49958651D01*
X188651020Y-49734593D01*
X188573155Y-49585016D01*
X188544564Y-49530093D01*
X188544563Y-49530092D01*
X188542175Y-49525504D01*
X188523415Y-49500517D01*
X188403747Y-49341135D01*
X188403745Y-49341132D01*
X188400642Y-49337000D01*
X188230223Y-49174143D01*
X188035492Y-49041307D01*
X188030808Y-49039133D01*
X188030805Y-49039131D01*
X187826372Y-48944236D01*
X187826367Y-48944234D01*
X187821681Y-48942059D01*
X187594532Y-48879065D01*
X187589395Y-48878516D01*
X187405437Y-48858856D01*
X187405429Y-48858856D01*
X187402102Y-48858500D01*
X187265243Y-48858500D01*
X187262670Y-48858712D01*
X187262659Y-48858712D01*
X187095221Y-48872478D01*
X187095215Y-48872479D01*
X187090070Y-48872902D01*
X186861449Y-48930327D01*
X186645277Y-49024322D01*
X186447359Y-49152360D01*
X186443536Y-49155839D01*
X186443533Y-49155841D01*
X186287779Y-49297567D01*
X186273011Y-49311005D01*
X186269812Y-49315056D01*
X186269808Y-49315060D01*
X186130117Y-49491939D01*
X186126915Y-49495994D01*
X186012995Y-49702361D01*
X186011271Y-49707230D01*
X186011269Y-49707234D01*
X185947417Y-49887548D01*
X185934309Y-49924564D01*
X185933402Y-49929657D01*
X185933401Y-49929660D01*
X185904907Y-50089627D01*
X185892971Y-50156633D01*
X185892570Y-50189434D01*
X185890607Y-50350147D01*
X185890091Y-50392339D01*
X170433895Y-50392339D01*
X172790829Y-48035405D01*
X172853141Y-48001379D01*
X172879924Y-47998500D01*
X218605075Y-47998500D01*
X218673196Y-48018502D01*
X218694170Y-48035405D01*
X220569595Y-49910830D01*
X220603621Y-49973142D01*
X220606500Y-49999925D01*
X220606500Y-56680075D01*
X220586498Y-56748196D01*
X220569595Y-56769170D01*
X216499219Y-60839547D01*
X216489418Y-60848372D01*
X216458453Y-60873447D01*
X216430248Y-60907300D01*
X216426157Y-60912210D01*
X216423500Y-60915266D01*
X216421691Y-60917075D01*
X216419744Y-60919445D01*
X216419737Y-60919453D01*
X216393061Y-60951930D01*
X216392634Y-60952446D01*
X216331854Y-61025396D01*
X216330155Y-61028512D01*
X216327897Y-61031261D01*
X216305960Y-61072174D01*
X216283055Y-61114890D01*
X216282637Y-61115663D01*
X216237178Y-61199041D01*
X216236113Y-61202439D01*
X216234438Y-61205563D01*
X216232637Y-61211454D01*
X216206726Y-61296204D01*
X216206466Y-61297043D01*
X216192963Y-61340133D01*
X216178035Y-61387768D01*
X216177651Y-61391303D01*
X216176613Y-61394698D01*
X216171566Y-61444381D01*
X216167015Y-61489185D01*
X216166928Y-61490008D01*
X216156676Y-61584388D01*
X216156985Y-61587924D01*
X216156626Y-61591462D01*
X216157205Y-61597587D01*
X216157205Y-61597588D01*
X216165560Y-61685970D01*
X216165640Y-61686847D01*
X216172719Y-61767759D01*
X216173913Y-61781413D01*
X216174905Y-61784827D01*
X216175239Y-61788362D01*
X216177001Y-61794272D01*
X216177001Y-61794273D01*
X216202349Y-61879304D01*
X216202597Y-61880146D01*
X216229091Y-61971336D01*
X216230725Y-61974489D01*
X216231741Y-61977896D01*
X216234617Y-61983350D01*
X216234619Y-61983356D01*
X216276012Y-62061865D01*
X216276392Y-62062590D01*
X216320108Y-62146926D01*
X216322325Y-62149703D01*
X216323982Y-62152846D01*
X216383749Y-62226652D01*
X216384146Y-62227146D01*
X216408044Y-62257082D01*
X216416738Y-62267973D01*
X216418558Y-62269793D01*
X216421150Y-62272839D01*
X216427969Y-62281259D01*
X216448447Y-62306547D01*
X216485050Y-62337043D01*
X216485208Y-62337175D01*
X216493649Y-62344884D01*
X218108145Y-63959379D01*
X218117247Y-63969522D01*
X218140968Y-63999025D01*
X218145696Y-64002992D01*
X218179421Y-64031291D01*
X218183069Y-64034472D01*
X218184881Y-64036115D01*
X218187075Y-64038309D01*
X218220349Y-64065642D01*
X218221147Y-64066304D01*
X218292474Y-64126154D01*
X218297144Y-64128722D01*
X218301261Y-64132103D01*
X218349311Y-64157867D01*
X218383086Y-64175977D01*
X218384245Y-64176606D01*
X218460381Y-64218462D01*
X218460389Y-64218465D01*
X218465787Y-64221433D01*
X218470869Y-64223045D01*
X218475563Y-64225562D01*
X218564531Y-64252762D01*
X218565559Y-64253082D01*
X218654306Y-64281235D01*
X218659602Y-64281829D01*
X218664698Y-64283387D01*
X218757257Y-64292790D01*
X218758393Y-64292911D01*
X218792008Y-64296681D01*
X218804730Y-64298108D01*
X218804734Y-64298108D01*
X218808227Y-64298500D01*
X218811754Y-64298500D01*
X218812739Y-64298555D01*
X218818419Y-64299002D01*
X218847825Y-64301989D01*
X218855337Y-64302752D01*
X218855339Y-64302752D01*
X218861462Y-64303374D01*
X218907108Y-64299059D01*
X218918967Y-64298500D01*
X227545500Y-64298500D01*
X227613621Y-64318502D01*
X227660114Y-64372158D01*
X227671500Y-64424500D01*
X227671500Y-78854830D01*
X227671327Y-78861424D01*
X227666685Y-78950000D01*
X227666858Y-78953301D01*
X227671419Y-79040331D01*
X227671500Y-79042372D01*
X227671500Y-79043461D01*
X227671589Y-79045127D01*
X227671589Y-79045136D01*
X227676543Y-79138106D01*
X227676522Y-79138107D01*
X227676549Y-79138215D01*
X227677846Y-79162971D01*
X227685759Y-79313951D01*
X227685931Y-79317241D01*
X227686093Y-79318263D01*
X227686219Y-79319856D01*
X227686236Y-79320017D01*
X227686414Y-79323357D01*
X227686945Y-79326656D01*
X227686946Y-79326662D01*
X227702938Y-79425948D01*
X227715554Y-79504272D01*
X227717076Y-79513880D01*
X227742942Y-79677198D01*
X227742944Y-79677207D01*
X227743459Y-79680459D01*
X227744271Y-79683489D01*
X227745308Y-79689044D01*
X227745335Y-79689169D01*
X227745869Y-79692485D01*
X227793180Y-79866018D01*
X227838639Y-80035674D01*
X227839824Y-80038761D01*
X227840841Y-80041890D01*
X227840753Y-80041919D01*
X227843043Y-80048913D01*
X227844213Y-80053206D01*
X227875901Y-80134271D01*
X227908405Y-80217426D01*
X227908683Y-80218144D01*
X227913997Y-80231987D01*
X227970427Y-80378994D01*
X227972472Y-80383007D01*
X227977550Y-80394321D01*
X227979106Y-80398303D01*
X227979114Y-80398321D01*
X227980331Y-80401434D01*
X228060164Y-80555120D01*
X228060503Y-80555779D01*
X228137380Y-80706657D01*
X228141557Y-80713090D01*
X228147697Y-80723629D01*
X228151129Y-80730235D01*
X228152683Y-80733226D01*
X228225200Y-80842578D01*
X228246529Y-80874742D01*
X228247168Y-80875715D01*
X228337668Y-81015075D01*
X228344506Y-81023519D01*
X228351588Y-81033169D01*
X228357465Y-81042032D01*
X228357470Y-81042038D01*
X228359317Y-81044824D01*
X228361452Y-81047400D01*
X228361460Y-81047411D01*
X228465629Y-81173106D01*
X228466516Y-81174188D01*
X228569098Y-81300867D01*
X228579016Y-81310785D01*
X228586935Y-81319480D01*
X228595748Y-81330114D01*
X228595757Y-81330123D01*
X228597892Y-81332700D01*
X228663856Y-81396959D01*
X228714948Y-81446731D01*
X228716121Y-81447890D01*
X228829133Y-81560902D01*
X228831702Y-81562982D01*
X228842507Y-81571732D01*
X228851131Y-81579396D01*
X228863297Y-81591247D01*
X228863305Y-81591254D01*
X228865708Y-81593595D01*
X228868345Y-81595666D01*
X228991650Y-81692524D01*
X228993111Y-81693690D01*
X229112349Y-81790247D01*
X229112361Y-81790256D01*
X229114925Y-81792332D01*
X229129407Y-81801737D01*
X229132034Y-81803443D01*
X229141227Y-81810018D01*
X229159731Y-81824553D01*
X229291092Y-81906796D01*
X229292782Y-81907854D01*
X229294528Y-81908967D01*
X229423342Y-81992620D01*
X229444347Y-82003323D01*
X229453995Y-82008787D01*
X229476631Y-82022959D01*
X229614949Y-82090272D01*
X229616909Y-82091248D01*
X229751006Y-82159573D01*
X229775986Y-82169162D01*
X229785955Y-82173492D01*
X229809808Y-82185100D01*
X229809812Y-82185102D01*
X229812821Y-82186566D01*
X229815960Y-82187699D01*
X229815969Y-82187703D01*
X229954475Y-82237704D01*
X229956846Y-82238587D01*
X230091238Y-82290176D01*
X230091244Y-82290178D01*
X230094326Y-82291361D01*
X230123245Y-82299110D01*
X230133374Y-82302289D01*
X230164493Y-82313523D01*
X230167761Y-82314323D01*
X230167762Y-82314323D01*
X230307665Y-82348557D01*
X230310328Y-82349239D01*
X230449541Y-82386541D01*
X230452801Y-82387057D01*
X230452804Y-82387058D01*
X230462733Y-82388630D01*
X230482249Y-82391722D01*
X230492462Y-82393776D01*
X230527664Y-82402390D01*
X230614038Y-82413991D01*
X230670616Y-82421591D01*
X230673553Y-82422021D01*
X230695841Y-82425551D01*
X230759994Y-82455963D01*
X230797522Y-82516231D01*
X230796508Y-82587221D01*
X230757276Y-82646393D01*
X230695843Y-82674449D01*
X230449541Y-82713459D01*
X230094326Y-82808639D01*
X230091238Y-82809824D01*
X230091236Y-82809825D01*
X229971848Y-82855654D01*
X229751006Y-82940427D01*
X229748066Y-82941925D01*
X229426284Y-83105881D01*
X229426277Y-83105885D01*
X229423343Y-83107380D01*
X229420577Y-83109176D01*
X229420574Y-83109178D01*
X229216482Y-83241716D01*
X229114925Y-83307668D01*
X228829133Y-83539098D01*
X228569098Y-83799133D01*
X228337668Y-84084925D01*
X228335866Y-84087700D01*
X228145231Y-84381254D01*
X228137380Y-84393343D01*
X228135885Y-84396277D01*
X228135881Y-84396284D01*
X228000664Y-84661662D01*
X227970427Y-84721006D01*
X227923347Y-84843655D01*
X227867240Y-84989819D01*
X227838639Y-85064326D01*
X227743459Y-85419541D01*
X227685931Y-85782759D01*
X227666685Y-86150000D01*
X227685931Y-86517241D01*
X227686444Y-86520481D01*
X227686445Y-86520489D01*
X227708660Y-86660748D01*
X227743459Y-86880459D01*
X227838639Y-87235674D01*
X227970427Y-87578994D01*
X227971925Y-87581934D01*
X228135543Y-87903051D01*
X228137380Y-87906657D01*
X228139176Y-87909423D01*
X228139178Y-87909426D01*
X228164426Y-87948304D01*
X228337668Y-88215075D01*
X228569098Y-88500867D01*
X228829133Y-88760902D01*
X229114925Y-88992332D01*
X229117700Y-88994134D01*
X229408435Y-89182939D01*
X229423342Y-89192620D01*
X229426276Y-89194115D01*
X229426283Y-89194119D01*
X229748037Y-89358060D01*
X229751006Y-89359573D01*
X230094326Y-89491361D01*
X230449541Y-89586541D01*
X230642558Y-89617112D01*
X230809511Y-89643555D01*
X230809519Y-89643556D01*
X230812759Y-89644069D01*
X231180000Y-89663315D01*
X231547241Y-89644069D01*
X231550481Y-89643556D01*
X231550489Y-89643555D01*
X231717442Y-89617112D01*
X231910459Y-89586541D01*
X232265674Y-89491361D01*
X232608994Y-89359573D01*
X232611963Y-89358060D01*
X232933717Y-89194119D01*
X232933724Y-89194115D01*
X232936658Y-89192620D01*
X232951566Y-89182939D01*
X233242300Y-88994134D01*
X233245075Y-88992332D01*
X233530867Y-88760902D01*
X233790902Y-88500867D01*
X234022332Y-88215075D01*
X234195574Y-87948304D01*
X234220822Y-87909426D01*
X234220824Y-87909423D01*
X234222620Y-87906657D01*
X234224458Y-87903051D01*
X234388075Y-87581934D01*
X234389573Y-87578994D01*
X234521361Y-87235674D01*
X234616541Y-86880459D01*
X234651340Y-86660748D01*
X234673555Y-86520489D01*
X234673556Y-86520481D01*
X234674069Y-86517241D01*
X234693315Y-86150000D01*
X234674069Y-85782759D01*
X234616541Y-85419541D01*
X234521361Y-85064326D01*
X234492761Y-84989819D01*
X234436653Y-84843655D01*
X234389573Y-84721006D01*
X234359336Y-84661662D01*
X234224119Y-84396284D01*
X234224115Y-84396277D01*
X234222620Y-84393343D01*
X234214770Y-84381254D01*
X234024134Y-84087700D01*
X234022332Y-84084925D01*
X233790902Y-83799133D01*
X233530867Y-83539098D01*
X233245075Y-83307668D01*
X233141526Y-83240423D01*
X232939427Y-83109178D01*
X232939424Y-83109176D01*
X232936658Y-83107380D01*
X232933724Y-83105885D01*
X232933717Y-83105881D01*
X232611934Y-82941925D01*
X232608994Y-82940427D01*
X232388152Y-82855654D01*
X232268764Y-82809825D01*
X232268762Y-82809824D01*
X232265674Y-82808639D01*
X231910459Y-82713459D01*
X231674132Y-82676029D01*
X231609980Y-82645617D01*
X231572453Y-82585349D01*
X231573467Y-82514359D01*
X231612700Y-82455187D01*
X231670558Y-82427750D01*
X231777058Y-82407723D01*
X231780633Y-82407104D01*
X231907198Y-82387058D01*
X231907207Y-82387056D01*
X231910459Y-82386541D01*
X231913654Y-82385685D01*
X231954717Y-82374683D01*
X231964039Y-82372561D01*
X231979534Y-82369647D01*
X232012126Y-82363518D01*
X232138083Y-82325610D01*
X232141749Y-82324567D01*
X232262483Y-82292216D01*
X232262482Y-82292216D01*
X232265674Y-82291361D01*
X232268756Y-82290178D01*
X232268768Y-82290174D01*
X232311393Y-82273811D01*
X232320211Y-82270795D01*
X232370149Y-82255766D01*
X232488468Y-82205907D01*
X232492192Y-82204409D01*
X232608994Y-82159573D01*
X232622864Y-82152506D01*
X232655470Y-82135893D01*
X232663743Y-82132048D01*
X232714694Y-82110578D01*
X232717621Y-82108959D01*
X232717629Y-82108955D01*
X232824207Y-82049999D01*
X232827994Y-82047987D01*
X232933717Y-81994119D01*
X232933724Y-81994115D01*
X232936658Y-81992620D01*
X232939426Y-81990823D01*
X232939432Y-81990819D01*
X232983062Y-81962485D01*
X232990677Y-81957913D01*
X233041861Y-81929600D01*
X233044599Y-81927679D01*
X233044609Y-81927673D01*
X233141724Y-81859545D01*
X233145461Y-81857022D01*
X233242308Y-81794129D01*
X233242309Y-81794128D01*
X233245075Y-81792332D01*
X233247632Y-81790261D01*
X233247638Y-81790257D01*
X233290548Y-81755509D01*
X233297481Y-81750280D01*
X233345202Y-81716803D01*
X233345204Y-81716802D01*
X233347943Y-81714880D01*
X233437425Y-81636682D01*
X233440993Y-81633680D01*
X233530867Y-81560902D01*
X233574471Y-81517298D01*
X233580654Y-81511516D01*
X233610939Y-81485050D01*
X233629476Y-81468851D01*
X233649436Y-81447259D01*
X233707989Y-81383916D01*
X233711419Y-81380350D01*
X233790902Y-81300867D01*
X233792988Y-81298292D01*
X233831712Y-81250471D01*
X233837107Y-81244237D01*
X233880995Y-81196760D01*
X233881002Y-81196751D01*
X233883270Y-81194298D01*
X233950415Y-81104052D01*
X233953553Y-81100009D01*
X234015504Y-81023507D01*
X234020258Y-81017637D01*
X234020264Y-81017629D01*
X234022332Y-81015075D01*
X234024123Y-81012316D01*
X234024131Y-81012306D01*
X234059385Y-80958019D01*
X234063967Y-80951432D01*
X234104445Y-80897027D01*
X234106452Y-80894330D01*
X234162014Y-80800192D01*
X234164847Y-80795619D01*
X234179450Y-80773132D01*
X234222620Y-80706657D01*
X234224118Y-80703718D01*
X234254936Y-80643232D01*
X234258681Y-80636411D01*
X234296495Y-80572345D01*
X234340419Y-80475739D01*
X234342853Y-80470687D01*
X234388078Y-80381929D01*
X234388081Y-80381922D01*
X234389573Y-80378994D01*
X234416229Y-80309554D01*
X234419148Y-80302584D01*
X234451246Y-80231987D01*
X234483660Y-80134263D01*
X234485606Y-80128819D01*
X234521361Y-80035674D01*
X234541440Y-79960740D01*
X234543534Y-79953751D01*
X234568953Y-79877113D01*
X234590124Y-79779605D01*
X234591546Y-79773738D01*
X234593246Y-79767396D01*
X234616541Y-79680459D01*
X234617058Y-79677198D01*
X234629167Y-79600739D01*
X234630485Y-79593714D01*
X234647572Y-79515019D01*
X234647573Y-79515016D01*
X234648284Y-79511739D01*
X234658632Y-79415702D01*
X234659458Y-79409491D01*
X234673555Y-79320489D01*
X234673556Y-79320481D01*
X234674069Y-79317241D01*
X234678458Y-79233479D01*
X234679010Y-79226580D01*
X234679072Y-79226010D01*
X234685382Y-79167444D01*
X234688068Y-79142522D01*
X234688068Y-79142517D01*
X234688339Y-79140005D01*
X234688500Y-79134055D01*
X234688500Y-79045170D01*
X234688673Y-79038576D01*
X234693142Y-78953301D01*
X234693315Y-78950000D01*
X234688673Y-78861424D01*
X234688500Y-78854830D01*
X234688500Y-66440000D01*
X235666835Y-66440000D01*
X235685465Y-66676711D01*
X235686619Y-66681518D01*
X235686620Y-66681524D01*
X235708737Y-66773645D01*
X235740895Y-66907594D01*
X235742788Y-66912165D01*
X235742789Y-66912167D01*
X235811877Y-67078960D01*
X235831760Y-67126963D01*
X235834346Y-67131183D01*
X235953241Y-67325202D01*
X235953245Y-67325208D01*
X235955824Y-67329416D01*
X236110031Y-67509969D01*
X236290584Y-67664176D01*
X236294792Y-67666755D01*
X236294798Y-67666759D01*
X236474675Y-67776988D01*
X236493037Y-67788240D01*
X236497607Y-67790133D01*
X236497611Y-67790135D01*
X236707833Y-67877211D01*
X236712406Y-67879105D01*
X236792609Y-67898360D01*
X236938476Y-67933380D01*
X236938482Y-67933381D01*
X236943289Y-67934535D01*
X237180000Y-67953165D01*
X237416711Y-67934535D01*
X237421518Y-67933381D01*
X237421524Y-67933380D01*
X237567391Y-67898360D01*
X237647594Y-67879105D01*
X237652167Y-67877211D01*
X237862389Y-67790135D01*
X237862393Y-67790133D01*
X237866963Y-67788240D01*
X237885325Y-67776988D01*
X238065202Y-67666759D01*
X238065208Y-67666755D01*
X238069416Y-67664176D01*
X238249969Y-67509969D01*
X238404176Y-67329416D01*
X238406755Y-67325208D01*
X238406759Y-67325202D01*
X238525654Y-67131183D01*
X238528240Y-67126963D01*
X238548124Y-67078960D01*
X238617211Y-66912167D01*
X238617212Y-66912165D01*
X238619105Y-66907594D01*
X238651263Y-66773645D01*
X238673380Y-66681524D01*
X238673381Y-66681518D01*
X238674535Y-66676711D01*
X238693165Y-66440000D01*
X238674535Y-66203289D01*
X238671387Y-66190173D01*
X238635053Y-66038835D01*
X238619105Y-65972406D01*
X238617211Y-65967833D01*
X238530135Y-65757611D01*
X238530133Y-65757607D01*
X238528240Y-65753037D01*
X238513305Y-65728666D01*
X238406759Y-65554798D01*
X238406755Y-65554792D01*
X238404176Y-65550584D01*
X238249969Y-65370031D01*
X238069416Y-65215824D01*
X238065208Y-65213245D01*
X238065202Y-65213241D01*
X237871183Y-65094346D01*
X237866963Y-65091760D01*
X237862393Y-65089867D01*
X237862389Y-65089865D01*
X237652167Y-65002789D01*
X237652165Y-65002788D01*
X237647594Y-65000895D01*
X237567391Y-64981640D01*
X237421524Y-64946620D01*
X237421518Y-64946619D01*
X237416711Y-64945465D01*
X237180000Y-64926835D01*
X236943289Y-64945465D01*
X236938482Y-64946619D01*
X236938476Y-64946620D01*
X236792609Y-64981640D01*
X236712406Y-65000895D01*
X236707835Y-65002788D01*
X236707833Y-65002789D01*
X236497611Y-65089865D01*
X236497607Y-65089867D01*
X236493037Y-65091760D01*
X236488817Y-65094346D01*
X236294798Y-65213241D01*
X236294792Y-65213245D01*
X236290584Y-65215824D01*
X236110031Y-65370031D01*
X235955824Y-65550584D01*
X235953245Y-65554792D01*
X235953241Y-65554798D01*
X235846695Y-65728666D01*
X235831760Y-65753037D01*
X235829867Y-65757607D01*
X235829865Y-65757611D01*
X235742789Y-65967833D01*
X235740895Y-65972406D01*
X235724947Y-66038835D01*
X235688614Y-66190173D01*
X235685465Y-66203289D01*
X235666835Y-66440000D01*
X234688500Y-66440000D01*
X234688500Y-63385170D01*
X234688673Y-63378576D01*
X234693142Y-63293301D01*
X234693315Y-63290000D01*
X234688581Y-63199667D01*
X234688500Y-63197628D01*
X234688500Y-63196539D01*
X234687812Y-63183614D01*
X234683457Y-63101894D01*
X234683478Y-63101893D01*
X234683451Y-63101784D01*
X234681397Y-63062578D01*
X234674069Y-62922759D01*
X234673907Y-62921737D01*
X234673781Y-62920144D01*
X234673764Y-62919983D01*
X234673586Y-62916643D01*
X234670906Y-62900000D01*
X234644446Y-62735728D01*
X234644394Y-62735401D01*
X234617058Y-62562802D01*
X234617056Y-62562793D01*
X234616541Y-62559541D01*
X234615729Y-62556511D01*
X234614692Y-62550956D01*
X234614665Y-62550831D01*
X234614131Y-62547515D01*
X234566820Y-62373982D01*
X234521361Y-62204326D01*
X234520175Y-62201236D01*
X234519159Y-62198110D01*
X234519247Y-62198081D01*
X234516956Y-62191083D01*
X234516669Y-62190030D01*
X234515787Y-62186794D01*
X234451595Y-62022574D01*
X234451317Y-62021856D01*
X234390756Y-61864088D01*
X234389573Y-61861006D01*
X234387528Y-61856993D01*
X234382450Y-61845679D01*
X234380894Y-61841697D01*
X234380886Y-61841679D01*
X234379669Y-61838566D01*
X234299836Y-61684880D01*
X234299497Y-61684221D01*
X234222620Y-61533343D01*
X234218443Y-61526910D01*
X234212303Y-61516371D01*
X234208871Y-61509765D01*
X234208868Y-61509760D01*
X234207317Y-61506774D01*
X234113447Y-61365221D01*
X234112807Y-61364246D01*
X234102625Y-61348566D01*
X234022332Y-61224925D01*
X234015494Y-61216481D01*
X234008412Y-61206831D01*
X234002535Y-61197968D01*
X234002530Y-61197962D01*
X234000683Y-61195176D01*
X233998548Y-61192600D01*
X233998540Y-61192589D01*
X233894371Y-61066894D01*
X233893465Y-61065788D01*
X233869905Y-61036693D01*
X233790902Y-60939133D01*
X233780984Y-60929215D01*
X233773065Y-60920520D01*
X233764252Y-60909886D01*
X233764243Y-60909877D01*
X233762108Y-60907300D01*
X233645052Y-60793269D01*
X233643879Y-60792110D01*
X233530867Y-60679098D01*
X233517493Y-60668268D01*
X233508869Y-60660604D01*
X233496703Y-60648753D01*
X233496695Y-60648746D01*
X233494292Y-60646405D01*
X233439429Y-60603310D01*
X233368350Y-60547476D01*
X233366889Y-60546310D01*
X233247651Y-60449753D01*
X233247637Y-60449743D01*
X233245075Y-60447668D01*
X233227966Y-60436557D01*
X233218773Y-60429982D01*
X233200269Y-60415447D01*
X233067204Y-60332137D01*
X233065457Y-60331023D01*
X232936658Y-60247380D01*
X232915653Y-60236677D01*
X232906002Y-60231211D01*
X232883369Y-60217041D01*
X232745051Y-60149728D01*
X232743091Y-60148752D01*
X232608994Y-60080427D01*
X232584014Y-60070838D01*
X232574045Y-60066508D01*
X232550192Y-60054900D01*
X232550188Y-60054898D01*
X232547179Y-60053434D01*
X232544040Y-60052301D01*
X232544031Y-60052297D01*
X232422168Y-60008304D01*
X232405514Y-60002292D01*
X232403154Y-60001413D01*
X232268762Y-59949824D01*
X232268756Y-59949822D01*
X232265674Y-59948639D01*
X232236755Y-59940890D01*
X232226626Y-59937711D01*
X232195507Y-59926477D01*
X232148364Y-59914941D01*
X232052335Y-59891443D01*
X232049672Y-59890761D01*
X232035775Y-59887037D01*
X231910459Y-59853459D01*
X231907199Y-59852943D01*
X231907196Y-59852942D01*
X231897267Y-59851370D01*
X231877751Y-59848278D01*
X231867538Y-59846224D01*
X231832336Y-59837610D01*
X231745962Y-59826009D01*
X231689384Y-59818409D01*
X231686447Y-59817979D01*
X231664159Y-59814449D01*
X231600006Y-59784037D01*
X231562478Y-59723769D01*
X231563492Y-59652779D01*
X231602724Y-59593607D01*
X231664157Y-59565551D01*
X231910459Y-59526541D01*
X232265674Y-59431361D01*
X232278872Y-59426295D01*
X232585910Y-59308434D01*
X232608994Y-59299573D01*
X232722192Y-59241896D01*
X232933717Y-59134119D01*
X232933724Y-59134115D01*
X232936658Y-59132620D01*
X233245075Y-58932332D01*
X233530867Y-58700902D01*
X233790902Y-58440867D01*
X234022332Y-58155075D01*
X234177756Y-57915742D01*
X234220822Y-57849426D01*
X234220824Y-57849423D01*
X234222620Y-57846657D01*
X234230127Y-57831925D01*
X234388075Y-57521934D01*
X234389573Y-57518994D01*
X234490126Y-57257043D01*
X234520175Y-57178764D01*
X234520176Y-57178762D01*
X234521361Y-57175674D01*
X234616541Y-56820459D01*
X234665577Y-56510859D01*
X234673555Y-56460489D01*
X234673556Y-56460481D01*
X234674069Y-56457241D01*
X234693315Y-56090000D01*
X234674069Y-55722759D01*
X234667205Y-55679417D01*
X234647112Y-55552558D01*
X234616541Y-55359541D01*
X234521361Y-55004326D01*
X234512912Y-54982314D01*
X234414576Y-54726141D01*
X234389573Y-54661006D01*
X234341745Y-54567139D01*
X234224119Y-54336284D01*
X234224115Y-54336277D01*
X234222620Y-54333343D01*
X234219749Y-54328921D01*
X234034977Y-54044397D01*
X234022332Y-54024925D01*
X233790902Y-53739133D01*
X233530867Y-53479098D01*
X233245075Y-53247668D01*
X232997392Y-53086821D01*
X232939427Y-53049178D01*
X232939424Y-53049176D01*
X232936658Y-53047380D01*
X232933724Y-53045885D01*
X232933717Y-53045881D01*
X232725913Y-52940000D01*
X235666835Y-52940000D01*
X235685465Y-53176711D01*
X235686619Y-53181518D01*
X235686620Y-53181524D01*
X235704684Y-53256764D01*
X235740895Y-53407594D01*
X235742788Y-53412165D01*
X235742789Y-53412167D01*
X235827748Y-53617276D01*
X235831760Y-53626963D01*
X235834346Y-53631183D01*
X235953241Y-53825202D01*
X235953245Y-53825208D01*
X235955824Y-53829416D01*
X236110031Y-54009969D01*
X236290584Y-54164176D01*
X236294792Y-54166755D01*
X236294798Y-54166759D01*
X236429336Y-54249204D01*
X236493037Y-54288240D01*
X236497607Y-54290133D01*
X236497611Y-54290135D01*
X236707833Y-54377211D01*
X236712406Y-54379105D01*
X236787107Y-54397039D01*
X236938476Y-54433380D01*
X236938482Y-54433381D01*
X236943289Y-54434535D01*
X237180000Y-54453165D01*
X237416711Y-54434535D01*
X237421518Y-54433381D01*
X237421524Y-54433380D01*
X237572893Y-54397039D01*
X237647594Y-54379105D01*
X237652167Y-54377211D01*
X237862389Y-54290135D01*
X237862393Y-54290133D01*
X237866963Y-54288240D01*
X237930664Y-54249204D01*
X238065202Y-54166759D01*
X238065208Y-54166755D01*
X238069416Y-54164176D01*
X238249969Y-54009969D01*
X238404176Y-53829416D01*
X238406755Y-53825208D01*
X238406759Y-53825202D01*
X238525654Y-53631183D01*
X238528240Y-53626963D01*
X238532253Y-53617276D01*
X238617211Y-53412167D01*
X238617212Y-53412165D01*
X238619105Y-53407594D01*
X238655316Y-53256764D01*
X238673380Y-53181524D01*
X238673381Y-53181518D01*
X238674535Y-53176711D01*
X238693165Y-52940000D01*
X238674535Y-52703289D01*
X238662778Y-52654314D01*
X238620260Y-52477218D01*
X238619105Y-52472406D01*
X238584269Y-52388304D01*
X238530135Y-52257611D01*
X238530133Y-52257607D01*
X238528240Y-52253037D01*
X238476010Y-52167806D01*
X238406759Y-52054798D01*
X238406755Y-52054792D01*
X238404176Y-52050584D01*
X238249969Y-51870031D01*
X238069416Y-51715824D01*
X238065208Y-51713245D01*
X238065202Y-51713241D01*
X237871183Y-51594346D01*
X237866963Y-51591760D01*
X237862393Y-51589867D01*
X237862389Y-51589865D01*
X237652167Y-51502789D01*
X237652165Y-51502788D01*
X237647594Y-51500895D01*
X237567391Y-51481640D01*
X237421524Y-51446620D01*
X237421518Y-51446619D01*
X237416711Y-51445465D01*
X237180000Y-51426835D01*
X236943289Y-51445465D01*
X236938482Y-51446619D01*
X236938476Y-51446620D01*
X236792609Y-51481640D01*
X236712406Y-51500895D01*
X236707835Y-51502788D01*
X236707833Y-51502789D01*
X236497611Y-51589865D01*
X236497607Y-51589867D01*
X236493037Y-51591760D01*
X236488817Y-51594346D01*
X236294798Y-51713241D01*
X236294792Y-51713245D01*
X236290584Y-51715824D01*
X236110031Y-51870031D01*
X235955824Y-52050584D01*
X235953245Y-52054792D01*
X235953241Y-52054798D01*
X235883990Y-52167806D01*
X235831760Y-52253037D01*
X235829867Y-52257607D01*
X235829865Y-52257611D01*
X235775731Y-52388304D01*
X235740895Y-52472406D01*
X235739740Y-52477218D01*
X235697223Y-52654314D01*
X235685465Y-52703289D01*
X235666835Y-52940000D01*
X232725913Y-52940000D01*
X232611934Y-52881925D01*
X232608994Y-52880427D01*
X232303018Y-52762974D01*
X232268764Y-52749825D01*
X232268762Y-52749824D01*
X232265674Y-52748639D01*
X231910459Y-52653459D01*
X231717442Y-52622888D01*
X231550489Y-52596445D01*
X231550481Y-52596444D01*
X231547241Y-52595931D01*
X231180000Y-52576685D01*
X230812759Y-52595931D01*
X230809519Y-52596444D01*
X230809511Y-52596445D01*
X230642558Y-52622888D01*
X230449541Y-52653459D01*
X230094326Y-52748639D01*
X230091238Y-52749824D01*
X230091236Y-52749825D01*
X230056982Y-52762974D01*
X229751006Y-52880427D01*
X229748066Y-52881925D01*
X229426284Y-53045881D01*
X229426277Y-53045885D01*
X229423343Y-53047380D01*
X229420577Y-53049176D01*
X229420574Y-53049178D01*
X229233889Y-53170412D01*
X229114925Y-53247668D01*
X228829133Y-53479098D01*
X228569098Y-53739133D01*
X228337668Y-54024925D01*
X228325023Y-54044397D01*
X228140252Y-54328921D01*
X228137380Y-54333343D01*
X228135885Y-54336277D01*
X228135881Y-54336284D01*
X228018255Y-54567139D01*
X227970427Y-54661006D01*
X227945424Y-54726141D01*
X227847089Y-54982314D01*
X227838639Y-55004326D01*
X227743459Y-55359541D01*
X227712888Y-55552558D01*
X227692796Y-55679417D01*
X227685931Y-55722759D01*
X227666685Y-56090000D01*
X227685931Y-56457241D01*
X227686444Y-56460481D01*
X227686445Y-56460489D01*
X227694423Y-56510859D01*
X227743459Y-56820459D01*
X227838639Y-57175674D01*
X227839824Y-57178762D01*
X227839825Y-57178764D01*
X227869874Y-57257043D01*
X227970427Y-57518994D01*
X227971925Y-57521934D01*
X228129874Y-57831925D01*
X228137380Y-57846657D01*
X228139176Y-57849423D01*
X228139178Y-57849426D01*
X228182244Y-57915742D01*
X228337668Y-58155075D01*
X228569098Y-58440867D01*
X228829133Y-58700902D01*
X229114925Y-58932332D01*
X229423342Y-59132620D01*
X229426276Y-59134115D01*
X229426283Y-59134119D01*
X229637808Y-59241896D01*
X229751006Y-59299573D01*
X229774090Y-59308434D01*
X230081129Y-59426295D01*
X230094326Y-59431361D01*
X230449541Y-59526541D01*
X230685868Y-59563971D01*
X230750020Y-59594383D01*
X230787547Y-59654651D01*
X230786533Y-59725641D01*
X230747300Y-59784813D01*
X230689442Y-59812250D01*
X230582942Y-59832277D01*
X230579367Y-59832896D01*
X230452802Y-59852942D01*
X230452793Y-59852944D01*
X230449541Y-59853459D01*
X230446348Y-59854315D01*
X230446346Y-59854315D01*
X230405283Y-59865317D01*
X230395961Y-59867439D01*
X230380466Y-59870353D01*
X230347874Y-59876482D01*
X230221917Y-59914390D01*
X230218253Y-59915432D01*
X230094326Y-59948639D01*
X230091244Y-59949822D01*
X230091232Y-59949826D01*
X230048607Y-59966189D01*
X230039789Y-59969205D01*
X229989851Y-59984234D01*
X229871532Y-60034093D01*
X229867808Y-60035591D01*
X229751006Y-60080427D01*
X229704525Y-60104110D01*
X229696275Y-60107944D01*
X229676571Y-60116247D01*
X229648390Y-60128122D01*
X229648384Y-60128125D01*
X229645306Y-60129422D01*
X229642374Y-60131044D01*
X229535786Y-60190005D01*
X229531999Y-60192017D01*
X229426284Y-60245881D01*
X229426277Y-60245885D01*
X229423343Y-60247380D01*
X229420575Y-60249177D01*
X229420569Y-60249181D01*
X229391719Y-60267917D01*
X229381650Y-60274456D01*
X229376944Y-60277512D01*
X229369329Y-60282083D01*
X229318139Y-60310400D01*
X229315393Y-60312327D01*
X229315392Y-60312327D01*
X229218272Y-60380458D01*
X229214535Y-60382981D01*
X229132035Y-60436557D01*
X229114925Y-60447668D01*
X229112368Y-60449739D01*
X229112362Y-60449743D01*
X229069452Y-60484491D01*
X229062519Y-60489720D01*
X229015681Y-60522578D01*
X229012057Y-60525120D01*
X229009537Y-60527322D01*
X229009536Y-60527323D01*
X228922584Y-60603310D01*
X228919007Y-60606320D01*
X228829133Y-60679098D01*
X228785529Y-60722702D01*
X228779347Y-60728484D01*
X228730524Y-60771149D01*
X228728249Y-60773610D01*
X228728246Y-60773613D01*
X228652011Y-60856084D01*
X228648581Y-60859650D01*
X228569098Y-60939133D01*
X228567026Y-60941692D01*
X228567023Y-60941695D01*
X228528288Y-60989529D01*
X228522893Y-60995763D01*
X228479005Y-61043240D01*
X228478998Y-61043249D01*
X228476730Y-61045702D01*
X228409585Y-61135948D01*
X228406447Y-61139991D01*
X228393103Y-61156469D01*
X228339742Y-61222363D01*
X228339736Y-61222371D01*
X228337668Y-61224925D01*
X228335877Y-61227684D01*
X228335869Y-61227694D01*
X228300615Y-61281981D01*
X228296033Y-61288568D01*
X228253548Y-61345670D01*
X228197991Y-61439800D01*
X228195157Y-61444374D01*
X228137380Y-61533343D01*
X228135887Y-61536274D01*
X228135886Y-61536275D01*
X228129975Y-61547876D01*
X228105236Y-61596431D01*
X228105064Y-61596768D01*
X228101319Y-61603589D01*
X228063505Y-61667655D01*
X228062117Y-61670708D01*
X228019581Y-61764261D01*
X228017147Y-61769313D01*
X227976833Y-61848434D01*
X227970427Y-61861006D01*
X227969248Y-61864078D01*
X227969246Y-61864082D01*
X227943774Y-61930439D01*
X227940852Y-61937416D01*
X227908754Y-62008013D01*
X227876564Y-62105064D01*
X227876343Y-62105729D01*
X227874389Y-62111195D01*
X227840049Y-62200654D01*
X227796963Y-62257082D01*
X227730210Y-62281259D01*
X227722418Y-62281500D01*
X219334925Y-62281500D01*
X219266804Y-62261498D01*
X219245830Y-62244595D01*
X218685330Y-61684095D01*
X218651304Y-61621783D01*
X218656369Y-61550968D01*
X218685330Y-61505905D01*
X222284379Y-57906855D01*
X222294522Y-57897753D01*
X222319218Y-57877897D01*
X222324025Y-57874032D01*
X222356320Y-57835544D01*
X222359478Y-57831925D01*
X222361124Y-57830110D01*
X222363309Y-57827925D01*
X222365264Y-57825545D01*
X222365273Y-57825535D01*
X222390549Y-57794764D01*
X222391391Y-57793749D01*
X222447194Y-57727245D01*
X222451154Y-57722526D01*
X222453723Y-57717852D01*
X222457102Y-57713739D01*
X222500975Y-57631915D01*
X222501584Y-57630793D01*
X222543464Y-57554614D01*
X222543465Y-57554612D01*
X222546433Y-57549213D01*
X222548045Y-57544131D01*
X222550562Y-57539437D01*
X222577762Y-57450469D01*
X222578108Y-57449358D01*
X222580577Y-57441577D01*
X222606235Y-57360694D01*
X222606829Y-57355398D01*
X222608387Y-57350302D01*
X222617790Y-57257743D01*
X222617911Y-57256607D01*
X222623500Y-57206773D01*
X222623500Y-57203246D01*
X222623555Y-57202261D01*
X222624002Y-57196581D01*
X222628374Y-57153538D01*
X222624059Y-57107891D01*
X222623500Y-57096033D01*
X222623500Y-49591840D01*
X222624237Y-49578232D01*
X222627659Y-49546736D01*
X222627659Y-49546732D01*
X222628324Y-49540611D01*
X222626749Y-49522611D01*
X222623950Y-49490609D01*
X222623621Y-49485784D01*
X222623500Y-49483313D01*
X222623500Y-49480231D01*
X222619309Y-49437489D01*
X222619187Y-49436174D01*
X222611623Y-49349719D01*
X222611087Y-49343587D01*
X222609600Y-49338468D01*
X222609080Y-49333167D01*
X222582199Y-49244133D01*
X222581864Y-49243000D01*
X222557627Y-49159578D01*
X222557625Y-49159574D01*
X222555908Y-49153663D01*
X222553457Y-49148934D01*
X222551916Y-49143831D01*
X222508230Y-49061669D01*
X222507683Y-49060627D01*
X222467728Y-48983545D01*
X222467727Y-48983544D01*
X222464892Y-48978074D01*
X222461569Y-48973911D01*
X222459066Y-48969204D01*
X222451944Y-48960471D01*
X222400263Y-48897105D01*
X222399500Y-48896160D01*
X222368261Y-48857027D01*
X222365770Y-48854536D01*
X222365120Y-48853809D01*
X222361408Y-48849463D01*
X222337955Y-48820708D01*
X222334065Y-48815938D01*
X222329323Y-48812015D01*
X222329321Y-48812013D01*
X222298727Y-48786703D01*
X222289947Y-48778713D01*
X220479199Y-46967965D01*
X231575905Y-46967965D01*
X231576152Y-46972249D01*
X231576152Y-46972250D01*
X231577319Y-46992485D01*
X231592382Y-47253727D01*
X231593207Y-47257932D01*
X231593208Y-47257940D01*
X231611587Y-47351615D01*
X231647489Y-47534610D01*
X231740206Y-47805414D01*
X231772548Y-47869718D01*
X231855880Y-48035405D01*
X231868818Y-48061130D01*
X232030944Y-48297025D01*
X232223585Y-48508735D01*
X232277402Y-48553733D01*
X232439884Y-48689590D01*
X232439889Y-48689594D01*
X232443176Y-48692342D01*
X232564415Y-48768395D01*
X232682014Y-48842165D01*
X232682018Y-48842167D01*
X232685654Y-48844448D01*
X232689564Y-48846213D01*
X232689565Y-48846214D01*
X232716776Y-48858500D01*
X232946531Y-48962238D01*
X232970048Y-48969204D01*
X233216868Y-49042316D01*
X233216873Y-49042317D01*
X233220981Y-49043534D01*
X233225215Y-49044182D01*
X233225220Y-49044183D01*
X233499682Y-49086181D01*
X233499684Y-49086181D01*
X233503924Y-49086830D01*
X233649647Y-49089119D01*
X233785835Y-49091259D01*
X233785841Y-49091259D01*
X233790126Y-49091326D01*
X234074290Y-49056939D01*
X234351157Y-48984304D01*
X234615606Y-48874766D01*
X234862741Y-48730351D01*
X235087991Y-48553733D01*
X235287187Y-48348179D01*
X235289720Y-48344731D01*
X235289724Y-48344726D01*
X235454105Y-48120947D01*
X235456643Y-48117492D01*
X235489325Y-48057299D01*
X235591174Y-47869718D01*
X235591175Y-47869716D01*
X235593224Y-47865942D01*
X235694401Y-47598184D01*
X235732779Y-47430620D01*
X235757347Y-47323351D01*
X235757348Y-47323346D01*
X235758304Y-47319171D01*
X235783749Y-47034067D01*
X235784210Y-46990000D01*
X235764742Y-46704426D01*
X235763875Y-46700240D01*
X235763874Y-46700232D01*
X235707566Y-46428338D01*
X235706696Y-46424136D01*
X235611148Y-46154317D01*
X235519738Y-45977213D01*
X235481831Y-45903769D01*
X235481831Y-45903768D01*
X235479866Y-45899962D01*
X235469325Y-45884963D01*
X235317745Y-45669288D01*
X235317744Y-45669287D01*
X235315278Y-45665778D01*
X235120431Y-45456097D01*
X234898929Y-45274800D01*
X234654872Y-45125242D01*
X234650936Y-45123514D01*
X234396704Y-45011913D01*
X234396700Y-45011912D01*
X234392776Y-45010189D01*
X234117490Y-44931772D01*
X234113248Y-44931168D01*
X234113242Y-44931167D01*
X233838360Y-44892046D01*
X233834109Y-44891441D01*
X233683285Y-44890651D01*
X233552162Y-44889964D01*
X233552155Y-44889964D01*
X233547876Y-44889942D01*
X233543631Y-44890501D01*
X233543629Y-44890501D01*
X233480223Y-44898849D01*
X233264087Y-44927304D01*
X232987996Y-45002834D01*
X232724709Y-45115135D01*
X232479099Y-45262130D01*
X232255711Y-45441097D01*
X232058678Y-45648726D01*
X231891647Y-45881174D01*
X231757709Y-46134141D01*
X231756237Y-46138164D01*
X231756235Y-46138168D01*
X231694721Y-46306262D01*
X231659340Y-46402944D01*
X231598363Y-46682611D01*
X231576403Y-46961642D01*
X231575905Y-46967965D01*
X220479199Y-46967965D01*
X219831855Y-46320621D01*
X219822753Y-46310478D01*
X219802897Y-46285782D01*
X219799032Y-46280975D01*
X219760578Y-46248708D01*
X219756931Y-46245528D01*
X219755119Y-46243885D01*
X219752925Y-46241691D01*
X219719651Y-46214358D01*
X219718853Y-46213696D01*
X219647526Y-46153846D01*
X219642856Y-46151278D01*
X219638739Y-46147897D01*
X219556914Y-46104023D01*
X219555755Y-46103394D01*
X219479619Y-46061538D01*
X219479611Y-46061535D01*
X219474213Y-46058567D01*
X219469131Y-46056955D01*
X219464437Y-46054438D01*
X219375469Y-46027238D01*
X219374441Y-46026918D01*
X219285694Y-45998765D01*
X219280398Y-45998171D01*
X219275302Y-45996613D01*
X219182743Y-45987210D01*
X219181607Y-45987089D01*
X219147992Y-45983319D01*
X219135270Y-45981892D01*
X219135266Y-45981892D01*
X219131773Y-45981500D01*
X219128246Y-45981500D01*
X219127261Y-45981445D01*
X219121581Y-45980998D01*
X219092175Y-45978011D01*
X219084663Y-45977248D01*
X219084661Y-45977248D01*
X219078538Y-45976626D01*
X219036259Y-45980623D01*
X219032891Y-45980941D01*
X219021033Y-45981500D01*
X172471842Y-45981500D01*
X172458235Y-45980763D01*
X172426737Y-45977341D01*
X172426732Y-45977341D01*
X172420611Y-45976676D01*
X172402611Y-45978251D01*
X172370609Y-45981050D01*
X172365784Y-45981379D01*
X172363313Y-45981500D01*
X172360231Y-45981500D01*
X172337763Y-45983703D01*
X172317489Y-45985691D01*
X172316174Y-45985813D01*
X172283913Y-45988636D01*
X172223587Y-45993913D01*
X172218468Y-45995400D01*
X172213167Y-45995920D01*
X172207262Y-45997703D01*
X172207261Y-45997703D01*
X172187907Y-46003546D01*
X172124194Y-46022782D01*
X172123054Y-46023120D01*
X172033663Y-46049091D01*
X172028929Y-46051545D01*
X172023831Y-46053084D01*
X172018387Y-46055978D01*
X172018386Y-46055979D01*
X171941831Y-46096684D01*
X171940663Y-46097298D01*
X171869586Y-46134141D01*
X171858074Y-46140108D01*
X171853911Y-46143431D01*
X171849204Y-46145934D01*
X171777082Y-46204755D01*
X171776226Y-46205446D01*
X171737027Y-46236738D01*
X171734523Y-46239242D01*
X171733805Y-46239884D01*
X171729472Y-46243585D01*
X171695938Y-46270935D01*
X171692011Y-46275682D01*
X171692009Y-46275684D01*
X171666713Y-46306262D01*
X171658723Y-46315042D01*
X164722551Y-53251215D01*
X157806386Y-60167380D01*
X157744074Y-60201406D01*
X157728276Y-60203805D01*
X157637556Y-60211742D01*
X157497832Y-60249181D01*
X157417484Y-60270710D01*
X157417482Y-60270711D01*
X157412174Y-60272133D01*
X157407194Y-60274455D01*
X157407192Y-60274456D01*
X157205690Y-60368418D01*
X157205685Y-60368421D01*
X157200703Y-60370744D01*
X157196196Y-60373900D01*
X157196194Y-60373901D01*
X157014079Y-60501419D01*
X157014076Y-60501421D01*
X157009568Y-60504578D01*
X156844578Y-60669568D01*
X156841421Y-60674076D01*
X156841419Y-60674079D01*
X156719378Y-60848372D01*
X156710744Y-60860703D01*
X156708421Y-60865685D01*
X156708418Y-60865690D01*
X156628678Y-61036693D01*
X156612133Y-61072174D01*
X156610711Y-61077482D01*
X156610710Y-61077484D01*
X156571890Y-61222363D01*
X156551742Y-61297556D01*
X156531406Y-61530000D01*
X156551742Y-61762444D01*
X156553166Y-61767757D01*
X156553166Y-61767759D01*
X156608774Y-61975292D01*
X156607084Y-62046269D01*
X156567290Y-62105064D01*
X156502025Y-62133012D01*
X156432012Y-62121238D01*
X156383855Y-62080175D01*
X156355422Y-62039568D01*
X156190432Y-61874578D01*
X156185924Y-61871421D01*
X156185921Y-61871419D01*
X156003806Y-61743901D01*
X156003804Y-61743900D01*
X155999297Y-61740744D01*
X155994315Y-61738421D01*
X155994310Y-61738418D01*
X155792808Y-61644456D01*
X155792806Y-61644455D01*
X155787826Y-61642133D01*
X155782518Y-61640711D01*
X155782516Y-61640710D01*
X155567759Y-61583166D01*
X155567757Y-61583166D01*
X155562444Y-61581742D01*
X155330000Y-61561406D01*
X155097556Y-61581742D01*
X155092243Y-61583166D01*
X155092241Y-61583166D01*
X154877484Y-61640710D01*
X154877482Y-61640711D01*
X154872174Y-61642133D01*
X154867194Y-61644455D01*
X154867192Y-61644456D01*
X154665690Y-61738418D01*
X154665685Y-61738421D01*
X154660703Y-61740744D01*
X154656196Y-61743900D01*
X154656194Y-61743901D01*
X154474079Y-61871419D01*
X154474076Y-61871421D01*
X154469568Y-61874578D01*
X154304578Y-62039568D01*
X154301421Y-62044076D01*
X154301419Y-62044079D01*
X154189577Y-62203806D01*
X154170744Y-62230703D01*
X154168421Y-62235685D01*
X154168418Y-62235690D01*
X154096261Y-62390432D01*
X154072133Y-62442174D01*
X154070711Y-62447482D01*
X154070710Y-62447484D01*
X154039811Y-62562802D01*
X154011742Y-62667556D01*
X153991406Y-62900000D01*
X154011742Y-63132444D01*
X154013166Y-63137757D01*
X154013166Y-63137759D01*
X154068877Y-63345673D01*
X154072133Y-63357826D01*
X154074455Y-63362806D01*
X154074456Y-63362808D01*
X154168418Y-63564310D01*
X154168421Y-63564315D01*
X154170744Y-63569297D01*
X154173900Y-63573804D01*
X154173901Y-63573806D01*
X154259791Y-63696469D01*
X154304578Y-63760432D01*
X154469568Y-63925422D01*
X154474076Y-63928579D01*
X154474079Y-63928581D01*
X154656194Y-64056099D01*
X154660703Y-64059256D01*
X154665685Y-64061579D01*
X154665690Y-64061582D01*
X154867752Y-64155805D01*
X154921037Y-64202723D01*
X154940498Y-64271000D01*
X154919956Y-64338960D01*
X154867752Y-64384195D01*
X154665690Y-64478418D01*
X154665685Y-64478421D01*
X154660703Y-64480744D01*
X154656196Y-64483900D01*
X154656194Y-64483901D01*
X154474079Y-64611419D01*
X154474076Y-64611421D01*
X154469568Y-64614578D01*
X154304578Y-64779568D01*
X154301421Y-64784076D01*
X154301419Y-64784079D01*
X154189577Y-64943806D01*
X154170744Y-64970703D01*
X154168421Y-64975685D01*
X154168418Y-64975690D01*
X154074456Y-65177192D01*
X154072133Y-65182174D01*
X154070711Y-65187482D01*
X154070710Y-65187484D01*
X154037268Y-65312293D01*
X154011742Y-65407556D01*
X153991406Y-65640000D01*
X154011742Y-65872444D01*
X154013166Y-65877757D01*
X154013166Y-65877759D01*
X154068775Y-66085292D01*
X154072133Y-66097826D01*
X154074455Y-66102806D01*
X154074456Y-66102808D01*
X154168418Y-66304310D01*
X154168421Y-66304315D01*
X154170744Y-66309297D01*
X154173900Y-66313804D01*
X154173901Y-66313806D01*
X154253847Y-66427980D01*
X154304578Y-66500432D01*
X154469568Y-66665422D01*
X154474076Y-66668579D01*
X154474079Y-66668581D01*
X154629712Y-66777556D01*
X154660703Y-66799256D01*
X154665685Y-66801579D01*
X154665690Y-66801582D01*
X154867752Y-66895805D01*
X154921037Y-66942723D01*
X154940498Y-67011000D01*
X154919956Y-67078960D01*
X154867752Y-67124195D01*
X154665690Y-67218418D01*
X154665685Y-67218421D01*
X154660703Y-67220744D01*
X154656196Y-67223900D01*
X154656194Y-67223901D01*
X154474079Y-67351419D01*
X154474076Y-67351421D01*
X154469568Y-67354578D01*
X154304578Y-67519568D01*
X154301421Y-67524076D01*
X154301419Y-67524079D01*
X154189577Y-67683806D01*
X154170744Y-67710703D01*
X154168421Y-67715685D01*
X154168418Y-67715690D01*
X154092216Y-67879105D01*
X154072133Y-67922174D01*
X154070711Y-67927482D01*
X154070710Y-67927484D01*
X154068717Y-67934923D01*
X154011742Y-68147556D01*
X153991406Y-68380000D01*
X154011742Y-68612444D01*
X154013166Y-68617757D01*
X154013166Y-68617759D01*
X154068775Y-68825292D01*
X154072133Y-68837826D01*
X154074455Y-68842806D01*
X154074456Y-68842808D01*
X154168418Y-69044310D01*
X154168421Y-69044315D01*
X154170744Y-69049297D01*
X154173900Y-69053804D01*
X154173901Y-69053806D01*
X154273824Y-69196510D01*
X154304578Y-69240432D01*
X154469568Y-69405422D01*
X154474076Y-69408579D01*
X154474079Y-69408581D01*
X154629712Y-69517556D01*
X154660703Y-69539256D01*
X154665685Y-69541579D01*
X154665690Y-69541582D01*
X154867752Y-69635805D01*
X154921037Y-69682723D01*
X154940498Y-69751000D01*
X154919956Y-69818960D01*
X154867752Y-69864195D01*
X154665690Y-69958418D01*
X154665685Y-69958421D01*
X154660703Y-69960744D01*
X154656196Y-69963900D01*
X154656194Y-69963901D01*
X154474079Y-70091419D01*
X154474076Y-70091421D01*
X154469568Y-70094578D01*
X154304578Y-70259568D01*
X154301421Y-70264076D01*
X154301419Y-70264079D01*
X154189577Y-70423806D01*
X154170744Y-70450703D01*
X154168421Y-70455685D01*
X154168418Y-70455690D01*
X154093961Y-70615364D01*
X154072133Y-70662174D01*
X154070711Y-70667482D01*
X154070710Y-70667484D01*
X154013166Y-70882241D01*
X154011742Y-70887556D01*
X153991406Y-71120000D01*
X154011742Y-71352444D01*
X154013166Y-71357757D01*
X154013166Y-71357759D01*
X154068775Y-71565292D01*
X154072133Y-71577826D01*
X154074455Y-71582806D01*
X154074456Y-71582808D01*
X154168418Y-71784310D01*
X154168421Y-71784315D01*
X154170744Y-71789297D01*
X154173900Y-71793804D01*
X154173901Y-71793806D01*
X154298713Y-71972056D01*
X154321500Y-72044327D01*
X154321500Y-72935673D01*
X154298713Y-73007944D01*
X154192735Y-73159297D01*
X154170744Y-73190703D01*
X154168421Y-73195685D01*
X154168418Y-73195690D01*
X154074456Y-73397192D01*
X154072133Y-73402174D01*
X154070711Y-73407482D01*
X154070710Y-73407484D01*
X154059882Y-73447896D01*
X154011742Y-73627556D01*
X153991406Y-73860000D01*
X154011742Y-74092444D01*
X154013166Y-74097757D01*
X154013166Y-74097759D01*
X154068775Y-74305292D01*
X154072133Y-74317826D01*
X154074455Y-74322806D01*
X154074456Y-74322808D01*
X154168418Y-74524310D01*
X154168421Y-74524315D01*
X154170744Y-74529297D01*
X154173900Y-74533804D01*
X154173901Y-74533806D01*
X154298713Y-74712056D01*
X154321500Y-74784327D01*
X154321500Y-75675673D01*
X154298713Y-75747944D01*
X154192735Y-75899297D01*
X154170744Y-75930703D01*
X154168421Y-75935685D01*
X154168418Y-75935690D01*
X154090064Y-76103720D01*
X154072133Y-76142174D01*
X154070711Y-76147482D01*
X154070710Y-76147484D01*
X154061521Y-76181777D01*
X154011742Y-76367556D01*
X153991406Y-76600000D01*
X154011742Y-76832444D01*
X154013166Y-76837757D01*
X154013166Y-76837759D01*
X154066935Y-77038425D01*
X154072133Y-77057826D01*
X154074455Y-77062806D01*
X154074456Y-77062808D01*
X154168418Y-77264310D01*
X154168421Y-77264315D01*
X154170744Y-77269297D01*
X154173900Y-77273804D01*
X154173901Y-77273806D01*
X154298713Y-77452056D01*
X154321500Y-77524327D01*
X154321500Y-78415673D01*
X154298713Y-78487944D01*
X154189638Y-78643720D01*
X154170744Y-78670703D01*
X154168421Y-78675685D01*
X154168418Y-78675690D01*
X154111241Y-78798306D01*
X154072133Y-78882174D01*
X154070711Y-78887482D01*
X154070710Y-78887484D01*
X154021533Y-79071016D01*
X154011742Y-79107556D01*
X153991406Y-79340000D01*
X154011742Y-79572444D01*
X154013166Y-79577757D01*
X154013166Y-79577759D01*
X154067254Y-79779616D01*
X154072133Y-79797826D01*
X154074455Y-79802806D01*
X154074456Y-79802808D01*
X154168418Y-80004310D01*
X154168421Y-80004315D01*
X154170744Y-80009297D01*
X154173900Y-80013804D01*
X154173901Y-80013806D01*
X154298713Y-80192056D01*
X154321500Y-80264327D01*
X154321500Y-82243157D01*
X154320763Y-82256764D01*
X154317569Y-82286168D01*
X154316676Y-82294388D01*
X154318350Y-82313523D01*
X154321050Y-82344388D01*
X154321379Y-82349214D01*
X154321500Y-82351686D01*
X154321500Y-82354769D01*
X154321801Y-82357837D01*
X154325690Y-82397506D01*
X154325812Y-82398819D01*
X154327822Y-82421788D01*
X154333913Y-82491413D01*
X154335400Y-82496532D01*
X154335920Y-82501833D01*
X154362791Y-82590834D01*
X154363126Y-82591967D01*
X154378939Y-82646393D01*
X154389091Y-82681336D01*
X154391544Y-82686068D01*
X154393084Y-82691169D01*
X154395978Y-82696612D01*
X154436731Y-82773260D01*
X154437343Y-82774426D01*
X154469568Y-82836593D01*
X154480108Y-82856926D01*
X154483431Y-82861089D01*
X154485934Y-82865796D01*
X154544755Y-82937918D01*
X154545446Y-82938774D01*
X154576738Y-82977973D01*
X154579242Y-82980477D01*
X154579884Y-82981195D01*
X154583585Y-82985528D01*
X154610935Y-83019062D01*
X154615682Y-83022989D01*
X154615684Y-83022991D01*
X154646262Y-83048287D01*
X154655042Y-83056277D01*
X156088149Y-84489384D01*
X156097251Y-84499527D01*
X156120968Y-84529025D01*
X156159450Y-84561315D01*
X156163062Y-84564467D01*
X156164888Y-84566123D01*
X156167075Y-84568310D01*
X156169458Y-84570267D01*
X156169463Y-84570272D01*
X156200268Y-84595576D01*
X156201252Y-84596393D01*
X156272474Y-84656154D01*
X156275898Y-84658037D01*
X156280725Y-84661662D01*
X156281310Y-84662143D01*
X156279618Y-84664201D01*
X156317692Y-84709815D01*
X156326499Y-84780263D01*
X156295820Y-84844289D01*
X156235396Y-84881565D01*
X156214648Y-84885412D01*
X156151315Y-84891734D01*
X156144239Y-84892440D01*
X155915233Y-84942371D01*
X155820851Y-84962950D01*
X155816521Y-84963894D01*
X155813094Y-84965067D01*
X155813088Y-84965069D01*
X155502619Y-85071367D01*
X155502614Y-85071369D01*
X155499188Y-85072542D01*
X155495920Y-85074101D01*
X155495912Y-85074104D01*
X155341604Y-85147706D01*
X155196445Y-85216943D01*
X154912305Y-85395183D01*
X154909471Y-85397453D01*
X154909466Y-85397457D01*
X154670344Y-85589030D01*
X154650535Y-85604900D01*
X154414605Y-85843315D01*
X154412369Y-85846167D01*
X154412367Y-85846169D01*
X154352455Y-85922578D01*
X154207640Y-86107267D01*
X154205747Y-86110356D01*
X154205745Y-86110359D01*
X154181453Y-86150000D01*
X154032385Y-86393257D01*
X154030858Y-86396547D01*
X154030853Y-86396556D01*
X153931741Y-86610075D01*
X153891162Y-86697495D01*
X153785844Y-87015949D01*
X153785108Y-87019504D01*
X153785107Y-87019507D01*
X153760943Y-87136191D01*
X153717825Y-87344397D01*
X153717502Y-87348019D01*
X153717501Y-87348024D01*
X153688332Y-87674865D01*
X153688009Y-87678487D01*
X152908000Y-87678487D01*
X152908000Y-54378487D01*
X153688009Y-54378487D01*
X153688104Y-54382117D01*
X153688104Y-54382119D01*
X153695268Y-54655715D01*
X153696789Y-54713789D01*
X153744050Y-55045861D01*
X153829164Y-55370299D01*
X153951005Y-55682805D01*
X153952709Y-55686023D01*
X154081751Y-55929740D01*
X154107957Y-55979235D01*
X154110009Y-55982220D01*
X154110014Y-55982229D01*
X154186352Y-56093301D01*
X154297939Y-56255661D01*
X154300316Y-56258385D01*
X154300320Y-56258391D01*
X154508046Y-56496510D01*
X154518435Y-56508419D01*
X154766520Y-56734160D01*
X155038907Y-56929889D01*
X155331985Y-57093015D01*
X155641870Y-57221374D01*
X155645364Y-57222369D01*
X155645366Y-57222370D01*
X155960954Y-57312267D01*
X155960959Y-57312268D01*
X155964455Y-57313264D01*
X156153162Y-57344166D01*
X156291884Y-57366883D01*
X156291888Y-57366883D01*
X156295464Y-57367469D01*
X156299090Y-57367640D01*
X156626882Y-57383098D01*
X156626883Y-57383098D01*
X156630509Y-57383269D01*
X156643430Y-57382388D01*
X156961518Y-57360704D01*
X156961526Y-57360703D01*
X156965149Y-57360456D01*
X156968725Y-57359793D01*
X156968727Y-57359793D01*
X157291385Y-57299992D01*
X157291389Y-57299991D01*
X157294950Y-57299331D01*
X157615540Y-57200705D01*
X157857697Y-57094405D01*
X157919346Y-57067343D01*
X157919350Y-57067341D01*
X157922669Y-57065884D01*
X157926741Y-57063505D01*
X158209127Y-56898492D01*
X158209129Y-56898491D01*
X158212267Y-56896657D01*
X158318096Y-56817198D01*
X158477588Y-56697448D01*
X158477592Y-56697445D01*
X158480495Y-56695265D01*
X158723798Y-56464379D01*
X158938952Y-56207059D01*
X158940940Y-56204033D01*
X159121117Y-55929740D01*
X159121122Y-55929731D01*
X159123104Y-55926714D01*
X159273813Y-55627062D01*
X159298923Y-55558445D01*
X159387834Y-55315486D01*
X159387837Y-55315476D01*
X159389082Y-55312074D01*
X159389927Y-55308552D01*
X159389930Y-55308544D01*
X159466537Y-54989453D01*
X159466538Y-54989449D01*
X159467384Y-54985924D01*
X159474357Y-54928304D01*
X159507344Y-54655715D01*
X159507345Y-54655708D01*
X159507680Y-54652936D01*
X159510645Y-54558606D01*
X159512312Y-54505550D01*
X159513429Y-54470000D01*
X159513268Y-54467204D01*
X159494330Y-54138759D01*
X159494329Y-54138754D01*
X159494121Y-54135139D01*
X159483389Y-54073645D01*
X159437077Y-53808289D01*
X159437075Y-53808282D01*
X159436453Y-53804716D01*
X159417027Y-53739133D01*
X159382445Y-53622389D01*
X159341189Y-53483111D01*
X159339478Y-53479098D01*
X159211015Y-53177921D01*
X159209593Y-53174587D01*
X159159383Y-53086559D01*
X159045210Y-52886393D01*
X159045205Y-52886386D01*
X159043407Y-52883233D01*
X158844836Y-52612910D01*
X158616510Y-52367203D01*
X158404514Y-52186141D01*
X158364229Y-52151734D01*
X158364224Y-52151730D01*
X158361457Y-52149367D01*
X158280823Y-52095183D01*
X158086064Y-51964310D01*
X158086060Y-51964308D01*
X158083056Y-51962289D01*
X157784998Y-51808450D01*
X157471234Y-51689889D01*
X157145922Y-51608176D01*
X157005625Y-51589705D01*
X156816978Y-51564869D01*
X156816970Y-51564868D01*
X156813374Y-51564395D01*
X156674939Y-51562221D01*
X156481640Y-51559184D01*
X156481636Y-51559184D01*
X156477998Y-51559127D01*
X156474383Y-51559488D01*
X156474378Y-51559488D01*
X156237374Y-51583144D01*
X156144239Y-51592440D01*
X155816521Y-51663894D01*
X155813094Y-51665067D01*
X155813088Y-51665069D01*
X155502619Y-51771367D01*
X155502614Y-51771369D01*
X155499188Y-51772542D01*
X155495920Y-51774101D01*
X155495912Y-51774104D01*
X155381052Y-51828890D01*
X155196445Y-51916943D01*
X154912305Y-52095183D01*
X154909471Y-52097453D01*
X154909466Y-52097457D01*
X154656393Y-52300207D01*
X154650535Y-52304900D01*
X154414605Y-52543315D01*
X154412369Y-52546167D01*
X154412367Y-52546169D01*
X154227850Y-52781492D01*
X154207640Y-52807267D01*
X154205747Y-52810356D01*
X154205745Y-52810359D01*
X154192249Y-52832383D01*
X154032385Y-53093257D01*
X154030858Y-53096547D01*
X154030853Y-53096556D01*
X153945965Y-53279432D01*
X153891162Y-53397495D01*
X153890022Y-53400942D01*
X153887822Y-53407594D01*
X153785844Y-53715949D01*
X153785108Y-53719504D01*
X153785107Y-53719507D01*
X153729874Y-53986213D01*
X153717825Y-54044397D01*
X153717502Y-54048019D01*
X153717501Y-54048024D01*
X153692285Y-54330574D01*
X153688009Y-54378487D01*
X152908000Y-54378487D01*
X152908000Y-46967965D01*
X156645905Y-46967965D01*
X156646152Y-46972249D01*
X156646152Y-46972250D01*
X156647319Y-46992485D01*
X156662382Y-47253727D01*
X156663207Y-47257932D01*
X156663208Y-47257940D01*
X156681587Y-47351615D01*
X156717489Y-47534610D01*
X156810206Y-47805414D01*
X156842548Y-47869718D01*
X156925880Y-48035405D01*
X156938818Y-48061130D01*
X157100944Y-48297025D01*
X157293585Y-48508735D01*
X157347402Y-48553733D01*
X157509884Y-48689590D01*
X157509889Y-48689594D01*
X157513176Y-48692342D01*
X157634415Y-48768395D01*
X157752014Y-48842165D01*
X157752018Y-48842167D01*
X157755654Y-48844448D01*
X157759564Y-48846213D01*
X157759565Y-48846214D01*
X157786776Y-48858500D01*
X158016531Y-48962238D01*
X158040048Y-48969204D01*
X158286868Y-49042316D01*
X158286873Y-49042317D01*
X158290981Y-49043534D01*
X158295215Y-49044182D01*
X158295220Y-49044183D01*
X158569682Y-49086181D01*
X158569684Y-49086181D01*
X158573924Y-49086830D01*
X158719647Y-49089119D01*
X158855835Y-49091259D01*
X158855841Y-49091259D01*
X158860126Y-49091326D01*
X159144290Y-49056939D01*
X159421157Y-48984304D01*
X159685606Y-48874766D01*
X159932741Y-48730351D01*
X160157991Y-48553733D01*
X160357187Y-48348179D01*
X160359720Y-48344731D01*
X160359724Y-48344726D01*
X160524105Y-48120947D01*
X160526643Y-48117492D01*
X160559325Y-48057299D01*
X160661174Y-47869718D01*
X160661175Y-47869716D01*
X160663224Y-47865942D01*
X160764401Y-47598184D01*
X160802779Y-47430620D01*
X160827347Y-47323351D01*
X160827348Y-47323346D01*
X160828304Y-47319171D01*
X160853749Y-47034067D01*
X160854210Y-46990000D01*
X160834742Y-46704426D01*
X160833875Y-46700240D01*
X160833874Y-46700232D01*
X160777566Y-46428338D01*
X160776696Y-46424136D01*
X160681148Y-46154317D01*
X160589738Y-45977213D01*
X160551831Y-45903769D01*
X160551831Y-45903768D01*
X160549866Y-45899962D01*
X160539325Y-45884963D01*
X160387745Y-45669288D01*
X160387744Y-45669287D01*
X160385278Y-45665778D01*
X160190431Y-45456097D01*
X159968929Y-45274800D01*
X159724872Y-45125242D01*
X159720936Y-45123514D01*
X159466704Y-45011913D01*
X159466700Y-45011912D01*
X159462776Y-45010189D01*
X159187490Y-44931772D01*
X159183248Y-44931168D01*
X159183242Y-44931167D01*
X158908360Y-44892046D01*
X158904109Y-44891441D01*
X158753285Y-44890651D01*
X158622162Y-44889964D01*
X158622155Y-44889964D01*
X158617876Y-44889942D01*
X158613631Y-44890501D01*
X158613629Y-44890501D01*
X158550223Y-44898849D01*
X158334087Y-44927304D01*
X158057996Y-45002834D01*
X157794709Y-45115135D01*
X157549099Y-45262130D01*
X157325711Y-45441097D01*
X157128678Y-45648726D01*
X156961647Y-45881174D01*
X156827709Y-46134141D01*
X156826237Y-46138164D01*
X156826235Y-46138168D01*
X156764721Y-46306262D01*
X156729340Y-46402944D01*
X156668363Y-46682611D01*
X156646403Y-46961642D01*
X156645905Y-46967965D01*
X152908000Y-46967965D01*
X152908000Y-43179000D01*
X152928002Y-43110879D01*
X152981658Y-43064386D01*
X153034000Y-43053000D01*
X239396000Y-43053000D01*
X239464121Y-43073002D01*
G37*
%TD.AperFunction*%
%TD*%
M02*
