M48
; DRILL file {KiCad (6.0.0)} date Mon Aug 22 12:49:25 2022
; FORMAT={-:-/ absolute / inch / decimal}
; #@! TF.CreationDate,2022-08-22T12:49:25+02:00
; #@! TF.GenerationSoftware,Kicad,Pcbnew,(6.0.0)
; #@! TF.FileFunction,Plated,1,2,PTH
FMAT,2
INCH
; #@! TA.AperFunction,Plated,PTH,ViaDrill
T1C0.0157
; #@! TA.AperFunction,Plated,PTH,ComponentDrill
T2C0.0315
; #@! TA.AperFunction,Plated,PTH,ComponentDrill
T3C0.0394
; #@! TA.AperFunction,Plated,PTH,ComponentDrill
T4C0.0400
; #@! TA.AperFunction,Plated,PTH,ComponentDrill
T5C0.0433
; #@! TA.AperFunction,Plated,PTH,ComponentDrill
T6C0.0472
; #@! TA.AperFunction,Plated,PTH,ComponentDrill
T7C0.0984
; #@! TA.AperFunction,Plated,PTH,ComponentDrill
T8C0.1260
%
G90
G05
T1
X6.8Y-3.3
X7.675Y-3.075
X8.25Y-2.4
X8.4504Y-3.0898
X8.55Y-2.425
X8.725Y-3.675
T2
X8.2Y-2.0
X8.2Y-2.3
X8.3Y-2.0
X8.3Y-2.3
X8.4Y-2.0
X8.4Y-2.3
X8.5Y-2.0
X8.5Y-2.3
T3
X6.55Y-3.5
X6.65Y-3.5
X6.75Y-3.5
X6.85Y-3.5
X6.95Y-3.5
X7.05Y-3.5
T4
X7.375Y-2.08
X7.375Y-2.18
X7.375Y-2.28
X7.375Y-2.38
X7.375Y-2.48
X7.375Y-2.58
X7.375Y-2.68
X7.375Y-2.78
X7.375Y-2.88
X7.375Y-2.98
X7.375Y-3.08
X7.375Y-3.18
X7.375Y-3.28
X7.375Y-3.38
X7.375Y-3.48
X7.975Y-2.08
X7.975Y-2.18
X7.975Y-2.28
X7.975Y-2.38
X7.975Y-2.48
X7.975Y-2.58
X7.975Y-2.68
X7.975Y-2.78
X7.975Y-2.88
X7.975Y-2.98
X7.975Y-3.08
X7.975Y-3.18
X7.975Y-3.28
X7.975Y-3.38
X7.975Y-3.48
T5
X6.1154Y-2.4764
X6.1154Y-2.5843
X6.1154Y-2.6921
X6.1154Y-2.8
X6.1154Y-2.9079
X6.1154Y-3.0157
X6.1154Y-3.1236
X6.2154Y-2.4224
X6.2154Y-2.5303
X6.2154Y-2.6382
X6.2154Y-2.7461
X6.2154Y-2.8539
X6.2154Y-2.9618
X6.2154Y-3.0697
X6.2154Y-3.1776
T6
X9.3378Y-2.0843
X9.3378Y-2.6157
X9.3732Y-2.9902
X9.3732Y-3.5098
T7
X9.1016Y-2.2083
X9.1016Y-2.4917
X9.1016Y-3.1083
X9.1016Y-3.3917
T8
X6.1654Y-2.1445
X6.1654Y-3.4555
T0
M30
