%TF.GenerationSoftware,KiCad,Pcbnew,(6.0.0)*%
%TF.CreationDate,2022-08-22T12:49:25+02:00*%
%TF.ProjectId,pcb,7063622e-6b69-4636-9164-5f7063625858,rev?*%
%TF.SameCoordinates,Original*%
%TF.FileFunction,Soldermask,Top*%
%TF.FilePolarity,Negative*%
%FSLAX46Y46*%
G04 Gerber Fmt 4.6, Leading zero omitted, Abs format (unit mm)*
G04 Created by KiCad (PCBNEW (6.0.0)) date 2022-08-22 12:49:25*
%MOMM*%
%LPD*%
G01*
G04 APERTURE LIST*
G04 Aperture macros list*
%AMRoundRect*
0 Rectangle with rounded corners*
0 $1 Rounding radius*
0 $2 $3 $4 $5 $6 $7 $8 $9 X,Y pos of 4 corners*
0 Add a 4 corners polygon primitive as box body*
4,1,4,$2,$3,$4,$5,$6,$7,$8,$9,$2,$3,0*
0 Add four circle primitives for the rounded corners*
1,1,$1+$1,$2,$3*
1,1,$1+$1,$4,$5*
1,1,$1+$1,$6,$7*
1,1,$1+$1,$8,$9*
0 Add four rect primitives between the rounded corners*
20,1,$1+$1,$2,$3,$4,$5,0*
20,1,$1+$1,$4,$5,$6,$7,0*
20,1,$1+$1,$6,$7,$8,$9,0*
20,1,$1+$1,$8,$9,$2,$3,0*%
G04 Aperture macros list end*
%ADD10O,1.200000X2.000000*%
%ADD11RoundRect,0.042000X-0.943000X-0.258000X0.943000X-0.258000X0.943000X0.258000X-0.943000X0.258000X0*%
%ADD12R,1.650000X1.650000*%
%ADD13C,1.650000*%
%ADD14C,4.800000*%
%ADD15C,6.000000*%
%ADD16C,2.000000*%
%ADD17R,1.700000X1.700000*%
%ADD18O,1.700000X1.700000*%
%ADD19C,1.850000*%
%ADD20C,1.727200*%
%ADD21R,1.727200X1.727200*%
%ADD22RoundRect,0.229500X-0.445500X2.070500X-0.445500X-2.070500X0.445500X-2.070500X0.445500X2.070500X0*%
%ADD23R,10.800000X9.400000*%
G04 APERTURE END LIST*
D10*
%TO.C,U6*%
X208280000Y-58420000D03*
X210820000Y-58420000D03*
X213360000Y-58420000D03*
X215900000Y-58420000D03*
X215900000Y-50800000D03*
X213360000Y-50800000D03*
X210820000Y-50800000D03*
X208280000Y-50800000D03*
%TD*%
D11*
%TO.C,U3*%
X209620000Y-62865000D03*
X209620000Y-64135000D03*
X209620000Y-65405000D03*
X209620000Y-66675000D03*
X214560000Y-66675000D03*
X214560000Y-65405000D03*
X214560000Y-64135000D03*
X214560000Y-62865000D03*
%TD*%
D12*
%TO.C,J1*%
X157870000Y-80710000D03*
D13*
X157870000Y-77970000D03*
X157870000Y-75230000D03*
X157870000Y-72490000D03*
X157870000Y-69750000D03*
X157870000Y-67010000D03*
X157870000Y-64270000D03*
X157870000Y-61530000D03*
X155330000Y-79340000D03*
X155330000Y-76600000D03*
X155330000Y-73860000D03*
X155330000Y-71120000D03*
X155330000Y-68380000D03*
X155330000Y-65640000D03*
X155330000Y-62900000D03*
D14*
X156600000Y-87770000D03*
X156600000Y-54470000D03*
%TD*%
D15*
%TO.C,U2*%
X231180000Y-56090000D03*
X231180000Y-63290000D03*
D16*
X237180000Y-52940000D03*
X237180000Y-66440000D03*
%TD*%
D17*
%TO.C,U5*%
X166370000Y-88900000D03*
D18*
X168910000Y-88900000D03*
X171450000Y-88900000D03*
X173990000Y-88900000D03*
X176530000Y-88900000D03*
X179070000Y-88900000D03*
%TD*%
D19*
%TO.C,XA1*%
X202565000Y-50292000D03*
X202565000Y-90932000D03*
X187325000Y-90932000D03*
X187325000Y-50292000D03*
D20*
X187325000Y-55372000D03*
X187325000Y-80772000D03*
X187325000Y-60452000D03*
X187325000Y-62992000D03*
X187325000Y-65532000D03*
X187325000Y-68072000D03*
X187325000Y-70612000D03*
X187325000Y-73152000D03*
X187325000Y-75692000D03*
X187325000Y-78232000D03*
X187325000Y-57912000D03*
X202565000Y-85852000D03*
D21*
X202565000Y-88392000D03*
D20*
X202565000Y-78232000D03*
X202565000Y-75692000D03*
X202565000Y-73152000D03*
X202565000Y-70612000D03*
X202565000Y-68072000D03*
X202565000Y-65532000D03*
X202565000Y-62992000D03*
X202565000Y-60452000D03*
X202565000Y-57912000D03*
X202565000Y-55372000D03*
X202565000Y-52832000D03*
X187325000Y-52832000D03*
X202565000Y-80772000D03*
X187325000Y-85852000D03*
X202565000Y-83312000D03*
X187325000Y-83312000D03*
X187325000Y-88392000D03*
%TD*%
D15*
%TO.C,U1*%
X231180000Y-78950000D03*
X231180000Y-86150000D03*
D16*
X238080000Y-75950000D03*
X238080000Y-89150000D03*
%TD*%
D22*
%TO.C,U4*%
X214640000Y-78480000D03*
D23*
X212090000Y-87630000D03*
D22*
X209540000Y-78480000D03*
%TD*%
M02*
